<?xml version="1.0" encoding="UTF-8"?>
<svg version="1.1" viewBox="0 0 2048 2048" width="1280" height="1280" xmlns="http://www.w3.org/2000/svg">
<path fill="#0040be" transform="translate(691,824)" d="m0 0h22l15 2 19 5 20 8 18 10 14 10 13 11 13 13 13 17 8 13 10 19 7 18 6 22 4 21 3 34 3 72 1 43v37l-1 18h567l15 2 15 5 13 7 11 8v2l4 2 10 12 8 13 6 14 5 17 2 12v32l-4 19-4 12-4 9-6 11-9 12-10 10-10 7-14 7-13 4-14 2-201 1 6 13 5 18 2 14v15l-3 18-5 15-8 16-10 14-7 8h-2v2l-5 4h-2l2 5 9 11 8 14 5 13 4 15 1 6v26l-3 16-6 16-8 15-10 13-12 12-10 7-14 8-7 2 10 21 5 18 2 14v14l-2 16-5 17-8 16-7 11-3 4h-2l-2 4-9 9-14 10-16 8-15 5-18 3h-451l-20-2-26-5-24-8-21-10-16-10-16-13-8-7-10-9-16-16-2-1v-2l-4-2-9-8-15-9-14-4-8-2v34l-2 15-4 12-8 16-9 11-11 10-12 7-15 5-11 2h-171l-16-4-14-7-9-7-9-9-9-14-6-12-5-17-6-36-27-179-29-192-21-138-1-8v-14l4-17 7-14 9-12h2l2-4 14-11 15-7 11-3 7-1h253l15 3 16 7 13 10 7 7 9 13 7 16 3 12 1 9v25l4-4 13-26 13-22 8-12 9-12 12-14 13-13 14-11 19-12 19-9 19-7 26-9 8-6 3-7 2-11v-64l-2-147v-16l2-14 4-13 7-13 11-13 11-9 10-6 14-5 12-3zm4 57-12 3-6 4-5 5-2 6v60l1 76v95l-2 16-4 14-5 12-9 13-8 8-13 8-16 7-34 12-17 8-16 11-11 9v2h-2l-9 11-8 10-9 14-10 18-10 19-5 9-8 10-7 7-13 8-12 5-10 3-1 1v374l18 2 16 4 13 5 18 10 16 13 12 11 13 13h2v2l8 7 9 8 15 11 15 8 15 6 17 4 13 2 13 1h171l-8-21-4-20v-23l4-20 5-13 8-15 10-13 5-6 2-1v-2l4-2 6-5-2-4-9-13-8-16-5-15-2-9-1-9v-16l3-18 6-17 9-17 10-13 14-14-13-17-8-16-4-11-4-18v-26l4-19 8-19 9-14 9-11 11-10 15-10 16-7 15-4 20-2 504-1 10-3 8-6 6-7 5-10 4-16v-20l-4-17-7-13-7-7-10-5-6-1h-568l-5 31-6 29-7 23-8 21-9 19-7 12-8 12-11 14-3 3v2h-2l-7 8-15 13-17 12-18 10-14 7-24 9-25 7-26 5-33 4-33 2h-9l-10-2-6-3-7-7-4-8-1-4v-7l3-10 6-8 8-5 12-2 39-2 26-3 25-5 20-6 20-8 17-9 14-10 11-9v-2l4-2v-2h2l9-11 12-18 8-16 8-21 6-20 5-25 4-34 2-36v-95l-3-77-2-26-5-25-6-18-10-21-8-12-9-11-9-9-15-11-17-9-15-5-13-2zm-583 377-8 3-7 7-2 5v14l16 105 15 100 17 112 15 100 17 112 4 16 5 10 4 5 8 3h161l8-4 7-8 2-6 1-8v-538l-2-13-3-6-4-5-8-4zm830 158-14 2-12 5-9 7-8 9-7 14-2 10v13l3 12 6 11 9 10 9 6 8 4 8 2h226l14-5 10-7 5-4 7-10 4-8 2-8v-20l-3-10-6-11-8-9-11-7-11-4-16-2zm-9 162-17 2-12 5-9 7-5 5-6 8-5 13-1 4v19l3 10 6 11 8 9 11 7 10 4 12 2h210l16-3 12-6 10-9 5-6 5-10 3-13v-13l-3-11-6-12-9-10-9-6-12-5-4-1-164-1zm-15 162-18 2-11 4-9 6-8 7-7 11-4 12-1 5v14l4 14 9 14 9 8 12 6 6 2 7 1h182l10-2 14-7 10-9 6-8 5-12 2-12-1-13-4-12-6-10-6-7-10-7-13-5-7-1z"/>
<path fill="#0040be" transform="translate(1279,155)" d="m0 0h62l32 3 32 5 34 8 29 9 29 11 24 11 16 8 23 13 22 14 18 13 14 11 14 12 10 9 2 1v2l4 2 17 17 7 8 10 11 9 11 13 17 12 17 15 24 13 24 13 27 11 27 10 31 8 32 6 32 3 25 1 13 1 26-1 45 17 3 24 7 16 6 29 14 19 12 16 12 13 11 14 13 7 8 11 13 13 18 9 15 8 15 9 21 8 24 5 22 3 21 1 10v40l-4 29-6 25-6 18-9 21-11 21-10 16-13 17-8 10h-2l-2 4-16 16-11 9-10 8-21 14-24 13-25 10-23 7-31 6-20 2h-30l-28-3-24-5-26-8-23-10-21-11-15-10-16-12-10-9-8-7-11-11-7-8-12-15-12-18-3-5-9 3-33 13-28 9-32 8-34 6-26 3-36 2h-14l-38-2-31-4-31-6-30-8-30-10-22-9-26-12-28-15-22-14-20-14-14-11-13-11-8-7-12-11-23-23-7-8-11-13-11-14-13-18-11-17-13-22-15-29-12-28-12-34-9-34-5-26-4-28-2-21-1-23v-19l2-36 4-31 5-26 8-32 11-33 12-29 9-19 12-22 10-17 10-15 12-17 11-14 9-11 10-11 7-8 7-7 5-6 8-7 6-6h2v-2l11-9 13-11 16-12 27-18 15-9 18-10 22-11 24-10 25-9 30-9 38-8 38-5zm25 56-33 2-31 4-29 6-25 7-21 7-22 9-25 12-17 9-21 13-20 14-15 12-11 9-12 11-9 8v2l-4 2-7 8-13 14-22 28-16 24-12 21-12 23-13 31-10 30-8 32-4 21-4 36v59l4 36 6 31 8 29 10 29 12 28 10 19 10 18 16 24 14 19 12 14 9 10 7 8 16 16 8 7 15 13 20 15 21 14 15 9 20 11 26 12 26 10 26 8 30 7 25 4 29 3h58l36-4 35-7 28-8 21-7 24-10 6-3 1-3-5-18-5-27-2-23v-25l2-22 5-26 7-25 8-20 9-19 12-20 8-11 9-12 13-15 17-17 14-11 17-12 18-11 16-8 19-8 18-6 21-5 18-3 20-2 3-1 1-4v-59l-3-29-4-24-6-27-8-26-8-22-9-21-9-19-10-18-13-21-13-18-10-13-13-15-11-12-22-22-11-9-13-11-18-13-15-10-19-11-22-12-32-14-36-12-23-6-25-5-21-3-22-2zm431 516-19 2-25 5-21 7-20 9-17 10-14 10-13 11-20 20-9 12-7 10-11 19-9 20-8 26-3 15-3 28v15l3 27 5 22 6 18 8 18 8 15 8 12 9 12 12 14 7 7 8 7 14 11 19 12 22 11 19 7 25 6 15 2 15 1h17l20-2 17-3 22-6 24-10 18-10 12-8 14-11 12-11 10-10 11-14 9-13 9-16 9-19 6-18 5-21 2-13 1-13v-26l-3-25-6-24-7-19-11-23-11-17-10-13-12-13-11-11-17-13-15-10-21-11-24-9-19-5-19-3-13-1z"/>
<path fill="#0040be" transform="translate(1307,334)" d="m0 0h9l11 4 7 6 5 9 1 4 1 55 15 3 16 5 17 7 18 10 13 10 12 11 9 10 10 15 8 17 5 19 1 8v16l-4 9-7 8-7 4-4 1h-14l-10-5-8-9-3-9-2-16-5-14-9-13-10-9-11-7-14-7-16-5-18-3h-23l-18 3-16 5-16 8-11 8-6 5-8 11-6 12-2 7-1 14 2 15 5 12 6 8 8 7 16 8 22 7 32 7 44 9 26 7 25 10 16 9 14 11 9 9 10 14 7 15 5 18 2 16v20l-3 19-6 16-9 17-11 14-6 7-8 7-12 9-15 9-17 8-22 7-14 3-1 1-1 55-5 10-5 6-10 5-13 1-9-3-10-9-4-9-1-4v-53l-12-2-17-5-20-8-16-9-16-12-12-11-11-14-8-13-6-13-4-13-3-17v-10l3-11 7-9 12-6h13l10 4 7 7 4 7 4 24 5 12 7 11 8 8 15 10 15 7 13 4 10 2 10 1h22l18-3 18-6 19-10 13-11 9-12 5-12 2-9v-14l-2-12-5-12-7-9-10-7-16-7-23-7-32-7-40-8-22-6-17-6-16-7-16-10-14-12-10-12-8-14-5-12-4-16-2-17v-14l3-19 5-16 10-19 10-13 4-5h2l2-4 10-9 17-12 19-10 20-7 21-5h2v-54l4-10 7-8 6-4z"/>
<path fill="#0040be" transform="translate(1858,837)" d="m0 0h7l10 3 10 9 5 10 1 8-3 11-7 10-8 7-14 14-8 7-12 12-8 7-9 9h-2v2h-2v2l-8 7-9 9-8 7-14 14-8 7-13 13-8 7-12 12-11 9-5 3-8 2-11-1-8-4-12-11-72-72-5-7-3-10 1-11 5-10 8-7 7-3 10-1 10 3 9 6 58 58 6-4 17-17h2v-2l8-7 11-11 8-7 11-11h2v-2l8-7 9-9 8-7 13-13h2v-2l8-7 15-15 10-7z"/>
<path fill="#0040be" transform="translate(227,1307)" d="m0 0h14l8 3 9 8 4 8 1 3v107l-3 9-6 8-8 5-8 2h-8l-9-3-7-5-6-9-2-7v-107l4-9 7-8z"/>
</svg>
