<?xml version="1.0" encoding="utf-8"?>
<!-- Generator: Adobe Illustrator 24.1.2, SVG Export Plug-In . SVG Version: 6.00 Build 0)  -->
<svg version="1.1" id="Layer_1" xmlns="http://www.w3.org/2000/svg" xmlns:xlink="http://www.w3.org/1999/xlink" x="0px" y="0px"
	 viewBox="0 0 288 560" style="enable-background:new 0 0 288 560;" xml:space="preserve">
<style type="text/css">
	.st0{opacity:4.000000e-03;fill-rule:evenodd;clip-rule:evenodd;fill:#1E56A7;enable-background:new    ;}
	.st1{opacity:5.000000e-03;fill-rule:evenodd;clip-rule:evenodd;fill:#1E56A7;enable-background:new    ;}
	.st2{opacity:6.000000e-03;fill-rule:evenodd;clip-rule:evenodd;fill:#1E56A7;enable-background:new    ;}
	.st3{opacity:7.000000e-03;fill-rule:evenodd;clip-rule:evenodd;fill:#1E56A7;enable-background:new    ;}
	.st4{opacity:9.000000e-03;fill-rule:evenodd;clip-rule:evenodd;fill:#1E56A7;enable-background:new    ;}
	.st5{opacity:8.000000e-03;fill-rule:evenodd;clip-rule:evenodd;fill:#1E56A7;enable-background:new    ;}
	.st6{opacity:1.100000e-02;fill-rule:evenodd;clip-rule:evenodd;fill:#1E56A7;enable-background:new    ;}
	.st7{opacity:1.200000e-02;fill-rule:evenodd;clip-rule:evenodd;fill:#1E56A7;enable-background:new    ;}
	.st8{opacity:1.400000e-02;fill-rule:evenodd;clip-rule:evenodd;fill:#1E56A7;enable-background:new    ;}
	.st9{opacity:1.500000e-02;fill-rule:evenodd;clip-rule:evenodd;fill:#1E56A7;enable-background:new    ;}
	.st10{opacity:1.700000e-02;fill-rule:evenodd;clip-rule:evenodd;fill:#1E56A7;enable-background:new    ;}
	.st11{opacity:1.900000e-02;fill-rule:evenodd;clip-rule:evenodd;fill:#1E56A7;enable-background:new    ;}
	.st12{opacity:2.200000e-02;fill-rule:evenodd;clip-rule:evenodd;fill:#1E56A7;enable-background:new    ;}
	.st13{opacity:2.300000e-02;fill-rule:evenodd;clip-rule:evenodd;fill:#1E56A7;enable-background:new    ;}
	.st14{opacity:2.400000e-02;fill-rule:evenodd;clip-rule:evenodd;fill:#1E56A7;enable-background:new    ;}
	.st15{opacity:2.500000e-02;fill-rule:evenodd;clip-rule:evenodd;fill:#1E56A7;enable-background:new    ;}
	.st16{opacity:2.700000e-02;fill-rule:evenodd;clip-rule:evenodd;fill:#1E56A7;enable-background:new    ;}
	.st17{opacity:3.100000e-02;fill-rule:evenodd;clip-rule:evenodd;fill:#1E56A7;enable-background:new    ;}
	.st18{opacity:2.600000e-02;fill-rule:evenodd;clip-rule:evenodd;fill:#1E56A7;enable-background:new    ;}
	.st19{opacity:3.000000e-02;fill-rule:evenodd;clip-rule:evenodd;fill:#1E56A7;enable-background:new    ;}
	.st20{opacity:3.300000e-02;fill-rule:evenodd;clip-rule:evenodd;fill:#1E56A7;enable-background:new    ;}
	.st21{opacity:3.500000e-02;fill-rule:evenodd;clip-rule:evenodd;fill:#1E56A7;enable-background:new    ;}
	.st22{opacity:3.200000e-02;fill-rule:evenodd;clip-rule:evenodd;fill:#1E56A7;enable-background:new    ;}
	.st23{opacity:2.900000e-02;fill-rule:evenodd;clip-rule:evenodd;fill:#1E56A7;enable-background:new    ;}
	.st24{opacity:3.600000e-02;fill-rule:evenodd;clip-rule:evenodd;fill:#1E56A7;enable-background:new    ;}
	.st25{opacity:4.000000e-02;fill-rule:evenodd;clip-rule:evenodd;fill:#1E56A7;enable-background:new    ;}
	.st26{opacity:1.600000e-02;fill-rule:evenodd;clip-rule:evenodd;fill:#1E56A7;enable-background:new    ;}
	.st27{opacity:4.300000e-02;fill-rule:evenodd;clip-rule:evenodd;fill:#1E56A7;enable-background:new    ;}
	.st28{opacity:3.900000e-02;fill-rule:evenodd;clip-rule:evenodd;fill:#1E56A7;enable-background:new    ;}
	.st29{opacity:3.400000e-02;fill-rule:evenodd;clip-rule:evenodd;fill:#1E56A7;enable-background:new    ;}
	.st30{opacity:4.500000e-02;fill-rule:evenodd;clip-rule:evenodd;fill:#1E56A7;enable-background:new    ;}
	.st31{opacity:4.700000e-02;fill-rule:evenodd;clip-rule:evenodd;fill:#1E56A7;enable-background:new    ;}
	.st32{opacity:5.100000e-02;fill-rule:evenodd;clip-rule:evenodd;fill:#1E56A7;enable-background:new    ;}
	.st33{opacity:2.100000e-02;fill-rule:evenodd;clip-rule:evenodd;fill:#1E56A7;enable-background:new    ;}
	.st34{opacity:4.200000e-02;fill-rule:evenodd;clip-rule:evenodd;fill:#1E56A7;enable-background:new    ;}
	.st35{opacity:4.800000e-02;fill-rule:evenodd;clip-rule:evenodd;fill:#1E56A7;enable-background:new    ;}
	.st36{opacity:5.300000e-02;fill-rule:evenodd;clip-rule:evenodd;fill:#1E56A7;enable-background:new    ;}
	.st37{opacity:5.200000e-02;fill-rule:evenodd;clip-rule:evenodd;fill:#1E56A7;enable-background:new    ;}
	.st38{opacity:5.900000e-02;fill-rule:evenodd;clip-rule:evenodd;fill:#1E56A7;enable-background:new    ;}
	.st39{opacity:6.100000e-02;fill-rule:evenodd;clip-rule:evenodd;fill:#1E56A7;enable-background:new    ;}
	.st40{opacity:6.200000e-02;fill-rule:evenodd;clip-rule:evenodd;fill:#1E56A7;enable-background:new    ;}
	.st41{opacity:4.400000e-02;fill-rule:evenodd;clip-rule:evenodd;fill:#1E56A7;enable-background:new    ;}
	.st42{opacity:6.900000e-02;fill-rule:evenodd;clip-rule:evenodd;fill:#1E56A7;enable-background:new    ;}
	.st43{opacity:1.000000e-02;fill-rule:evenodd;clip-rule:evenodd;fill:#1E56A7;enable-background:new    ;}
	.st44{opacity:5.600000e-02;fill-rule:evenodd;clip-rule:evenodd;fill:#1E56A7;enable-background:new    ;}
	.st45{opacity:6.000000e-02;fill-rule:evenodd;clip-rule:evenodd;fill:#1E56A7;enable-background:new    ;}
	.st46{opacity:6.800000e-02;fill-rule:evenodd;clip-rule:evenodd;fill:#1E56A7;enable-background:new    ;}
	.st47{opacity:6.600000e-02;fill-rule:evenodd;clip-rule:evenodd;fill:#1E56A7;enable-background:new    ;}
	.st48{opacity:8.100000e-02;fill-rule:evenodd;clip-rule:evenodd;fill:#1E56A7;enable-background:new    ;}
	.st49{opacity:7.100000e-02;fill-rule:evenodd;clip-rule:evenodd;fill:#1E56A7;enable-background:new    ;}
	.st50{opacity:7.700000e-02;fill-rule:evenodd;clip-rule:evenodd;fill:#1E56A7;enable-background:new    ;}
	.st51{opacity:9.300000e-02;fill-rule:evenodd;clip-rule:evenodd;fill:#1E56A7;enable-background:new    ;}
	.st52{opacity:3.700000e-02;fill-rule:evenodd;clip-rule:evenodd;fill:#1E56A7;enable-background:new    ;}
	.st53{opacity:7.400000e-02;fill-rule:evenodd;clip-rule:evenodd;fill:#1E56A7;enable-background:new    ;}
	.st54{opacity:8.600000e-02;fill-rule:evenodd;clip-rule:evenodd;fill:#1E56A7;enable-background:new    ;}
	.st55{opacity:8.500000e-02;fill-rule:evenodd;clip-rule:evenodd;fill:#1E56A7;enable-background:new    ;}
	.st56{opacity:0.107;fill-rule:evenodd;clip-rule:evenodd;fill:#1E56A7;enable-background:new    ;}
	.st57{opacity:9.100000e-02;fill-rule:evenodd;clip-rule:evenodd;fill:#1E56A7;enable-background:new    ;}
	.st58{opacity:0.101;fill-rule:evenodd;clip-rule:evenodd;fill:#1E56A7;enable-background:new    ;}
	.st59{opacity:0.1;fill-rule:evenodd;clip-rule:evenodd;fill:#1E56A7;enable-background:new    ;}
	.st60{opacity:7.200000e-02;fill-rule:evenodd;clip-rule:evenodd;fill:#1E56A7;enable-background:new    ;}
	.st61{opacity:9.600000e-02;fill-rule:evenodd;clip-rule:evenodd;fill:#1E56A7;enable-background:new    ;}
	.st62{opacity:0.122;fill-rule:evenodd;clip-rule:evenodd;fill:#1E56A7;enable-background:new    ;}
	.st63{opacity:9.900000e-02;fill-rule:evenodd;clip-rule:evenodd;fill:#1E56A7;enable-background:new    ;}
	.st64{opacity:0.11;fill-rule:evenodd;clip-rule:evenodd;fill:#1E56A7;enable-background:new    ;}
	.st65{opacity:0.112;fill-rule:evenodd;clip-rule:evenodd;fill:#1E56A7;enable-background:new    ;}
	.st66{opacity:8.400000e-02;fill-rule:evenodd;clip-rule:evenodd;fill:#1E56A7;enable-background:new    ;}
	.st67{opacity:0.108;fill-rule:evenodd;clip-rule:evenodd;fill:#1E56A7;enable-background:new    ;}
	.st68{opacity:0.121;fill-rule:evenodd;clip-rule:evenodd;fill:#1E56A7;enable-background:new    ;}
	.st69{opacity:0.136;fill-rule:evenodd;clip-rule:evenodd;fill:#1E56A7;enable-background:new    ;}
	.st70{opacity:0.123;fill-rule:evenodd;clip-rule:evenodd;fill:#1E56A7;enable-background:new    ;}
	.st71{opacity:0.119;fill-rule:evenodd;clip-rule:evenodd;fill:#1E56A7;enable-background:new    ;}
	.st72{opacity:0.135;fill-rule:evenodd;clip-rule:evenodd;fill:#1E56A7;enable-background:new    ;}
	.st73{opacity:0.169;fill-rule:evenodd;clip-rule:evenodd;fill:#1E56A7;enable-background:new    ;}
	.st74{opacity:0.13;fill-rule:evenodd;clip-rule:evenodd;fill:#1E56A7;enable-background:new    ;}
	.st75{opacity:0.134;fill-rule:evenodd;clip-rule:evenodd;fill:#1E56A7;enable-background:new    ;}
	.st76{opacity:7.000000e-02;fill-rule:evenodd;clip-rule:evenodd;fill:#1E56A7;enable-background:new    ;}
	.st77{opacity:0.137;fill-rule:evenodd;clip-rule:evenodd;fill:#1E56A7;enable-background:new    ;}
	.st78{opacity:0.154;fill-rule:evenodd;clip-rule:evenodd;fill:#1E56A7;enable-background:new    ;}
	.st79{opacity:0.184;fill-rule:evenodd;clip-rule:evenodd;fill:#1E56A7;enable-background:new    ;}
	.st80{opacity:0.147;fill-rule:evenodd;clip-rule:evenodd;fill:#1E56A7;enable-background:new    ;}
	.st81{opacity:0.12;fill-rule:evenodd;clip-rule:evenodd;fill:#1E56A7;enable-background:new    ;}
	.st82{opacity:0.15;fill-rule:evenodd;clip-rule:evenodd;fill:#1E56A7;enable-background:new    ;}
	.st83{opacity:0.143;fill-rule:evenodd;clip-rule:evenodd;fill:#1E56A7;enable-background:new    ;}
	.st84{opacity:0.159;fill-rule:evenodd;clip-rule:evenodd;fill:#1E56A7;enable-background:new    ;}
	.st85{opacity:0.196;fill-rule:evenodd;clip-rule:evenodd;fill:#1E56A7;enable-background:new    ;}
	.st86{opacity:0.158;fill-rule:evenodd;clip-rule:evenodd;fill:#1E56A7;enable-background:new    ;}
	.st87{opacity:8.300000e-02;fill-rule:evenodd;clip-rule:evenodd;fill:#1E56A7;enable-background:new    ;}
	.st88{opacity:0.151;fill-rule:evenodd;clip-rule:evenodd;fill:#1E56A7;enable-background:new    ;}
	.st89{opacity:0.176;fill-rule:evenodd;clip-rule:evenodd;fill:#1E56A7;enable-background:new    ;}
	.st90{opacity:0.155;fill-rule:evenodd;clip-rule:evenodd;fill:#1E56A7;enable-background:new    ;}
	.st91{opacity:0.132;fill-rule:evenodd;clip-rule:evenodd;fill:#1E56A7;enable-background:new    ;}
	.st92{opacity:0.182;fill-rule:evenodd;clip-rule:evenodd;fill:#1E56A7;enable-background:new    ;}
	.st93{opacity:0.206;fill-rule:evenodd;clip-rule:evenodd;fill:#1E56A7;enable-background:new    ;}
	.st94{opacity:0.171;fill-rule:evenodd;clip-rule:evenodd;fill:#1E56A7;enable-background:new    ;}
	.st95{opacity:0.194;fill-rule:evenodd;clip-rule:evenodd;fill:#1E56A7;enable-background:new    ;}
	.st96{opacity:0.172;fill-rule:evenodd;clip-rule:evenodd;fill:#1E56A7;enable-background:new    ;}
	.st97{opacity:0.208;fill-rule:evenodd;clip-rule:evenodd;fill:#1E56A7;enable-background:new    ;}
	.st98{opacity:0.181;fill-rule:evenodd;clip-rule:evenodd;fill:#1E56A7;enable-background:new    ;}
	.st99{opacity:0.225;fill-rule:evenodd;clip-rule:evenodd;fill:#1E56A7;enable-background:new    ;}
	.st100{opacity:0.212;fill-rule:evenodd;clip-rule:evenodd;fill:#1E56A7;enable-background:new    ;}
	.st101{opacity:9.400000e-02;fill-rule:evenodd;clip-rule:evenodd;fill:#1E56A7;enable-background:new    ;}
	.st102{opacity:0.21;fill-rule:evenodd;clip-rule:evenodd;fill:#1E56A7;enable-background:new    ;}
	.st103{opacity:0.139;fill-rule:evenodd;clip-rule:evenodd;fill:#1E56A7;enable-background:new    ;}
	.st104{opacity:0.185;fill-rule:evenodd;clip-rule:evenodd;fill:#1E56A7;enable-background:new    ;}
	.st105{opacity:0.248;fill-rule:evenodd;clip-rule:evenodd;fill:#1E56A7;enable-background:new    ;}
	.st106{opacity:0.18;fill-rule:evenodd;clip-rule:evenodd;fill:#1E56A7;enable-background:new    ;}
	.st107{opacity:0.221;fill-rule:evenodd;clip-rule:evenodd;fill:#1E56A7;enable-background:new    ;}
	.st108{opacity:0.242;fill-rule:evenodd;clip-rule:evenodd;fill:#1E56A7;enable-background:new    ;}
	.st109{opacity:0.218;fill-rule:evenodd;clip-rule:evenodd;fill:#1E56A7;enable-background:new    ;}
	.st110{opacity:0.209;fill-rule:evenodd;clip-rule:evenodd;fill:#1E56A7;enable-background:new    ;}
	.st111{opacity:0.245;fill-rule:evenodd;clip-rule:evenodd;fill:#1E56A7;enable-background:new    ;}
	.st112{opacity:0.177;fill-rule:evenodd;clip-rule:evenodd;fill:#1E56A7;enable-background:new    ;}
	.st113{opacity:0.223;fill-rule:evenodd;clip-rule:evenodd;fill:#1E56A7;enable-background:new    ;}
	.st114{opacity:0.23;fill-rule:evenodd;clip-rule:evenodd;fill:#1E56A7;enable-background:new    ;}
	.st115{opacity:0.256;fill-rule:evenodd;clip-rule:evenodd;fill:#1E56A7;enable-background:new    ;}
	.st116{opacity:0.103;fill-rule:evenodd;clip-rule:evenodd;fill:#1E56A7;enable-background:new    ;}
	.st117{opacity:0.226;fill-rule:evenodd;clip-rule:evenodd;fill:#1E56A7;enable-background:new    ;}
	.st118{opacity:0.26;fill-rule:evenodd;clip-rule:evenodd;fill:#1E56A7;enable-background:new    ;}
	.st119{opacity:0.262;fill-rule:evenodd;clip-rule:evenodd;fill:#1E56A7;enable-background:new    ;}
	.st120{opacity:0.257;fill-rule:evenodd;clip-rule:evenodd;fill:#1E56A7;enable-background:new    ;}
	.st121{opacity:0.255;fill-rule:evenodd;clip-rule:evenodd;fill:#1E56A7;enable-background:new    ;}
	.st122{opacity:0.104;fill-rule:evenodd;clip-rule:evenodd;fill:#1E56A7;enable-background:new    ;}
	.st123{opacity:0.125;fill-rule:evenodd;clip-rule:evenodd;fill:#1E56A7;enable-background:new    ;}
	.st124{opacity:0.179;fill-rule:evenodd;clip-rule:evenodd;fill:#1E56A7;enable-background:new    ;}
	.st125{opacity:1.300000e-02;fill-rule:evenodd;clip-rule:evenodd;fill:#1E56A7;enable-background:new    ;}
	.st126{opacity:0.251;fill-rule:evenodd;clip-rule:evenodd;fill:#1E56A7;enable-background:new    ;}
	.st127{opacity:6.400000e-02;fill-rule:evenodd;clip-rule:evenodd;fill:#1E56A7;enable-background:new    ;}
	.st128{opacity:0.246;fill-rule:evenodd;clip-rule:evenodd;fill:#1E56A7;enable-background:new    ;}
	.st129{opacity:0.17;fill-rule:evenodd;clip-rule:evenodd;fill:#1E56A7;enable-background:new    ;}
	.st130{opacity:1.800000e-02;fill-rule:evenodd;clip-rule:evenodd;fill:#1E56A7;enable-background:new    ;}
	.st131{opacity:0.224;fill-rule:evenodd;clip-rule:evenodd;fill:#1E56A7;enable-background:new    ;}
	.st132{opacity:0.216;fill-rule:evenodd;clip-rule:evenodd;fill:#1E56A7;enable-background:new    ;}
	.st133{opacity:0.232;fill-rule:evenodd;clip-rule:evenodd;fill:#1E56A7;enable-background:new    ;}
	.st134{opacity:0.2;fill-rule:evenodd;clip-rule:evenodd;fill:#1E56A7;enable-background:new    ;}
	.st135{opacity:0.156;fill-rule:evenodd;clip-rule:evenodd;fill:#1E56A7;enable-background:new    ;}
	.st136{opacity:0.215;fill-rule:evenodd;clip-rule:evenodd;fill:#1E56A7;enable-background:new    ;}
	.st137{opacity:5.700000e-02;fill-rule:evenodd;clip-rule:evenodd;fill:#1E56A7;enable-background:new    ;}
	.st138{opacity:8.900000e-02;fill-rule:evenodd;clip-rule:evenodd;fill:#1E56A7;enable-background:new    ;}
	.st139{opacity:0.186;fill-rule:evenodd;clip-rule:evenodd;fill:#1E56A7;enable-background:new    ;}
	.st140{opacity:0.192;fill-rule:evenodd;clip-rule:evenodd;fill:#1E56A7;enable-background:new    ;}
	.st141{opacity:0.202;fill-rule:evenodd;clip-rule:evenodd;fill:#1E56A7;enable-background:new    ;}
	.st142{opacity:0.189;fill-rule:evenodd;clip-rule:evenodd;fill:#1E56A7;enable-background:new    ;}
	.st143{opacity:8.000000e-02;fill-rule:evenodd;clip-rule:evenodd;fill:#1E56A7;enable-background:new    ;}
	.st144{opacity:4.900000e-02;fill-rule:evenodd;clip-rule:evenodd;fill:#1E56A7;enable-background:new    ;}
	.st145{opacity:0.152;fill-rule:evenodd;clip-rule:evenodd;fill:#1E56A7;enable-background:new    ;}
	.st146{opacity:9.800000e-02;fill-rule:evenodd;clip-rule:evenodd;fill:#1E56A7;enable-background:new    ;}
	.st147{opacity:0.161;fill-rule:evenodd;clip-rule:evenodd;fill:#1E56A7;enable-background:new    ;}
	.st148{opacity:0.127;fill-rule:evenodd;clip-rule:evenodd;fill:#1E56A7;enable-background:new    ;}
	.st149{opacity:0.16;fill-rule:evenodd;clip-rule:evenodd;fill:#1E56A7;enable-background:new    ;}
	.st150{opacity:6.700000e-02;fill-rule:evenodd;clip-rule:evenodd;fill:#1E56A7;enable-background:new    ;}
	.st151{opacity:0.144;fill-rule:evenodd;clip-rule:evenodd;fill:#1E56A7;enable-background:new    ;}
	.st152{opacity:8.700000e-02;fill-rule:evenodd;clip-rule:evenodd;fill:#1E56A7;enable-background:new    ;}
	.st153{opacity:0.146;fill-rule:evenodd;clip-rule:evenodd;fill:#1E56A7;enable-background:new    ;}
	.st154{opacity:0.133;fill-rule:evenodd;clip-rule:evenodd;fill:#1E56A7;enable-background:new    ;}
	.st155{opacity:5.800000e-02;fill-rule:evenodd;clip-rule:evenodd;fill:#1E56A7;enable-background:new    ;}
	.st156{opacity:9.200000e-02;fill-rule:evenodd;clip-rule:evenodd;fill:#1E56A7;enable-background:new    ;}
	.st157{opacity:0.124;fill-rule:evenodd;clip-rule:evenodd;fill:#1E56A7;enable-background:new    ;}
	.st158{opacity:9.700000e-02;fill-rule:evenodd;clip-rule:evenodd;fill:#1E56A7;enable-background:new    ;}
	.st159{opacity:0.102;fill-rule:evenodd;clip-rule:evenodd;fill:#1E56A7;enable-background:new    ;}
	.st160{opacity:3.800000e-02;fill-rule:evenodd;clip-rule:evenodd;fill:#1E56A7;enable-background:new    ;}
	.st161{opacity:7.800000e-02;fill-rule:evenodd;clip-rule:evenodd;fill:#1E56A7;enable-background:new    ;}
	.st162{opacity:5.000000e-02;fill-rule:evenodd;clip-rule:evenodd;fill:#1E56A7;enable-background:new    ;}
	.st163{opacity:2.000000e-02;fill-rule:evenodd;clip-rule:evenodd;fill:#1E56A7;enable-background:new    ;}
</style>
<image style="display:none;overflow:visible;" width="702" height="685" xlink:href="circle.png"  transform="matrix(1 0 0 1 -207 -63)">
</image>
<g>
	<path class="st4" d="M221.5-20c0-0.3,0-0.7,0-1c29.2,6.7,56.9,17.4,83,32c0,0.7,0,1.3,0,2C278.3-1.6,250.6-12.6,221.5-20z"/>
</g>
<g>
	<path class="st2" d="M47.5-19c0,0.3,0,0.7,0,1C8.4-6.3-27.9,11-61.5,34c0-0.3,0-0.7,0-1C-28.5,9,7.8-8.3,47.5-19z"/>
</g>
<g>
	<path class="st7" d="M135.5-10c29.2-0.3,57.9,3.4,86,11c0,0.7,0,1.3,0,2c-28.1-7.6-56.8-11.3-86-11C135.5-8.7,135.5-9.3,135.5-10z"
		/>
</g>
<g>
	<path class="st7" d="M221.5-10c29.5,7.1,57.2,18.4,83,34c0,0.3,0,0.7,0,1c-26.3-14.9-53.9-26.2-83-34C221.5-9.3,221.5-9.7,221.5-10
		z"/>
</g>
<g>
	<path class="st4" d="M47.5-8c0,0.7,0,1.3,0,2C7.7,5.4-28.6,23.4-61.5,48c0-0.3,0-0.7,0-1C-28.9,21.7,7.4,3.3,47.5-8z"/>
</g>
<g>
	<path class="st6" d="M100.5-7c0,0.3,0,0.7,0,1C82.6-3.5,65,0.2,47.5,5c0-0.3,0-0.7,0-1C64.6-2,82.2-5.7,100.5-7z"/>
</g>
<g>
	<path class="st8" d="M135.5,1c0,0.7,0,1.3,0,2c-11.7,0.2-23.4,0.8-35,2c0-0.7,0-1.3,0-2C112.1,2,123.8,1.3,135.5,1z"/>
</g>
<g>
	<path class="st9" d="M135.5,1c29.2-0.3,57.9,3.4,86,11c0,0.7,0,1.3,0,2c-28.1-7.7-56.8-11.4-86-11C135.5,2.3,135.5,1.7,135.5,1z"/>
</g>
<g>
	<path class="st9" d="M221.5,1c29.4,7.6,57.1,19.2,83,35c0,0.7,0,1.3,0,2c-25.9-15.7-53.6-27.4-83-35C221.5,2.3,221.5,1.7,221.5,1z"
		/>
</g>
<g>
	<path class="st8" d="M100.5,3c0,0.7,0,1.3,0,2c-17.9,2.6-35.6,6.2-53,11c0-0.3,0-0.7,0-1C64.7,9.5,82.4,5.5,100.5,3z"/>
</g>
<g>
	<path class="st7" d="M47.5,4c0,0.3,0,0.7,0,1c-40,12.5-76.3,31.5-109,57c0-0.3,0-0.7,0-1C-29.4,34.4,7,15.4,47.5,4z"/>
</g>
<g>
	<path class="st10" d="M135.5,12c0,0.7,0,1.3,0,2c-11.7,0.2-23.4,0.8-35,2c0-0.7,0-1.3,0-2C112.1,12.6,123.8,12,135.5,12z"/>
</g>
<g>
	<path class="st11" d="M135.5,12c29.2-0.6,57.9,3.1,86,11c0,0.7,0,1.3,0,2c-28.1-7.8-56.8-11.4-86-11
		C135.5,13.3,135.5,12.7,135.5,12z"/>
</g>
<g>
	<path class="st11" d="M221.5,12c29.6,8.3,57.3,20.6,83,37c0,0.7,0,1.3,0,2c-25.8-16.4-53.5-28.7-83-37
		C221.5,13.3,221.5,12.7,221.5,12z"/>
</g>
<g>
	<path class="st10" d="M100.5,14c0,0.7,0,1.3,0,2c-18,2.6-35.7,6.6-53,12c0-0.7,0-1.3,0-2C64.8,20.6,82.5,16.6,100.5,14z"/>
</g>
<g>
	<path class="st9" d="M47.5,15c0,0.3,0,0.7,0,1C7.1,29.3-29.2,49.7-61.5,77c0-0.7,0-1.3,0-2C-29.6,47.5,6.8,27.5,47.5,15z"/>
</g>
<g>
	<path class="st12" d="M135.5,23c0,0.7,0,1.3,0,2c-11.7-0.1-23.4,0.6-35,2c0-0.7,0-1.3,0-2C112.1,23.5,123.8,22.8,135.5,23z"/>
</g>
<g>
	<path class="st13" d="M135.5,23c29.5-0.9,58.2,3.1,86,12c0,0.7,0,1.3,0,2c-28-8.7-56.6-12.7-86-12C135.5,24.3,135.5,23.7,135.5,23z
		"/>
</g>
<g>
	<path class="st14" d="M221.5,23c29.7,9,57.3,22,83,39c0,0.7,0,1.3,0,2c-25.8-17.1-53.4-30.1-83-39C221.5,24.3,221.5,23.7,221.5,23z
		"/>
</g>
<g>
	<path class="st12" d="M100.5,25c0,0.7,0,1.3,0,2c-17.9,2.9-35.6,6.9-53,12c0-0.3,0-0.7,0-1C64.6,31.8,82.3,27.4,100.5,25z"/>
</g>
<g>
	<path class="st11" d="M47.5,26c0,0.7,0,1.3,0,2C6.6,41.6-29.7,62.6-61.5,91c0-0.3,0-0.7,0-1C-30,60.8,6.3,39.4,47.5,26z"/>
</g>
<g>
	<path class="st15" d="M135.5,33c0,1,0,2,0,3c-11.7-0.2-23.4,0.5-35,2c0-0.7,0-1.3,0-2C112.2,34.7,123.8,33.7,135.5,33z"/>
</g>
<g>
	<path class="st16" d="M135.5,33c29.4,0.1,58,4.4,86,13c0,0.7,0,1.3,0,2c-28-8.8-56.6-12.8-86-12C135.5,35,135.5,34,135.5,33z"/>
</g>
<g>
	<path class="st17" d="M221.5,35c30,8.8,57.7,22.1,83,40c0,0.7,0,1.3,0,2c-25.4-17.9-53-31.2-83-40C221.5,36.3,221.5,35.7,221.5,35z
		"/>
</g>
<g>
	<path class="st18" d="M100.5,36c0,0.7,0,1.3,0,2c-18.1,2.7-35.7,7-53,13c0-0.7,0-1.3,0-2C64.7,42.9,82.4,38.6,100.5,36z"/>
</g>
<g>
	<path class="st14" d="M47.5,38c0,0.3,0,0.7,0,1C6,53.5-30.3,76.2-61.5,107c0-0.7,0-1.3,0-2C-30.8,73.8,5.5,51.5,47.5,38z"/>
</g>
<g>
	<path class="st19" d="M135.5,44c0,0.7,0,1.3,0,2c-11.7,0.7-23.4,1.7-35,3c0-0.7,0-1.3,0-2C112.1,45.4,123.8,44.4,135.5,44z"/>
</g>
<g>
	<path class="st20" d="M135.5,44c29.4-0.1,58,4.2,86,13c0,0.7,0,1.3,0,2c-28-8.4-56.7-12.8-86-13C135.5,45.3,135.5,44.7,135.5,44z"
		/>
</g>
<g>
	<path class="st21" d="M221.5,46c30.4,9.4,58.1,23.7,83,43c0,0.7,0,1.3,0,2c-25.2-18.8-52.9-33.1-83-43
		C221.5,47.3,221.5,46.7,221.5,46z"/>
</g>
<g>
	<path class="st22" d="M100.5,47c0,0.7,0,1.3,0,2c-18,2.9-35.7,7.3-53,13c0-0.3,0-0.7,0-1C64.5,54.1,82.1,49.4,100.5,47z"/>
</g>
<g>
	<path class="st23" d="M47.5,49c0,0.7,0,1.3,0,2c-42.2,15.3-78.6,39.3-109,72c0-0.7,0-1.3,0-2C-31.5,87.8,4.9,63.8,47.5,49z"/>
</g>
<g>
	<path class="st24" d="M135.5,55c0,0.7,0,1.3,0,2c-11.7,0.5-23.4,1.5-35,3c0-0.7,0-1.3,0-2C112.1,56.2,123.8,55.2,135.5,55z"/>
</g>
<g>
	<path class="st25" d="M135.5,55c29.6-0.4,58.3,4.2,86,14c0,0.7,0,1.3,0,2c-27.8-9.6-56.5-14.3-86-14
		C135.5,56.3,135.5,55.7,135.5,55z"/>
</g>
<g>
	<path class="st27" d="M221.5,57c30.6,10.4,58.3,25.7,83,46c0,0.7,0,1.3,0,2c-24.8-20.3-52.5-35.6-83-46
		C221.5,58.3,221.5,57.7,221.5,57z"/>
</g>
<g>
	<path class="st28" d="M100.5,58c0,0.7,0,1.3,0,2c-18.1,3-35.8,7.6-53,14c0-0.7,0-1.3,0-2C64.6,65.3,82.3,60.6,100.5,58z"/>
</g>
<g>
	<path class="st29" d="M47.5,61c0,0.3,0,0.7,0,1c-42.7,16.7-79,42.3-109,77c0-0.7,0-1.3,0-2C-31.9,102,4.4,76.7,47.5,61z"/>
</g>
<g>
	<path class="st30" d="M135.5,66c0,0.7,0,1.3,0,2c-11.7,0.4-23.4,1.4-35,3c0-0.7,0-1.3,0-2C112.1,67,123.7,66,135.5,66z"/>
</g>
<g>
	<path class="st31" d="M135.5,66c29.5-0.5,58.2,4.1,86,14c0,0.7,0,1.3,0,2c-27.9-9.4-56.5-14.1-86-14
		C135.5,67.3,135.5,66.7,135.5,66z"/>
</g>
<g>
	<path class="st27" d="M100.5,69c0,0.7,0,1.3,0,2c-18.3,3-35.9,8-53,15c0-0.7,0-1.3,0-2C64.4,76.7,82.1,71.7,100.5,69z"/>
</g>
<g>
	<path class="st32" d="M221.5,69c30.9,10.6,58.6,26.6,83,48c0,0.7,0,1.3,0,2c-24.7-21-52.3-37-83-48C221.5,70.3,221.5,69.7,221.5,69
		z"/>
</g>
<g>
	<path class="st34" d="M47.5,72c0,0.7,0,1.3,0,2c-43.9,17.8-80.3,45.5-109,83c0-0.7,0-1.3,0-2C-33.1,117,3.2,89.3,47.5,72z"/>
</g>
<g>
	<path class="st35" d="M135.5,77c0,0.7,0,1.3,0,2c-11.7,0.2-23.4,1.2-35,3c0-0.7,0-1.3,0-2C112,77.8,123.7,76.8,135.5,77z"/>
</g>
<g>
	<path class="st36" d="M135.5,77c29.7-0.9,58.4,4.1,86,15c0,0.7,0,1.3,0,2c-27.7-10.4-56.4-15.4-86-15
		C135.5,78.3,135.5,77.7,135.5,77z"/>
</g>
<g>
	<path class="st37" d="M100.5,80c0,0.7,0,1.3,0,2c-18.4,3-36.1,8.3-53,16c0-0.7,0-1.3,0-2C64.3,88.1,81.9,82.7,100.5,80z"/>
</g>
<g>
	<path class="st38" d="M221.5,80c31.5,11.6,59.1,28.9,83,52c0,0.7,0,1.3,0,2c-24.3-22.6-51.9-40-83-52
		C221.5,81.3,221.5,80.7,221.5,80z"/>
</g>
<g>
	<path class="st35" d="M47.5,84c0,0.7,0,1.3,0,2c-45.8,19.1-82.1,49.4-109,91c0-0.7,0-1.3,0-2C-34.9,133.2,1.5,102.8,47.5,84z"/>
</g>
<g>
	<path class="st39" d="M135.5,87c0,1,0,2,0,3c-11.8-0.1-23.4,0.9-35,3c0-0.7,0-1.3,0-2C112.1,88.9,123.7,87.5,135.5,87z"/>
</g>
<g>
	<path class="st40" d="M135.5,87c30-0.2,58.6,5.5,86,17c0,0.7,0,1.3,0,2c-27.5-11.4-56.2-16.7-86-16C135.5,89,135.5,88,135.5,87z"/>
</g>
<g>
	<path class="st38" d="M100.5,91c0,0.7,0,1.3,0,2c-18.4,3.4-36.1,9-53,17c0-1,0-2,0-3C64.4,99.3,82.1,94,100.5,91z"/>
</g>
<g>
	<path class="st42" d="M221.5,92c32.3,12,60,30.6,83,56c0,0.7,0,1.3,0,2c-23.4-24.9-51.1-43.5-83-56C221.5,93.3,221.5,92.7,221.5,92
		z"/>
</g>
<g>
	<path class="st44" d="M47.5,96c0,0.7,0,1.3,0,2c-48,21.6-84.3,55.6-109,102c0-1,0-2,0-3c18.5-35.3,44.5-63.8,78-85.5
		C26.3,105.3,36.6,100.1,47.5,96z"/>
</g>
<g>
	<path class="st45" d="M135.5,98c0,0.7,0,1.3,0,2c-11.3,0.7-23,2-35,4c0-0.7,0-1.3,0-2C112,99.7,123.7,98.3,135.5,98z"/>
</g>
<g>
	<path class="st46" d="M135.5,98c29.9-0.2,58.6,5.4,86,17c0,0.7,0,1.3,0,2c-27.6-11-56.2-16.7-86-17C135.5,99.3,135.5,98.7,135.5,98
		z"/>
</g>
<g>
	<path class="st47" d="M100.5,102c0,0.7,0,1.3,0,2c-18.5,3.6-36.2,9.6-53,18c0-0.7,0-1.3,0-2C64.1,111.1,81.8,105.1,100.5,102z"/>
</g>
<g>
	<path class="st48" d="M221.5,104c32.8,12.9,60.5,32.9,83,60c0,1,0,2,0,3c-22.8-26.9-50.4-47.2-83-61
		C221.5,105.3,221.5,104.7,221.5,104z"/>
</g>
<g>
	<path class="st47" d="M47.5,107c0,1,0,2,0,3c-52.3,24.6-88.6,63.9-109,118c0-1.3,0-2.7,0-4C-40.7,170.5-4.4,131.5,47.5,107z"/>
</g>
<g>
	<path class="st49" d="M135.5,109c0,0.7,0,1.3,0,2c-11.8,0.6-23.4,2-35,4c0-0.7,0-1.3,0-2C112,110.5,123.7,109.2,135.5,109z"/>
</g>
<g>
	<path class="st48" d="M135.5,109c30.1-0.5,58.7,5.5,86,18c0,0.7,0,1.3,0,2c-27.4-12-56-18-86-18C135.5,110.3,135.5,109.7,135.5,109
		z"/>
</g>
<g>
	<path class="st50" d="M100.5,113c0,0.7,0,1.3,0,2c-18.6,3.8-36.3,10.1-53,19c0-0.7,0-1.3,0-2C64,122.7,81.7,116.4,100.5,113z"/>
</g>
<g>
	<path class="st51" d="M221.5,115c33.9,14.6,61.6,36.9,83,67c0,1,0,2,0,3c-21.7-30-49.4-52.7-83-68
		C221.5,116.3,221.5,115.7,221.5,115z"/>
</g>
<g>
	<path class="st53" d="M47.5,120c0,0.7,0,1.3,0,2c-65.9,34.9-102.2,89.6-109,164c0-5.3,0-10.7,0-16c9.1-61.3,39.8-108.4,92-141.5
		C35.9,125.1,41.6,122.3,47.5,120z"/>
</g>
<g>
	<path class="st54" d="M135.5,120c0,0.7,0,1.3,0,2c-11.8,0.5-23.4,1.8-35,4c0-0.7,0-1.3,0-2C112,121.4,123.6,120,135.5,120z"/>
</g>
<g>
	<path class="st51" d="M135.5,120c30.2-0.6,58.9,5.7,86,19c0,1,0,2,0,3c-26.9-13.9-55.5-20.6-86-20
		C135.5,121.3,135.5,120.7,135.5,120z"/>
</g>
<g>
	<path class="st55" d="M100.5,124c0,0.7,0,1.3,0,2c-18.6,4.3-36.3,11-53,20c0-0.7,0-1.3,0-2C64,134.3,81.6,127.6,100.5,124z"/>
</g>
<g>
	<path class="st56" d="M221.5,127c28.1,13.6,51.9,32.6,71.5,57c4.1,5.9,7.9,11.9,11.5,18c0,1,0,2,0,3c-20.6-33-48.3-58.3-83-76
		C221.5,128.3,221.5,127.7,221.5,127z"/>
</g>
<g>
	<path class="st57" d="M135.5,131c0,0.7,0,1.3,0,2c-11.8,0.3-23.5,1.7-35,4c0-0.7,0-1.3,0-2C111.9,132,123.6,130.7,135.5,131z"/>
</g>
<g>
	<path class="st58" d="M135.5,131c30.8-1.1,59.4,5.9,86,21c0,0.7,0,1.3,0,2c-26.8-14.5-55.5-21.5-86-21
		C135.5,132.3,135.5,131.7,135.5,131z"/>
</g>
<g>
	<path class="st59" d="M47.5,132c0,0.7,0,1.3,0,2C-24.3,175.9-56.1,238.6-48,322c10.8,59.6,42.7,104,95.5,133c0,0.7,0,1.3,0,2
		C-8.4,427.3-41.2,380.9-51,318c-6.2-71.5,19-129,75.5-172.5C31.9,140.5,39.6,136,47.5,132z"/>
</g>
<g>
	<path class="st61" d="M100.5,135c0,0.7,0,1.3,0,2c-18.8,4.6-36.5,11.9-53,22c0-0.7,0-1.3,0-2C63.6,146.2,81.3,138.8,100.5,135z"/>
</g>
<g>
	<path class="st62" d="M221.5,139c37.5,19.5,65.2,48.5,83,87c0,1.3,0,2.7,0,4c-17.4-39-45-68.4-83-88C221.5,141,221.5,140,221.5,139
		z"/>
</g>
<g>
	<path class="st63" d="M135.5,141c0,1,0,2,0,3c-11.8,0.3-23.5,1.6-35,4c0-0.7,0-1.3,0-2C112,143.3,123.7,141.6,135.5,141z"/>
</g>
<g>
	<path class="st64" d="M135.5,141c30.8-0.1,59.5,7.5,86,23c0,0.7,0,1.3,0,2c-26.6-15.3-55.2-22.6-86-22
		C135.5,143,135.5,142,135.5,141z"/>
</g>
<g>
	<path class="st65" d="M47.5,144c0,0.7,0,1.3,0,2C-23.1,191.8-49.9,256.1-33,339c13.2,45.3,40,80,80.5,104c0,0.7,0,1.3,0,2
		C6.5,421.2-21,386.5-35,341c-17.1-75.5,4.4-137.3,64.5-185.5C35.4,151.4,41.4,147.6,47.5,144z"/>
</g>
<g>
	<path class="st65" d="M100.5,146c0,0.7,0,1.3,0,2c-19.1,5-36.7,13-53,24c0-0.7,0-1.3,0-2C63.5,158.5,81.1,150.5,100.5,146z"/>
</g>
<g>
	<path class="st67" d="M135.5,152c0,0.7,0,1.3,0,2c-11.6,1-23.3,2.7-35,5c0-0.7,0-1.3,0-2C112,154.1,123.6,152.5,135.5,152z"/>
</g>
<g>
	<path class="st68" d="M135.5,152c31.4-0.5,60.1,7.8,86,25c0,0.7,0,1.3,0,2c-26.1-16.7-54.8-25-86-25
		C135.5,153.3,135.5,152.7,135.5,152z"/>
</g>
<g>
	<path class="st69" d="M221.5,152c35.9,19.3,61.4,48,76.5,86c3,8.2,5.1,16.5,6.5,25c0,3,0,6,0,9c-9.4-52.3-37.1-91.6-83-118
		C221.5,153.3,221.5,152.7,221.5,152z"/>
</g>
<g>
	<path class="st70" d="M47.5,157c0,0.7,0,1.3,0,2C-14.8,202.7-38,262-22,337c11.7,39.8,34.8,70.8,69.5,93c0,0.7,0,1.3,0,2
		C9.6,408.7-14.9,375.3-26,332c-12.6-65.5,6.2-120,56.5-163.5C35.9,164.2,41.5,160.3,47.5,157z"/>
</g>
<g>
	<path class="st68" d="M100.5,157c0,0.7,0,1.3,0,2c-19.4,5.5-37.1,14.5-53,27c0-0.7,0-1.3,0-2C63,171.1,80.7,162.1,100.5,157z"/>
</g>
<g>
	<path class="st71" d="M135.5,163c0,0.7,0,1.3,0,2c-11.9,0.6-23.6,2.6-35,6c0-1,0-2,0-3C112,164.9,123.6,163.3,135.5,163z"/>
</g>
<g>
	<path class="st72" d="M135.5,163c31.8-0.6,60.5,8.4,86,27c0,1,0,2,0,3c-25.4-18.9-54.1-28.2-86-28
		C135.5,164.3,135.5,163.7,135.5,163z"/>
</g>
<g>
	<path class="st73" d="M221.5,164c56.7,36.1,81.2,87.8,73.5,155c-9,46.3-33.5,81.7-73.5,106c0-0.7,0-1.3,0-2
		c59.1-39.6,82-94.6,68.5-165c-11.3-39.4-34.1-70.1-68.5-92C221.5,165.3,221.5,164.7,221.5,164z"/>
</g>
<g>
	<path class="st74" d="M100.5,168c0,1,0,2,0,3c-19.9,5.8-37.5,15.4-53,29c0-0.7,0-1.3,0-2C62.7,183.9,80.3,173.9,100.5,168z"/>
</g>
<g>
	<path class="st75" d="M47.5,170c0,0.7,0,1.3,0,2C-3.8,211.2-23.9,262.9-13,327c9,37.6,29.1,67.6,60.5,90c0,0.7,0,1.3,0,2
		c-42.8-30.1-65.1-71.6-67-124.5C-17.6,241.6,4.7,200.1,47.5,170z"/>
</g>
<g>
	<path class="st77" d="M135.5,174c0,0.7,0,1.3,0,2c-11.9,0.5-23.6,2.5-35,6c0-0.7,0-1.3,0-2C111.7,175.8,123.3,173.8,135.5,174z"/>
</g>
<g>
	<path class="st78" d="M135.5,174c32.7-0.9,61.4,9.1,86,30c0,1,0,2,0,3c-24.7-21-53.3-31.3-86-31C135.5,175.3,135.5,174.7,135.5,174
		z"/>
</g>
<g>
	<path class="st79" d="M221.5,177c46.6,32.3,67.8,77,63.5,134c-6,43.5-27.2,77.1-63.5,101c0-0.7,0-1.3,0-2c49.5-36.3,69-85,58.5-146
		c-8.8-35.9-28.3-64.2-58.5-85C221.5,178.3,221.5,177.7,221.5,177z"/>
</g>
<g>
	<path class="st80" d="M100.5,180c0,0.7,0,1.3,0,2c-20.4,6.7-38.1,17.7-53,33c0-0.7,0-1.3,0-2C62.1,197.2,79.8,186.2,100.5,180z"/>
</g>
<g>
	<path class="st82" d="M47.5,184c0,0.7,0,1.3,0,2C5.5,221.3-11.3,266.3-3,321c7.2,33.7,24.1,61.3,50.5,83c0,0.7,0,1.3,0,2
		C-0.7,365.8-17.2,315.2-2,254C7,225.2,23.5,201.9,47.5,184z"/>
</g>
<g>
	<path class="st83" d="M135.5,184c0,1,0,2,0,3c-11.9,0.5-23.6,2.5-35,6c0-0.7,0-1.3,0-2C111.8,187,123.5,184.7,135.5,184z"/>
</g>
<g>
	<path class="st84" d="M135.5,184c33.6,0,62.3,11.6,86,35c0,1,0,2,0,3c-23.6-23.8-52.3-35.5-86-35C135.5,186,135.5,185,135.5,184z"
		/>
</g>
<g>
	<path class="st85" d="M221.5,190c43.9,35.2,60.4,80.5,49.5,136c-8.1,30.2-24.6,54.5-49.5,73c0-0.7,0-1.3,0-2
		c43.9-36.8,59-83.1,45.5-139c-8.3-26.6-23.4-48.2-45.5-65C221.5,192,221.5,191,221.5,190z"/>
</g>
<g>
	<path class="st86" d="M100.5,191c0,0.7,0,1.3,0,2c-21.7,8-39.3,21.3-53,40c0-1,0-2,0-3C61,211.4,78.7,198.4,100.5,191z"/>
</g>
<g>
	<path class="st88" d="M135.5,195c0,1,0,2,0,3c-12.2,0-23.8,2.3-35,7c0-0.7,0-1.3,0-2C111.5,198.1,123.2,195.4,135.5,195z"/>
</g>
<g>
	<path class="st89" d="M135.5,195c35.5-0.3,64.2,13.4,86,41c0,1,0,2,0,3c-21.6-28.1-50.2-41.8-86-41C135.5,197,135.5,196,135.5,195z
		"/>
</g>
<g>
	<path class="st90" d="M47.5,198c0,0.7,0,1.3,0,2C6.1,241.5-4.4,289.8,16,345c7.6,16.8,18.1,31.5,31.5,44c0,1,0,2,0,3
		C12.4,359.6-1.7,319.6,5,272C10.7,242.2,24.9,217.5,47.5,198z"/>
</g>
<g>
	<path class="st92" d="M100.5,203c0,0.7,0,1.3,0,2c-23.8,9.8-41.4,26.1-53,49c0-1.3,0-2.7,0-4C59.2,227.6,76.9,211.9,100.5,203z"/>
</g>
<g>
	<path class="st93" d="M221.5,204c33.1,29.6,46.6,66.6,40.5,111c-5,28.4-18.5,51.7-40.5,70c0-0.7,0-1.3,0-2
		c38.8-38.1,48.9-82.7,30.5-134c-7-16.4-17.2-30.4-30.5-42C221.5,206,221.5,205,221.5,204z"/>
</g>
<g>
	<path class="st94" d="M135.5,206c0,0.7,0,1.3,0,2c-12.1,0.9-23.8,3.6-35,8c0-0.7,0-1.3,0-2C111.6,209,123.3,206.3,135.5,206z"/>
</g>
<g>
	<path class="st95" d="M135.5,206c29.8-0.7,54.6,10,74.5,32c4.9,5.7,8.7,12.1,11.5,19c0,1.3,0,2.7,0,4c-17.7-34.9-46.4-52.5-86-53
		C135.5,207.3,135.5,206.7,135.5,206z"/>
</g>
<g>
	<path class="st96" d="M47.5,213c0,0.7,0,1.3,0,2C16.7,251.6,9.2,292.6,25,338c5.7,13.2,13.2,25.2,22.5,36c0,0.7,0,1.3,0,2
		c-21.9-22.6-32.9-49.7-33-81.5C14.7,262.8,25.7,235.6,47.5,213z"/>
</g>
<g>
	<path class="st97" d="M100.5,214c0,0.7,0,1.3,0,2C59.6,238.1,43.8,272.1,53,318c7.8,25.3,23.7,43.7,47.5,55c0,0.7,0,1.3,0,2
		c-33.8-16.1-51.5-42.9-53-80.5C49,256.9,66.7,230.1,100.5,214z"/>
</g>
<g>
	<path class="st98" d="M135.5,216c0,1,0,2,0,3c-12.3,0.7-24,3.7-35,9c0-0.7,0-1.3,0-2C111.5,220.3,123.1,217,135.5,216z"/>
</g>
<g>
	<path class="st99" d="M135.5,216c35.4,0.3,61.2,15.9,77.5,47c14.6,42,3.4,75.1-33.5,99.5c-13.7,7.5-28.4,11-44,10.5c0-1,0-2,0-3
		c42.7-0.2,69.5-20.9,80.5-62c4.3-41.9-13.2-70.4-52.5-85.5c-9.2-2.6-18.5-3.8-28-3.5C135.5,218,135.5,217,135.5,216z"/>
</g>
<g>
	<path class="st100" d="M221.5,219c31.6,34.5,39.1,73.9,22.5,118c-5.4,12.5-12.9,23.5-22.5,33c0-1,0-2,0-3
		c28.5-32.7,35.6-69.7,21.5-111c-5.4-12.5-12.6-23.8-21.5-34C221.5,221,221.5,220,221.5,219z"/>
</g>
<g>
	<path class="st102" d="M100.5,226c0,0.7,0,1.3,0,2c-32.8,20.7-45,50-36.5,88c6.5,19.7,18.7,34.7,36.5,45c0,0.7,0,1.3,0,2
		c-26.9-14.8-40.9-37.6-42-68.5C59.7,263.6,73.7,240.8,100.5,226z"/>
</g>
<g>
	<path class="st104" d="M135.5,227c0,0.7,0,1.3,0,2c-12.5,1.2-24.2,5.2-35,12c0-1,0-2,0-3C111.2,231.3,122.8,227.7,135.5,227z"/>
</g>
<g>
	<path class="st105" d="M135.5,227c38.8,0.6,62.9,19.6,72.5,57c2.3,41.7-16.9,67.6-57.5,77.5c-5,0.5-10,0.7-15,0.5c0-0.7,0-1.3,0-2
		c31.1,0,53.3-14,66.5-42c9.7-32.5,0.9-58.7-26.5-78.5c-12.4-6.9-25.8-10.4-40-10.5C135.5,228.3,135.5,227.7,135.5,227z"/>
</g>
<g>
	<path class="st106" d="M47.5,230c0,1,0,2,0,3c-26.6,41.3-26.6,82.6,0,124c0,0.7,0,1.3,0,2c-14.8-18.8-22.1-40.3-22-64.5
		C25.4,270.3,32.7,248.8,47.5,230z"/>
</g>
<g>
	<path class="st107" d="M221.5,236c21.1,28.8,25.6,60.1,13.5,94c-3.5,8.4-8,16-13.5,23c0-1,0-2,0-3c23.9-37,23.9-74,0-111
		C221.5,238,221.5,237,221.5,236z"/>
</g>
<g>
	<path class="st97" d="M135.5,237c0,1,0,2,0,3c-13.3,0.8-25,5.4-35,14c0-0.7,0-1.3,0-2C110.3,242.9,122,237.9,135.5,237z"/>
</g>
<g>
	<path class="st108" d="M135.5,237c30.1,0.6,50.3,15,60.5,43c5.8,32.5-6.3,55.3-36.5,68.5c-7.8,2.6-15.8,3.7-24,3.5c0-1,0-2,0-3
		c26.4,0.4,45.2-11.2,56.5-35c8.9-35.8-4-59.9-38.5-72.5c-5.9-1.2-11.9-1.7-18-1.5C135.5,239,135.5,238,135.5,237z"/>
</g>
<g>
	<path class="st109" d="M100.5,238c0,1,0,2,0,3c-25.2,18.8-33.7,43.5-25.5,74c2.1,5.1,4.4,10.1,7,15c5.7,6.9,11.9,13.2,18.5,19
		c0,0.7,0,1.3,0,2C75,333.6,65.2,309.6,71,279C76,261.7,85.8,248.1,100.5,238z"/>
</g>
<g>
	<path class="st110" d="M135.5,248c0,0.7,0,1.3,0,2c-14.6,1.6-26.3,8.3-35,20c0-1,0-2,0-3C109,255.2,120.7,248.9,135.5,248z"/>
</g>
<g>
	<path class="st111" d="M135.5,248c31,0.2,48.4,15.7,52,46.5c-3.8,30.6-21.1,46.4-52,47.5c0-1,0-2,0-3c29.8-0.2,46.1-15,49-44.5
		c-1.2-22.2-12.6-36.6-34-43c-4.9-1-9.9-1.5-15-1.5C135.5,249.3,135.5,248.7,135.5,248z"/>
</g>
<g>
	<path class="st112" d="M47.5,250c0,1.3,0,2.7,0,4c-9.1,21.1-10.9,42.7-5.5,65c1.7,5.4,3.6,10.7,5.5,16c0,1.3,0,2.7,0,4
		C37.1,319.2,34,298.2,38,276C39.9,266.8,43.1,258.1,47.5,250z"/>
</g>
<g>
	<path class="st113" d="M100.5,252c0,0.7,0,1.3,0,2c-21,22.3-23.5,46.7-7.5,73c2.7,2.5,5.2,5.2,7.5,8c0,1,0,2,0,3
		C80.2,319.3,75,296.9,85,271c2.9-5.3,6.3-10.3,10-15C96.5,254,98.3,252.7,100.5,252z"/>
</g>
<g>
	<path class="st114" d="M221.5,257c9.3,18.7,11.5,38.4,6.5,59c-1.5,5.7-3.7,11-6.5,16c0-1.3,0-2.7,0-4c9.3-22.3,9.3-44.7,0-67
		C221.5,259.7,221.5,258.3,221.5,257z"/>
</g>
<g>
	<path class="st111" d="M135.5,258c0,0.7,0,1.3,0,2c-24.6,5.2-34.8,20.2-30.5,45c5.3,14.2,15.5,22.2,30.5,24c0,1,0,2,0,3
		c-27.2-6.1-38-22.8-32.5-50C109.2,267.7,120,259.7,135.5,258z"/>
</g>
<g>
	<path class="st115" d="M135.5,258c18.6-0.9,31.8,7.1,39.5,24c4.9,15.7,1.4,29.2-10.5,40.5c-8.6,6.5-18.2,9.6-29,9.5c0-1,0-2,0-3
		c18.1,0.7,30.6-7.3,37.5-24c4.6-21.3-3.2-35.8-23.5-43.5c-4.6-1.1-9.3-1.6-14-1.5C135.5,259.3,135.5,258.7,135.5,258z"/>
</g>
<g>
	<path class="st117" d="M100.5,267c0,1,0,2,0,3c-9.3,16.7-9.3,33.4,0,50c0,0.7,0,1.3,0,2c-10.6-13.6-12.8-28.6-6.5-45
		C95.4,273.1,97.6,269.8,100.5,267z"/>
</g>
<g>
	<path class="st118" d="M135.5,267c0,0.7,0,1.3,0,2c-18.8,5-25.7,17-20.5,36c4.2,8.7,11,13.7,20.5,15c0,0.7,0,1.3,0,2
		c-18.3-3.9-26.5-15.2-24.5-34C115,276.1,123.2,269.1,135.5,267z"/>
</g>
<g>
	<path class="st119" d="M135.5,267c18.9-0.3,29.5,8.9,32,27.5c-1.5,17.4-11,26.9-28.5,28.5c-1.3-0.1-2.4-0.5-3.5-1c0-0.7,0-1.3,0-2
		c23.4-1.2,32.6-13.2,27.5-36c-6.2-10.3-15.3-15.3-27.5-15C135.5,268.3,135.5,267.7,135.5,267z"/>
</g>
<g>
	<path class="st120" d="M135.5,274c0,1,0,2,0,3c-2.7,0.3-2.7,0.7,0,1c0,0.7,0,1.3,0,2c-11.2,4.2-14.4,11.9-9.5,23
		c2.3,3.5,5.5,5.5,9.5,6c0,2,0,4,0,6c-10.7-2.6-16.7-9.4-18-20.5C118.7,283.4,124.7,276.6,135.5,274z"/>
</g>
<g>
	<path class="st121" d="M135.5,274c14.2-0.2,22.5,6.6,25,20.5c-2.2,14.3-10.5,21.2-25,20.5c0-2,0-4,0-6c11,1.5,17.3-3.3,19-14.5
		c-1.5-11-7.9-15.8-19-14.5c0-0.7,0-1.3,0-2c0-0.3,0-0.7,0-1C135.5,276,135.5,275,135.5,274z"/>
</g>
<g>
	<path class="st122" d="M-61.5,303c7.1,74.6,43.4,129.6,109,165c0,0.7,0,1.3,0,2c-62-31.6-98.3-82-109-151
		C-61.5,313.7-61.5,308.3-61.5,303z"/>
</g>
<g>
	<path class="st124" d="M304.5,317c0,3,0,6,0,9c-10.8,49.8-38.5,87.2-83,112c0-1,0-2,0-3C267.4,408.6,295.1,369.2,304.5,317z"/>
</g>
<g>
	<path class="st119" d="M100.5,320c8.9,11.3,20.5,17.6,35,19c0,1,0,2,0,3c-10.4-1.4-19.7-5.2-28-11.5c-2.9-2.4-5.3-5.3-7-8.5
		C100.5,321.3,100.5,320.7,100.5,320z"/>
</g>
<g>
	<path class="st115" d="M221.5,328c0,1.3,0,2.7,0,4c-13.2,26.3-34.2,42.8-63,49.5c-7.7,1.5-15.4,2-23,1.5c0-0.7,0-1.3,0-2
		C175.1,380.6,203.8,362.9,221.5,328z"/>
</g>
<g>
	<path class="st107" d="M47.5,335c11.8,22.8,29.5,39.5,53,50c0,0.7,0,1.3,0,2c-23.4-9.8-41.1-25.8-53-48
		C47.5,337.7,47.5,336.3,47.5,335z"/>
</g>
<g>
	<path class="st126" d="M100.5,335c10,8.8,21.6,13.5,35,14c0,1,0,2,0,3c-13.2-1.1-24.8-5.8-35-14C100.5,337,100.5,336,100.5,335z"/>
</g>
<g>
	<path class="st120" d="M100.5,349c10.8,6.3,22.5,9.9,35,11c0,0.7,0,1.3,0,2c-12.8-0.3-24.4-3.9-35-11
		C100.5,350.3,100.5,349.7,100.5,349z"/>
</g>
<g>
	<path class="st128" d="M221.5,350c0,1,0,2,0,3c-21.5,28.1-50.2,41.7-86,41c0-0.7,0-1.3,0-2C171.2,391.8,199.8,377.8,221.5,350z"/>
</g>
<g>
	<path class="st97" d="M47.5,357c13.9,17.9,31.6,30.9,53,39c0,0.7,0,1.3,0,2c-22-7.3-39.6-20.3-53-39
		C47.5,358.3,47.5,357.7,47.5,357z"/>
</g>
<g>
	<path class="st129" d="M304.5,359c0,1.3,0,2.7,0,4c-17.1,39.1-44.7,68.1-83,87c0-0.7,0-1.3,0-2C259.2,427.6,286.9,398,304.5,359z"
		/>
</g>
<g>
	<path class="st63" d="M-61.5,361c20.6,54,57,93.6,109,119c0,0.7,0,1.3,0,2c-51.9-24.6-88.3-63.6-109-117
		C-61.5,363.7-61.5,362.3-61.5,361z"/>
</g>
<g>
	<path class="st131" d="M100.5,361c11,5.7,22.6,8.7,35,9c0,1,0,2,0,3c-12.6-0.5-24.3-3.9-35-10C100.5,362.3,100.5,361.7,100.5,361z"
		/>
</g>
<g>
	<path class="st132" d="M221.5,367c0,1,0,2,0,3c-23.5,23.8-52.2,35.4-86,35c0-1,0-2,0-3C169.5,402.8,198.1,391.1,221.5,367z"/>
</g>
<g>
	<path class="st133" d="M100.5,373c11.2,4.7,22.8,7.4,35,8c0,0.7,0,1.3,0,2c-12.4,0-24-2.7-35-8C100.5,374.3,100.5,373.7,100.5,373z
		"/>
</g>
<g>
	<path class="st134" d="M47.5,374c14.9,15.3,32.6,26.3,53,33c0,1,0,2,0,3c-20.8-6.6-38.5-17.9-53-34C47.5,375.3,47.5,374.7,47.5,374
		z"/>
</g>
<g>
	<path class="st102" d="M221.5,383c0,0.7,0,1.3,0,2c-24.6,21-53.3,31.3-86,31c0-1,0-2,0-3C168,413.5,196.6,403.5,221.5,383z"/>
</g>
<g>
	<path class="st135" d="M304.5,384c0,1,0,2,0,3c-19.8,33.8-47.4,58.8-83,75c0-0.7,0-1.3,0-2C256.8,443,284.5,417.7,304.5,384z"/>
</g>
<g>
	<path class="st136" d="M100.5,385c11.4,3.7,23.1,6.1,35,7c0,0.7,0,1.3,0,2c-12.1-0.2-23.8-2.5-35-7
		C100.5,386.3,100.5,385.7,100.5,385z"/>
</g>
<g>
	<path class="st138" d="M-61.5,389c24.9,46.3,61.2,80.6,109,103c0,0.7,0,1.3,0,2c-48.6-20.9-84.9-54.9-109-102
		C-61.5,391-61.5,390-61.5,389z"/>
</g>
<g>
	<path class="st139" d="M47.5,389c15.4,13.9,33.1,23.9,53,30c0,0.7,0,1.3,0,2c-19.9-5.8-37.6-15.5-53-29C47.5,391,47.5,390,47.5,389
		z"/>
</g>
<g>
	<path class="st140" d="M100.5,396c11.3,4,23,6,35,6c0,1,0,2,0,3c-12.2-0.3-23.9-2.6-35-7C100.5,397.3,100.5,396.7,100.5,396z"/>
</g>
<g>
	<path class="st141" d="M221.5,397c0,0.7,0,1.3,0,2c-25.4,19-54,28-86,27c0-0.7,0-1.3,0-2C167.2,424.2,195.9,415.2,221.5,397z"/>
</g>
<g>
	<path class="st129" d="M47.5,404c16.2,11.6,33.9,20.3,53,26c0,0.7,0,1.3,0,2c-19.6-4.9-37.3-13.5-53-26
		C47.5,405.3,47.5,404.7,47.5,404z"/>
</g>
<g>
	<path class="st75" d="M304.5,404c0,1,0,2,0,3c-21.4,30-49,52.4-83,67c0-0.7,0-1.3,0-2C255.1,456.7,282.8,434,304.5,404z"/>
</g>
<g>
	<path class="st142" d="M100.5,407c11.3,3.8,23,5.8,35,6c0,1,0,2,0,3c-11.9-0.8-23.5-2.8-35-6C100.5,409,100.5,408,100.5,407z"/>
</g>
<g>
	<path class="st106" d="M221.5,410c0,0.7,0,1.3,0,2c-25.8,17.6-54.5,25.9-86,25c0-0.7,0-1.3,0-2C166.7,435,195.4,426.7,221.5,410z"
		/>
</g>
<g>
	<path class="st143" d="M-61.5,412c26.9,41.6,63.3,71.9,109,91c0,0.7,0,1.3,0,2c-46-18.3-82.3-48.3-109-90
		C-61.5,414-61.5,413-61.5,412z"/>
</g>
<g>
	<path class="st145" d="M47.5,417c16.3,11,33.9,19,53,24c0,0.7,0,1.3,0,2c-19.5-4.2-37.2-12.2-53-24C47.5,418.3,47.5,417.7,47.5,417
		z"/>
</g>
<g>
	<path class="st98" d="M100.5,419c11.5,2.8,23.2,4.5,35,5c0,0.7,0,1.3,0,2c-11.9,0.1-23.6-1.6-35-5
		C100.5,420.3,100.5,419.7,100.5,419z"/>
</g>
<g>
	<path class="st147" d="M221.5,423c0,0.7,0,1.3,0,2c-26.4,15.8-55,23.4-86,23c0-1,0-2,0-3C166.4,446,195,438.7,221.5,423z"/>
</g>
<g>
	<path class="st148" d="M304.5,423c0,0.7,0,1.3,0,2c-22.4,27.4-50.1,47.7-83,61c0-1,0-2,0-3C254,469.6,281.6,449.6,304.5,423z"/>
</g>
<g>
	<path class="st83" d="M47.5,430c16.4,10.3,34,17.7,53,22c0,0.7,0,1.3,0,2c-19.2-3.8-36.9-11.1-53-22
		C47.5,431.3,47.5,430.7,47.5,430z"/>
</g>
<g>
	<path class="st149" d="M100.5,430c11.5,2.6,23.2,4.2,35,5c0,0.7,0,1.3,0,2c-11.9-0.1-23.6-1.8-35-5
		C100.5,431.3,100.5,430.7,100.5,430z"/>
</g>
<g>
	<path class="st150" d="M-61.5,432c28.7,37.5,65.1,65.2,109,83c0,0.7,0,1.3,0,2c-44.7-16.8-81-44.5-109-83
		C-61.5,433.3-61.5,432.7-61.5,432z"/>
</g>
<g>
	<path class="st151" d="M221.5,435c0,1,0,2,0,3c-26.8,14.2-55.5,21.2-86,21c0-1,0-2,0-3C166.2,456.8,194.8,449.8,221.5,435z"/>
</g>
<g>
	<path class="st67" d="M304.5,439c0,1,0,2,0,3c-23.5,24.6-51.2,42.9-83,55c0-0.7,0-1.3,0-2C253.5,482.5,281.2,463.9,304.5,439z"/>
</g>
<g>
	<path class="st153" d="M100.5,441c11.5,2.8,23.2,4.2,35,4c0,1,0,2,0,3c-11.9-0.3-23.6-2-35-5C100.5,442.3,100.5,441.7,100.5,441z"
		/>
</g>
<g>
	<path class="st123" d="M47.5,443c16.7,9.2,34.3,15.8,53,20c0,0.7,0,1.3,0,2c-18.9-3.5-36.6-10.2-53-20
		C47.5,444.3,47.5,443.7,47.5,443z"/>
</g>
<g>
	<path class="st154" d="M221.5,448c0,0.7,0,1.3,0,2c-27.1,13.3-55.7,19.9-86,20c0-1,0-2,0-3C165.7,467.3,194.3,461,221.5,448z"/>
</g>
<g>
	<path class="st155" d="M-61.5,450c30,34.7,66.3,60.4,109,77c0,0.7,0,1.3,0,2c-43.3-16-79.6-41.6-109-77
		C-61.5,451.3-61.5,450.7-61.5,450z"/>
</g>
<g>
	<path class="st148" d="M100.5,452c11.5,2.5,23.2,3.8,35,4c0,1,0,2,0,3c-12-0.3-23.7-2-35-5C100.5,453.3,100.5,452.7,100.5,452z"/>
</g>
<g>
	<path class="st64" d="M47.5,455c16.6,9.2,34.3,15.6,53,19c0,0.7,0,1.3,0,2c-19-3-36.7-9.3-53-19C47.5,456.3,47.5,455.7,47.5,455z"
		/>
</g>
<g>
	<path class="st156" d="M304.5,455c0,0.7,0,1.3,0,2c-23.5,23.6-51.2,41-83,52c0-0.7,0-1.3,0-2C252.5,495,280.2,477.7,304.5,455z"/>
</g>
<g>
	<path class="st71" d="M221.5,460c0,0.7,0,1.3,0,2c-27.2,12.8-55.9,18.8-86,18c0-0.7,0-1.3,0-2C165.5,478.3,194.2,472.3,221.5,460z"
		/>
</g>
<g>
	<path class="st157" d="M100.5,463c11.5,2.5,23.2,3.8,35,4c0,1,0,2,0,3c-11.9-0.6-23.6-2.3-35-5C100.5,464.3,100.5,463.7,100.5,463z
		"/>
</g>
<g>
	<path class="st35" d="M-61.5,467c30.8,32.1,67.1,55.7,109,71c0,0.7,0,1.3,0,2c-42.4-14.5-78.8-38.1-109-71
		C-61.5,468.3-61.5,467.7-61.5,467z"/>
</g>
<g>
	<path class="st158" d="M47.5,468c16.9,7.9,34.6,13.5,53,17c0,1,0,2,0,3c-18.4-4-36-10-53-18C47.5,469.3,47.5,468.7,47.5,468z"/>
</g>
<g>
	<path class="st50" d="M304.5,470c0,0.7,0,1.3,0,2c-24.1,21.9-51.7,37.9-83,48c0-0.7,0-1.3,0-2C252.4,507.4,280.1,491.4,304.5,470z"
		/>
</g>
<g>
	<path class="st159" d="M221.5,472c0,0.7,0,1.3,0,2c-27.4,11.8-56.1,17.5-86,17c0-0.7,0-1.3,0-2C165.3,489,194,483.3,221.5,472z"/>
</g>
<g>
	<path class="st116" d="M100.5,474c11.5,2.3,23.2,3.6,35,4c0,0.7,0,1.3,0,2c-12,0.3-23.7-1.1-35-4
		C100.5,475.3,100.5,474.7,100.5,474z"/>
</g>
<g>
	<path class="st87" d="M47.5,480c17,7.3,34.7,12.7,53,16c0,0.7,0,1.3,0,2c-18.5-2.7-36.1-8-53-16C47.5,481.3,47.5,480.7,47.5,480z"
		/>
</g>
<g>
	<path class="st160" d="M-61.5,482c31.1,30.7,67.5,53.4,109,68c0,0.7,0,1.3,0,2c-42.1-13.8-78.4-36.5-109-68
		C-61.5,483.3-61.5,482.7-61.5,482z"/>
</g>
<g>
	<path class="st152" d="M221.5,483c0,1,0,2,0,3c-27.6,10.9-56.2,16.3-86,16c0-0.7,0-1.3,0-2C165.3,500,194,494.3,221.5,483z"/>
</g>
<g>
	<path class="st127" d="M304.5,484c0,0.7,0,1.3,0,2c-24.5,20.7-52.1,36.1-83,46c0-0.7,0-1.3,0-2C252.1,519.6,279.7,504.2,304.5,484z
		"/>
</g>
<g>
	<path class="st152" d="M100.5,485c11.6,2.1,23.2,3.5,35,4c0,0.7,0,1.3,0,2c-11.7-0.3-23.4-1.3-35-3C100.5,487,100.5,486,100.5,485z
		"/>
</g>
<g>
	<path class="st49" d="M47.5,492c17.1,7,34.7,12,53,15c0,1,0,2,0,3c-18.2-3.6-35.9-9-53-16C47.5,493.3,47.5,492.7,47.5,492z"/>
</g>
<g>
	<path class="st42" d="M221.5,495c0,0.7,0,1.3,0,2c-27.5,10.8-56.2,16.2-86,16c0-1,0-2,0-3C165.2,510.6,193.9,505.6,221.5,495z"/>
</g>
<g>
	<path class="st161" d="M100.5,496c11.7,2.1,23.4,3.4,35,4c0,0.7,0,1.3,0,2c-11.9-0.3-23.6-1.6-35-4
		C100.5,497.3,100.5,496.7,100.5,496z"/>
</g>
<g>
	<path class="st17" d="M-61.5,498c31.8,28.4,68.2,49.4,109,63c0,0.7,0,1.3,0,2c-41.2-13.1-77.5-34.1-109-63
		C-61.5,499.3-61.5,498.7-61.5,498z"/>
</g>
<g>
	<path class="st162" d="M304.5,498c0,0.7,0,1.3,0,2c-24.6,19.8-52.3,34.1-83,43c0-0.7,0-1.3,0-2C251.9,531.6,279.6,517.3,304.5,498z
		"/>
</g>
<g>
	<path class="st137" d="M47.5,503c17,7.2,34.7,12.2,53,15c0,0.7,0,1.3,0,2c-18.5-2.4-36.2-7.4-53-15C47.5,504.3,47.5,503.7,47.5,503
		z"/>
</g>
<g>
	<path class="st45" d="M100.5,507c11.5,2.1,23.2,3.1,35,3c0,1,0,2,0,3c-11.7-0.6-23.4-1.6-35-3C100.5,509,100.5,508,100.5,507z"/>
</g>
<g>
	<path class="st45" d="M221.5,507c0,0.7,0,1.3,0,2c-27.8,10-56.4,15-86,15c0-1,0-2,0-3C165,521.4,193.7,516.7,221.5,507z"/>
</g>
<g>
	<path class="st13" d="M-61.5,512c32.2,27.5,68.5,47.8,109,61c0,0.3,0,0.7,0,1c-40.9-12-77.3-32-109-60
		C-61.5,513.3-61.5,512.7-61.5,512z"/>
</g>
<g>
	<path class="st28" d="M304.5,512c0,0.7,0,1.3,0,2c-25.3,18.1-53,31.8-83,41c0-0.7,0-1.3,0-2C251.2,543.3,278.8,529.7,304.5,512z"/>
</g>
<g>
	<path class="st35" d="M47.5,515c17.1,6.7,34.8,11.4,53,14c0,0.7,0,1.3,0,2c-18.4-2.3-36-7-53-14C47.5,516.3,47.5,515.7,47.5,515z"
		/>
</g>
<g>
	<path class="st44" d="M100.5,518c11.6,2,23.2,3,35,3c0,1,0,2,0,3c-11.8-0.6-23.5-1.9-35-4C100.5,519.3,100.5,518.7,100.5,518z"/>
</g>
<g>
	<path class="st162" d="M221.5,518c0,0.7,0,1.3,0,2c-27.7,10.1-56.3,14.7-86,14c0-0.7,0-1.3,0-2C165,532.4,193.7,527.8,221.5,518z"
		/>
</g>
<g>
	<path class="st17" d="M304.5,525c0,0.7,0,1.3,0,2c-25.4,17.5-53.1,30.5-83,39c0-0.7,0-1.3,0-2C251.2,555,278.8,542,304.5,525z"/>
</g>
<g>
	<path class="st10" d="M-61.5,527c32.7,25.5,69.1,44.5,109,57c0,0.7,0,1.3,0,2c-40.2-11.9-76.6-30.9-109-57
		C-61.5,528.3-61.5,527.7-61.5,527z"/>
</g>
<g>
	<path class="st160" d="M47.5,527c17.2,6.1,34.9,10.4,53,13c0,0.7,0,1.3,0,2c-18.2-2.3-35.8-6.6-53-13
		C47.5,528.3,47.5,527.7,47.5,527z"/>
</g>
<g>
	<path class="st34" d="M100.5,529c11.6,1.8,23.2,2.8,35,3c0,0.7,0,1.3,0,2c-11.8,0.3-23.5-0.8-35-3
		C100.5,530.3,100.5,529.7,100.5,529z"/>
</g>
<g>
	<path class="st28" d="M221.5,530c0,0.7,0,1.3,0,2c-27.9,9.1-56.6,13.4-86,13c0-0.7,0-1.3,0-2C164.9,543.1,193.5,538.8,221.5,530z"
		/>
</g>
<g>
	<path class="st23" d="M47.5,538c17.2,6.2,34.8,10.6,53,13c0,0.7,0,1.3,0,2c-18.3-2.3-35.9-6.7-53-13
		C47.5,539.3,47.5,538.7,47.5,538z"/>
</g>
<g>
	<path class="st12" d="M304.5,538c0,0.7,0,1.3,0,2c-25.5,16.9-53.1,29.2-83,37c0-0.7,0-1.3,0-2C251.1,566.7,278.7,554.4,304.5,538z"
		/>
</g>
<g>
	<path class="st20" d="M100.5,540c11.6,1.7,23.3,2.7,35,3c0,0.7,0,1.3,0,2c-11.8,0-23.5-1-35-3C100.5,541.3,100.5,540.7,100.5,540z"
		/>
</g>
<g>
	<path class="st7" d="M-61.5,541c33.2,24.4,69.5,42.8,109,55c0,0.3,0,0.7,0,1c-40.2-11.2-76.5-29.6-109-55
		C-61.5,541.7-61.5,541.3-61.5,541z"/>
</g>
<g>
	<path class="st23" d="M221.5,541c0,0.7,0,1.3,0,2c-27.8,8.9-56.5,13.2-86,13c0-0.7,0-1.3,0-2C164.9,554.1,193.6,549.8,221.5,541z"
		/>
</g>
<g>
	<path class="st33" d="M47.5,550c17.3,5.5,35,9.5,53,12c0,0.7,0,1.3,0,2c-18-2.5-35.7-6.5-53-12C47.5,551.3,47.5,550.7,47.5,550z"/>
</g>
<g>
	<path class="st15" d="M100.5,551c11.6,1.5,23.3,2.5,35,3c0,0.7,0,1.3,0,2c-11.7-0.4-23.4-1.4-35-3
		C100.5,552.3,100.5,551.7,100.5,551z"/>
</g>
<g>
	<path class="st26" d="M304.5,551c0,0.7,0,1.3,0,2c-25.9,15.8-53.5,27.4-83,35c0-0.3,0-0.7,0-1C250.7,578.6,278.4,566.6,304.5,551z"
		/>
</g>
<g>
	<path class="st33" d="M221.5,553c0,0.7,0,1.3,0,2c-28.1,7.8-56.8,11.8-86,12c0-0.7,0-1.3,0-2C164.7,564.8,193.4,560.8,221.5,553z"
		/>
</g>
<g>
	<path class="st4" d="M-61.5,555c17.1,11.7,35.1,22.2,54,31.5c17.3,7.9,35,14.8,53,20.5c-39-10.3-74.7-27.3-107-51
		C-61.5,555.7-61.5,555.3-61.5,555z"/>
</g>
</svg>
