<?xml version="1.0" encoding="UTF-8"?>
<svg version="1.1" xmlns="http://www.w3.org/2000/svg" width="512" height="512">
<path d="M0 0 C4.80763362 3.76814527 7.45069249 6.6094779 8.375 12.6875 C8.64529362 17.81535603 7.48306246 21.75630557 4.3125 25.8125 C-0.23504664 30.48840481 -5.99810782 31.71968493 -12.0625 33.5625 C-42.91009833 43.42494429 -66.27477964 63.68191284 -81.48046875 92.171875 C-91.88933264 113.68531091 -93.80127407 135.79298655 -93.85616493 159.32592773 C-93.86351226 161.82869093 -93.8793057 164.33127755 -93.89750671 166.83398438 C-93.94913233 173.93893967 -93.99779307 181.04378705 -94.01342773 188.14892578 C-94.15213942 242.86253546 -107.48579201 289.27801111 -146.26074219 329.40527344 C-149.04530464 332.1517173 -152.05923589 334.62732942 -155.140625 337.03125 C-156.91154892 338.75508914 -156.91154892 338.75508914 -157.109375 341.40625 C-156.97015625 342.2003125 -156.8309375 342.994375 -156.6875 343.8125 C-153.22061616 346.1237559 -151.92025682 346.06293704 -147.83221531 346.06418228 C-146.60255372 346.06939778 -145.37289212 346.07461327 -144.10596806 346.07998681 C-142.73410202 346.0756623 -141.36223657 346.07114897 -139.9903717 346.06646729 C-138.53870199 346.06877035 -137.08703343 346.07194583 -135.63536733 346.07592177 C-131.63648234 346.08429977 -127.63769235 346.08013092 -123.63880694 346.07394934 C-119.32994278 346.06943805 -115.02109536 346.07640204 -110.7122345 346.08190918 C-102.2670201 346.09081924 -93.82184118 346.08887394 -85.37662537 346.0830839 C-78.51459926 346.07857344 -71.65258312 346.07795183 -64.79055595 346.08013153 C-63.32750726 346.08059123 -63.32750726 346.08059123 -61.83490203 346.08106022 C-59.85366555 346.08169965 -57.87242908 346.08234807 -55.89119261 346.0830054 C-37.29699228 346.08871349 -18.70281165 346.08214345 -0.10861456 346.07140467 C15.8559042 346.06247012 31.82039388 346.06401947 47.78491211 346.07324219 C66.30946522 346.08393878 84.83400104 346.08816265 103.35855681 346.08201766 C105.33295126 346.08138054 107.30734573 346.0807518 109.28174019 346.08013153 C110.25325919 346.07982298 111.22477819 346.07951443 112.22573717 346.07919653 C119.08126589 346.07746765 125.93678368 346.08038887 132.79231071 346.08509064 C141.14448798 346.09069275 149.49662765 346.08919722 157.84880059 346.07852915 C162.11252407 346.07326318 166.37618479 346.07123138 170.63990784 346.07782745 C174.54011618 346.08377002 178.44020336 346.08053993 182.34040064 346.06987235 C183.75423429 346.06763109 185.16807808 346.06879079 186.58190524 346.07362393 C188.49838791 346.07967476 190.41489911 346.07229363 192.33137417 346.06418228 C193.93059519 346.06369522 193.93059519 346.06369522 195.56212372 346.06319833 C198.31716346 345.81207492 199.96605615 345.23272068 202.3125 343.8125 C202.3125 341.8325 202.3125 339.8525 202.3125 337.8125 C201.72855469 337.55162598 201.14460938 337.29075195 200.54296875 337.02197266 C182.42639351 327.1982518 168.85402923 303.38134036 159.3125 285.8125 C158.93287109 285.12551025 158.55324219 284.43852051 158.16210938 283.73071289 C155.09209311 277.94989407 154.36553229 273.35341095 155.3125 266.8125 C156.64260446 262.54672119 158.90367071 260.13138685 162.4375 257.375 C167.47648697 254.87713307 172.99575046 254.78603979 178.33203125 256.4375 C183.45539922 258.93779287 185.68026216 262.94022021 188.3125 267.8125 C197.48531391 284.45720869 208.45353213 298.91985281 222.6875 311.5625 C231.06423703 319.06610904 235.55412144 326.84952507 236.6328125 338.17578125 C237.01345694 349.78543664 234.21746728 359.18717599 226.3125 367.8125 C220.63517206 373.56997845 213.46002976 378.46027952 205.1648674 378.93554783 C204.38687412 378.93462604 203.60888084 378.93370424 202.80731201 378.93275452 C201.90991302 378.93412918 201.01251404 378.93550385 200.08792114 378.93692017 C199.11112396 378.93332489 198.13432678 378.92972961 197.12792969 378.92602539 C196.0934671 378.92617142 195.05900452 378.92631744 193.99319458 378.9264679 C190.57356673 378.92577117 187.15399334 378.91798994 183.734375 378.91015625 C181.36354604 378.90829122 178.99271669 378.90686772 176.62188721 378.90586853 C170.38133684 378.90205006 164.14080973 378.89222545 157.90026855 378.88116455 C151.5324739 378.87093606 145.1646755 378.86636782 138.796875 378.86132812 C126.30207311 378.85060262 113.80728849 378.83353419 101.3125 378.8125 C101.1140876 379.83936668 101.1140876 379.83936668 100.91166687 380.88697815 C100.73545303 381.78609421 100.5592392 382.68521027 100.37768555 383.61157227 C100.20416061 384.50240005 100.03063568 385.39322784 99.85185242 386.31105042 C95.84440444 404.89709687 82.14099336 420.70738902 66.5546875 430.84765625 C46.74932429 442.85018359 23.96740302 446.72363285 1.1875 441.3125 C-10.99460349 437.36755429 -22.2338012 431.49968268 -31.6875 422.8125 C-32.39261719 422.17570312 -33.09773437 421.53890625 -33.82421875 420.8828125 C-43.95063026 411.27718787 -50.88447845 399.25945659 -54.86328125 385.92578125 C-55.20915283 384.77505127 -55.55502441 383.62432129 -55.91137695 382.4387207 C-56.16749756 381.57206787 -56.42361816 380.70541504 -56.6875 379.8125 C-58.62403191 379.80703156 -58.62403191 379.80703156 -60.59968567 379.80145264 C-72.79609313 379.76443119 -84.99224977 379.70658016 -97.18846607 379.62859726 C-103.45792973 379.58917251 -109.72725397 379.55695931 -115.99682617 379.54150391 C-122.05298216 379.52630467 -128.10875475 379.49180039 -134.16473961 379.44419098 C-136.4694249 379.42941098 -138.77416494 379.42146094 -141.07889748 379.42061615 C-144.31969185 379.41823463 -147.5594368 379.39105846 -150.80004883 379.35839844 C-151.74232834 379.3634288 -152.68460785 379.36845917 -153.65544128 379.37364197 C-163.76125224 379.21717739 -173.40006205 376.00749687 -180.6875 368.8125 C-189.64803126 358.22933732 -191.7613109 348.31911509 -190.89892578 334.77441406 C-189.68294651 323.49080044 -181.47017019 315.17373504 -173.375 308 C-167.18826969 302.35124624 -161.64798899 296.59520944 -156.6875 289.8125 C-156.29256348 289.27608887 -155.89762695 288.73967773 -155.49072266 288.18701172 C-132.98680764 257.2430319 -127.69103663 222.71639268 -127.37890625 185.35546875 C-127.37192278 184.53568165 -127.36493931 183.71589455 -127.35774422 182.87126541 C-127.29608391 175.18257817 -127.25866661 167.49380981 -127.23120117 159.80493164 C-127.21511903 155.55072048 -127.18472195 151.296785 -127.14643669 147.04271889 C-127.13500051 145.45275148 -127.12885827 143.86273459 -127.12875557 142.27272606 C-127.12746638 127.65403541 -125.6449677 113.11726601 -120.9375 99.1875 C-120.68000977 98.40592529 -120.42251953 97.62435059 -120.15722656 96.8190918 C-106.90500425 57.57549109 -79.78706963 27.62799254 -43.0390625 8.94140625 C-13.17539274 -5.82168516 -13.17539274 -5.82168516 0 0 Z M-21.6875 378.8125 C-17.50858904 391.34923287 -9.28865117 400.30277189 2.5625 406.25 C14.86391866 411.43334425 27.46545691 412.3399384 39.95703125 407.359375 C53.85932212 401.02189113 61.34839726 392.72873974 67.3125 378.8125 C37.9425 378.8125 8.5725 378.8125 -21.6875 378.8125 Z " fill="#1e56a7" transform="translate(190.6875,69.1875)"/>
<path d="M0 0 C26.2322632 21.26579914 43.95529823 46.10368378 52.9375 78.9375 C53.12812012 79.61039062 53.31874023 80.28328125 53.51513672 80.9765625 C58.73124823 100.30949056 58.44404768 126.72829523 52.9375 145.9375 C52.59090332 147.15687256 52.59090332 147.15687256 52.23730469 148.40087891 C45.30584693 172.05938282 34.18186003 192.29442644 16.9375 209.9375 C16.14859375 210.78828125 15.3596875 211.6390625 14.546875 212.515625 C-6.11765173 234.27496109 -34.64852189 246.73550313 -64.0625 250.9375 C-64.91199219 251.06769531 -65.76148438 251.19789063 -66.63671875 251.33203125 C-100.44864242 255.63745447 -137.79736524 246.38278324 -164.859375 225.5 C-165.92937938 224.64871133 -166.99706884 223.79450538 -168.0625 222.9375 C-168.61873047 222.49792969 -169.17496094 222.05835938 -169.74804688 221.60546875 C-197.76318166 199.33455977 -216.04204419 167.40199981 -221.0625 131.9375 C-221.25779297 130.67873047 -221.25779297 130.67873047 -221.45703125 129.39453125 C-225.8610801 95.27783284 -216.69558636 58.48850225 -196.0625 30.9375 C-195.41152344 30.06480469 -194.76054687 29.19210938 -194.08984375 28.29296875 C-183.90293858 15.28800383 -172.06686915 3.73754278 -158.0625 -5.0625 C-157.44826172 -5.45131348 -156.83402344 -5.84012695 -156.20117188 -6.24072266 C-109.51129048 -35.296195 -43.9933375 -33.96000121 0 0 Z M-158.375 37.75 C-178.12421499 57.84107529 -188.65466524 84.06195812 -189.375 112.125 C-188.91926081 137.99490134 -180.38190535 160.82867341 -164.0625 180.9375 C-163.36382812 181.80246094 -162.66515625 182.66742188 -161.9453125 183.55859375 C-145.18161606 203.23905056 -119.06633915 216.21829625 -93.39453125 218.8125 C-63.29506202 220.42587188 -35.18496575 212.31256011 -12.25683594 192.36669922 C4.2929052 177.40470716 15.50974128 158.62281091 20.9375 136.9375 C21.11410156 136.23254395 21.29070312 135.52758789 21.47265625 134.80126953 C27.65168961 107.60800576 21.50446255 78.91796589 7.2109375 55.36328125 C3.3892899 49.39898823 -1.30215076 44.15945887 -6.0625 38.9375 C-6.64515625 38.27234375 -7.2278125 37.6071875 -7.828125 36.921875 C-25.61139797 17.70156988 -53.9920802 7.04737718 -79.6484375 5.97265625 C-109.50711764 5.33465026 -137.18858686 16.97895094 -158.375 37.75 Z " fill="#1e56a7" transform="translate(456.0625,26.0625)"/>
<path d="M0 0 C0.79853394 -0.00524185 1.59706787 -0.0104837 2.4197998 -0.0158844 C4.10065554 -0.02228052 5.78155618 -0.02099894 7.46240234 -0.01245117 C10.0239267 -0.00393061 12.58322616 -0.03275015 15.14453125 -0.06445312 C16.7838535 -0.06606521 18.42317968 -0.06548746 20.0625 -0.0625 C21.20180969 -0.07935097 21.20180969 -0.07935097 22.36413574 -0.09654236 C27.52658925 -0.02936873 30.41272151 1.07440934 34.53125 4.43359375 C39.31823053 9.86746354 39.68661972 13.28984853 39.70825195 20.37792969 C39.71810875 21.76842529 39.71810875 21.76842529 39.72816467 23.18701172 C39.74792356 26.26399816 39.75956645 29.34093573 39.76953125 32.41796875 C39.77360678 33.46777168 39.7776823 34.51757462 39.78188133 35.59918976 C39.80275379 41.15629379 39.81705004 46.71337304 39.82641602 52.27050781 C39.83747884 58.01181103 39.87187417 63.75272651 39.91158772 69.49389267 C39.93773018 73.90684735 39.94610579 78.31970937 39.94969749 82.73273468 C39.9545701 84.84902819 39.96620318 86.96531737 39.98473549 89.08153534 C40.00907456 92.04522929 40.00817122 95.00791646 40.0012207 97.97167969 C40.01403076 98.84463684 40.02684082 99.71759399 40.04003906 100.61700439 C39.99365579 106.04845543 39.13703216 109.12095467 35.53125 113.43359375 C30.50289967 117.86333095 27.64959709 118.73375963 21.0703125 118.6484375 C16.30172828 118.24494191 13.51694797 116.47405271 10.28125 113.05859375 C6.95985117 108.0764955 6.28326043 104.23461607 6.30419922 98.2565918 C6.30390717 97.55360458 6.30361511 96.85061737 6.30331421 96.12632751 C6.30470123 93.81586113 6.3202325 91.50572216 6.3359375 89.1953125 C6.33966987 87.58820268 6.34251578 85.98109058 6.34451294 84.37397766 C6.35213179 80.15385605 6.37176517 75.93387314 6.3939209 71.71380615 C6.41441707 67.40362423 6.42352271 63.09341979 6.43359375 58.78320312 C6.45501279 50.33326984 6.48912752 41.88344907 6.53125 33.43359375 C5.11972656 33.48580078 5.11972656 33.48580078 3.6796875 33.5390625 C2.43445313 33.56613281 1.18921875 33.59320313 -0.09375 33.62109375 C-1.93839844 33.67330078 -1.93839844 33.67330078 -3.8203125 33.7265625 C-8.38761988 33.3598087 -11.7456806 32.04206471 -15.11328125 28.8984375 C-19.85335426 22.69988049 -20.34345724 18.2065604 -19.46875 10.43359375 C-17.81306737 6.33720655 -15.64642502 4.14711969 -11.89306641 1.87304688 C-7.73753471 0.12621849 -4.4521937 -0.01720783 0 0 Z " fill="#1e56a7" transform="translate(355.46875,84.56640625)"/>
</svg>
