<?xml version="1.0" encoding="utf-8"?>
<!-- Generator: Adobe Illustrator 24.1.2, SVG Export Plug-In . SVG Version: 6.00 Build 0)  -->
<svg version="1.1" id="Layer_1" xmlns="http://www.w3.org/2000/svg" xmlns:xlink="http://www.w3.org/1999/xlink" x="0px" y="0px"
	 viewBox="0 0 17.3 17.3" style="enable-background:new 0 0 17.3 17.3;" xml:space="preserve">
<style type="text/css">
	.st0{fill:#FFFFFF;stroke:#1E56A7;stroke-width:0.25;stroke-miterlimit:10;}
	.st1{font-family:'Algerian';}
	.st2{font-size:12.76px;}
</style>
<g id="Layer_2_1_">
	<g id="Layer_1-2">
		<path class="st0" d="M17.3,8.7c0,4.8-3.9,8.7-8.7,8.7S0,13.5,0,8.7S3.9,0,8.7,0c0,0,0,0,0,0C13.4,0,17.3,3.9,17.3,8.7z M8.7,2.4
			c-3.5,0-6.3,2.8-6.3,6.3c0,3.5,2.8,6.3,6.3,6.3c3.5,0,6.3-2.8,6.3-6.3c0,0,0,0,0,0C14.9,5.2,12.1,2.4,8.7,2.4
			C8.7,2.4,8.7,2.4,8.7,2.4z"/>
		<text transform="matrix(1 0 0 1 5.88 13.16)" class="st0 st1 st2">?</text>
	</g>
</g>
</svg>
