<svg xmlns="http://www.w3.org/2000/svg" viewBox="0 0 18.99 19.09"><defs><style>.cls-1{fill:#1e56a7;}</style></defs><g id="Layer_2" data-name="Layer 2"><g id="Layer_1-2" data-name="Layer 1"><path class="cls-1" d="M18.34,9.82a8.82,8.82,0,0,1-3.89,7.41l-.26.17c-.18.12-.14.22,0,.34s.5.44.73.67A.41.41,0,0,1,15,19a.4.4,0,0,1-.56-.08c-.26-.26-.52-.54-.76-.81a.46.46,0,0,0-.59-.12,8.7,8.7,0,0,1-6.44.29c-.26-.09-.51-.2-.77-.31a.33.33,0,0,0-.44.1c-.25.28-.51.54-.78.81-.06.06-.13.14-.21.15s-.29,0-.37,0A.36.36,0,0,1,4,18.66a1.17,1.17,0,0,1,.28-.39,7,7,0,0,1,.57-.52c.18-.14.13-.22,0-.33-.33-.25-.66-.49-1-.75A8.49,8.49,0,0,1,1,12.19,8.61,8.61,0,0,1,2,5.22c.27-.43.6-.82.91-1.23.16-.21.16-.23-.08-.47s-.28-.22-.46,0-.6.6-.89.9-.61.42-1-.09a2.66,2.66,0,0,1-.08-3.1A2.53,2.53,0,0,1,3.87.33a2.9,2.9,0,0,1,.65.45c.23.21.21.38,0,.6-.39.4-.79.79-1.17,1.2-.07.07-.17.22-.14.27a2,2,0,0,0,.36.41s.16,0,.23-.1A10.2,10.2,0,0,1,6.72,1.52a8.67,8.67,0,0,1,3.5-.42,6.79,6.79,0,0,1,2.09.4A10.83,10.83,0,0,1,15,3a2.09,2.09,0,0,1,.22.16c.14.14.25.11.38,0,.28-.31.28-.33,0-.62s-.76-.75-1.14-1.13a.4.4,0,0,1,0-.67A2.77,2.77,0,0,1,17.6.32a2.7,2.7,0,0,1,.76,4.11.49.49,0,0,1-.82,0c-.34-.33-.68-.67-1-1-.12-.12-.22-.14-.34,0l-.06.05c-.28.25-.28.25,0,.53a8.32,8.32,0,0,1,2.11,4.53C18.28,9,18.31,9.44,18.34,9.82Zm-.75-.18A8.17,8.17,0,0,0,9.31,1.77a8.22,8.22,0,0,0-7.93,8.49,8.26,8.26,0,0,0,8.43,7.8A8.14,8.14,0,0,0,17.59,9.64ZM3.82,1A5.64,5.64,0,0,0,2.94.74,2,2,0,0,0,.84,3.37c.15.46.21.49.55.15C2.15,2.78,2.9,2,3.65,1.26A1.9,1.9,0,0,0,3.82,1Zm11.38.07L18,3.83a2.17,2.17,0,0,0-.26-2.54A1.92,1.92,0,0,0,15.2,1.06Z"/><path class="cls-1" d="M2,9.88A7.6,7.6,0,0,1,9,2.39a7.5,7.5,0,0,1,8,7.3,7.58,7.58,0,0,1-7.46,7.76A7.55,7.55,0,0,1,2,9.88ZM12.58,16a.41.41,0,0,0,0-.08c-.13-.29-.11-.46.07-.57s.39,0,.52.18.18.08.28,0a7.45,7.45,0,0,0,1.64-1.58c.2-.24.2-.25-.06-.45a.28.28,0,0,1-.08-.44c.1-.15.24-.25.43-.12s.22.06.29-.08a6.45,6.45,0,0,0,.7-2.31c0-.2,0-.3-.24-.3s-.36-.08-.37-.31.15-.33.41-.33.21-.07.2-.23a6.29,6.29,0,0,0-.62-2.25c-.1-.21-.19-.3-.42-.18a.3.3,0,0,1-.42-.16A.26.26,0,0,1,15,6.37c.21-.11.2-.22.07-.41a7.83,7.83,0,0,0-1.68-1.67c-.13-.1-.21-.07-.29.06s-.24.29-.46.2A.36.36,0,0,1,12.52,4c.07-.17,0-.24-.13-.31a7.82,7.82,0,0,0-2.28-.64c-.18,0-.25,0-.26.21s-.14.42-.35.42-.32-.18-.32-.4-.09-.26-.29-.23a8.65,8.65,0,0,0-2.29.63c-.16.08-.2.15-.11.31a.35.35,0,0,1-.1.51c-.16.11-.36.06-.49-.16s-.21-.16-.35,0A7.82,7.82,0,0,0,3.93,6c-.12.16-.14.27,0,.39a.3.3,0,0,1,.12.45.3.3,0,0,1-.45.13c-.17-.09-.26,0-.34.13A8.49,8.49,0,0,0,2.7,9.14c-.05.38-.06.39.33.43a.26.26,0,0,1,.26.29.56.56,0,0,1-.19.32c-.06.05-.18,0-.28.05s-.17.06-.15.18a7.36,7.36,0,0,0,.68,2.39c.07.15.15.2.32.13A.41.41,0,0,1,4,13c.19.13.16.37,0,.52s-.2.24-.05.4.41.5.64.72.66.6,1,.88c.1.09.22.15.33,0a.34.34,0,0,1,.49-.17c.22.13.2.33.1.53s0,.18.08.24a7.62,7.62,0,0,0,2.33.64c.13,0,.21,0,.24-.14s0-.14,0-.18.21-.23.32-.24.25.13.27.23c.08.27.24.31.48.29A5.45,5.45,0,0,0,12.58,16Z"/><path class="cls-1" d="M9.83,6.9V8.31a.49.49,0,0,0,.26.45,2.33,2.33,0,0,1,.57.56.45.45,0,0,0,.43.24h2c.25,0,.36.13.35.34s-.15.33-.42.33c-.64,0-1.28,0-1.92,0a.4.4,0,0,0-.43.26,1.22,1.22,0,0,1-1.32.72,1.32,1.32,0,0,1-1.15-1.09,1.24,1.24,0,0,1,.69-1.35.51.51,0,0,0,.31-.53c0-.91,0-1.82,0-2.72a1.34,1.34,0,0,1,0-.2A.34.34,0,0,1,9.54,5c.23,0,.28.17.29.35,0,.46,0,.93,0,1.4V6.9Zm-.31,3.62a.61.61,0,0,0,.64-.56.71.71,0,0,0-.65-.69.67.67,0,0,0-.66.65A.65.65,0,0,0,9.52,10.52Z"/><path class="cls-1" d="M9.52,10.52a.65.65,0,0,1-.67-.6.67.67,0,0,1,.66-.65.71.71,0,0,1,.65.69A.61.61,0,0,1,9.52,10.52Z"/></g></g></svg>