<?xml version="1.0" encoding="utf-8"?>
<!-- Generator: Adobe Illustrator 24.1.2, SVG Export Plug-In . SVG Version: 6.00 Build 0)  -->
<svg version="1.1" id="Layer_1" xmlns="http://www.w3.org/2000/svg" xmlns:xlink="http://www.w3.org/1999/xlink" x="0px" y="0px"
	 viewBox="0 0 19.3 19.5" style="enable-background:new 0 0 19.3 19.5;" xml:space="preserve">
<style type="text/css">
	.st0{fill:#FFFFFF;stroke:#1E56A7;stroke-width:0.25;stroke-miterlimit:10;}
</style>
<g id="Layer_2_1_">
	<g id="Layer_1-2">
		<path class="st0" d="M19.3,19.5c-0.9-0.3-1.8-0.5-2.6-0.7c-0.2,0-0.5,0-0.7,0.1c-3.1,1.6-6.8,0.4-8.4-2.7
			c-0.1-0.3-0.3-0.6-0.4-0.9c0-0.2-0.3-0.4-0.5-0.4c-1-0.1-2-0.4-2.9-0.9c-0.2-0.1-0.4-0.1-0.6,0c-1,0.3-2,0.6-3,0.9
			c0-0.2,0-0.3,0.1-0.5c0.1-0.5,0.3-1,0.4-1.5C1,12,1,11,0.6,10.2C-1,6.4,0.8,2.1,4.5,0.5s8.1,0.2,9.7,3.9c0.3,0.7,0.5,1.4,0.5,2.1
			c0,0.4,0.2,0.7,0.6,0.8c2.5,0.9,4.1,3.3,4,5.9c-0.1,1-0.3,2-0.7,3c-0.1,0.3,0,0.7,0.1,1c0.1,0.5,0.3,0.9,0.5,1.3
			C19.2,18.8,19.3,19.1,19.3,19.5z M1.6,13.2C2.1,13.1,2.6,13,3,12.9c0.5-0.2,1-0.1,1.5,0.1c0.8,0.4,1.6,0.6,2.5,0.7
			c3.5,0.2,6.4-2.5,6.6-6c0-0.3,0-0.7,0-1c-0.5-3.5-3.7-6-7.2-5.5c-0.1,0-0.1,0-0.2,0c-3.4,0.6-5.7,3.9-5,7.3
			c0.1,0.6,0.3,1.2,0.6,1.8c0.3,0.5,0.4,1.1,0.2,1.6C1.9,12.3,1.8,12.7,1.6,13.2z M14.8,8.3c-0.5,3.4-3.1,6.1-6.6,6.5
			c0.1,0.2,0.2,0.4,0.3,0.6c1.2,2.5,4.1,3.6,6.6,2.4c0,0,0.1,0,0.1,0c0.7-0.3,1.5-0.4,2.1-0.1l0.4,0.1c-0.4-0.9-0.4-1.9,0.1-2.7
			c1.1-2.6-0.2-5.6-2.8-6.7C14.9,8.4,14.8,8.4,14.8,8.3z"/>
		<path class="st0" d="M6.9,9.2c-0.1-0.8-0.2-1.5,0.6-2C7.7,7,7.9,6.8,8.1,6.6c0.4-0.3,0.5-0.9,0.3-1.3C8.3,4.8,7.8,4.5,7.3,4.6
			c-0.5,0-0.9,0.4-1,0.9L6.2,5.7h-1c-0.1-1,0.6-1.9,1.6-2.2c1-0.3,2.1,0.2,2.6,1.2c0.5,1,0.2,2.2-0.7,2.9C8.5,7.8,8.3,7.9,8.2,8.1
			C8.1,8.2,7.9,8.4,8,8.5c0.2,0.6-0.1,0.7-0.6,0.6H6.9z"/>
		<path class="st0" d="M7.3,10.3h0.6v1h-1V9.7h0.9C8,10.2,7.8,10.4,7.3,10.3z"/>
	</g>
</g>
</svg>
