<?xml version="1.0" encoding="utf-8"?>
<!-- Generator: Adobe Illustrator 24.1.2, SVG Export Plug-In . SVG Version: 6.00 Build 0)  -->
<svg version="1.1" id="Layer_1" xmlns="http://www.w3.org/2000/svg" xmlns:xlink="http://www.w3.org/1999/xlink" x="0px" y="0px"
	 viewBox="0 0 22.1 22.1" style="enable-background:new 0 0 22.1 22.1;" xml:space="preserve">
<style type="text/css">
	.st0{fill:#FFFFFF;stroke:#1E56A7;stroke-width:0.25;stroke-miterlimit:10;}
</style>
<g id="Layer_2_1_">
	<g id="Layer_1-2">
		<path class="st0" d="M11.5,12.9c-3.3,2.4-7.9,1.7-10.3-1.5C-0.7,8.4-0.3,4.5,2.1,2c2.5-2.4,6.4-2.7,9.3-0.7
			c3.2,2.4,3.9,7,1.5,10.2c0.3,0.3,0.6,0.6,1,0.9c0.1,0.1,0.3,0.1,0.5,0.1c0.8-0.1,1.6,0.3,2.2,0.9c1.7,1.7,3.4,3.4,5,5.1
			c0.7,0.9,0.8,2.1,0.1,3c-0.9,0.8-2.2,0.8-3.2,0c-1.7-1.7-3.4-3.4-5.1-5.1c-0.5-0.5-0.8-1.1-0.7-1.8c0-0.5-0.2-0.9-0.6-1.2
			C11.9,13.2,11.7,13.1,11.5,12.9z M12.2,7.2c0.1-2.8-2.2-5.1-5-5.2c0,0-0.1,0-0.1,0C4.3,2,2,4.2,1.9,7.1c0,2.8,2.2,5.2,5.1,5.2
			C9.8,12.3,12.2,10,12.2,7.2C12.2,7.2,12.2,7.2,12.2,7.2L12.2,7.2z"/>
	</g>
</g>
</svg>
