<svg xmlns="http://www.w3.org/2000/svg" viewBox="0 0 27.04 15.39"><defs><style>.cls-1{fill:#1e56a7;}</style></defs><g id="Layer_2" data-name="Layer 2"><g id="Layer_1-2" data-name="Layer 1"><path class="cls-1" d="M0,7.69c0-2.2,0-4.4,0-6.6a.9.9,0,0,1,.84-1A8.17,8.17,0,0,1,2,0c.83,0,1.65,0,2.48,0h14c.44,0,.59.16.54.61a.61.61,0,0,0,.25.62.43.43,0,0,0,.32.11c.16-.06.35-.14.34-.37a5.43,5.43,0,0,1,0-.57c0-.09.09-.22.16-.24A2.68,2.68,0,0,1,20.8,0c1.81,0,3.61,0,5.41,0h.25c.39,0,.43,0,.47.41A16,16,0,0,1,27,2.27q0,5.6,0,11.19A9.82,9.82,0,0,1,27,14.55a.85.85,0,0,1-.93.83H20.36a.48.48,0,0,1-.51-.49c0-.14,0-.29,0-.44a.46.46,0,0,0-.44-.43.37.37,0,0,0-.42.34c0,.2-.08.41-.13.61s-.17.42-.53.42h-5c-4.06,0-8.13,0-12.19,0A1.06,1.06,0,0,1,0,14.27C0,12.07,0,9.88,0,7.69ZM18,.94H1.09c-.15,0-.28,0-.18.21a.34.34,0,0,1,0,.1c0,.66,0,1.32,0,2q0,5.19,0,10.37c0,.66.23.9.9.91H5.42l3.74,0,3.5,0H18a1.21,1.21,0,0,1,.44-1c.34-.23.58-.48.49-.93a.27.27,0,0,1,.19-.33.45.45,0,0,1,.64.4,1,1,0,0,0,.29.64c.23.27.41.59.64.87a.55.55,0,0,0,.35.23q.9.08,1.8.09h3.28V.94h-5c-.18,0-.49-.13-.39.28,0,0,0,0,0,0a2.65,2.65,0,0,1-.45.66,1,1,0,0,0-.5.92.35.35,0,0,1-.41.36A.45.45,0,0,1,19,2.76c0-.13,0-.27,0-.4a.28.28,0,0,0-.12-.18A1.43,1.43,0,0,1,18,.94Z"/><path class="cls-1" d="M5.4,12.28A3.26,3.26,0,0,1,5,12a.35.35,0,0,1,.06-.46l.69-.71,5.71-5.7c.49-.49,1-1,1.47-1.47a1.6,1.6,0,0,1,.54-.34c.26-.1.46,0,.41.32a1.13,1.13,0,0,1-.28.58c-1,1-2,2-3,3L5.87,11.91A5.16,5.16,0,0,1,5.4,12.28Z"/><path class="cls-1" d="M12.15,12.65a2.17,2.17,0,0,1-2-1.2,2,2,0,0,1,.13-2.27,2.28,2.28,0,0,1,2.93-.7,2.2,2.2,0,0,1,1.19,1.89A2.34,2.34,0,0,1,12.15,12.65Zm.12-1v.06a2.36,2.36,0,0,0,.75-.24,1.28,1.28,0,0,0,.51-1.08,1.37,1.37,0,0,0-1.37-1.35,1.33,1.33,0,0,0-1.3,1.14C10.84,11.34,11.39,11.71,12.27,11.66Z"/><path class="cls-1" d="M6.82,2.82A2,2,0,0,1,9,5,2.12,2.12,0,0,1,6.79,7.24a2.21,2.21,0,1,1,0-4.42ZM5.46,5.06A1.4,1.4,0,0,0,6.77,6.4a1.18,1.18,0,0,0,1.08-.57A1.36,1.36,0,0,0,7.93,4.3a1.4,1.4,0,0,0-1.51-.62A1.38,1.38,0,0,0,5.46,5.06Z"/><path class="cls-1" d="M19,10.35c0-.17,0-.33,0-.5s.16-.39.46-.4.37.09.37.35a10.56,10.56,0,0,1-.05,1.13c0,.23-.12.38-.37.37a.45.45,0,0,1-.42-.43c0-.18,0-.35,0-.52Z"/><path class="cls-1" d="M19,5V4.5a.27.27,0,0,1,.25-.29c.47-.11.64,0,.63.52,0,.25,0,.51,0,.76a.38.38,0,0,1-.41.4A.43.43,0,0,1,19,5.48C18.94,5.32,19,5.16,19,5Z"/><path class="cls-1" d="M19.82,7.67c0,.19-.05.39-.07.59a.33.33,0,0,1-.34.33.36.36,0,0,1-.42-.3,7.75,7.75,0,0,1,0-1.18c0-.16.34-.33.54-.31s.24.19.26.36,0,.23,0,.34Z"/></g></g></svg>