<?xml version="1.0" encoding="UTF-8"?>
<svg version="1.1" xmlns="http://www.w3.org/2000/svg" width="512" height="512">
<path d="M0 0 C0.82781322 -0.00235223 1.65562643 -0.00470446 2.50852489 -0.00712797 C5.31255677 -0.01384239 8.11654256 -0.01335902 10.92058182 -0.01294994 C12.93918467 -0.01624705 14.95778687 -0.01997229 16.97638822 -0.02409142 C22.54705799 -0.03413696 28.11771699 -0.03783231 33.68839455 -0.04048073 C39.68717154 -0.04437622 45.68593993 -0.05395503 51.68471146 -0.0626936 C65.49762841 -0.08154361 79.31054602 -0.09171708 93.12347218 -0.10015428 C99.94656956 -0.10435846 106.76966606 -0.10958075 113.59276269 -0.11483881 C136.9404205 -0.13273013 160.28807855 -0.14772709 183.63574219 -0.155159 C185.10195421 -0.15563376 186.56816623 -0.15610965 188.03437825 -0.15658666 C189.12506259 -0.15694122 189.12506259 -0.15694122 190.23778096 -0.15730295 C193.92186318 -0.15850417 197.6059454 -0.15971961 201.29002762 -0.16094494 C202.38671151 -0.16130516 202.38671151 -0.16130516 203.50555063 -0.16167267 C227.21615642 -0.16956753 250.92671221 -0.19300262 274.63729617 -0.22550088 C299.69447068 -0.25978223 324.75161593 -0.27950856 349.80881429 -0.28280324 C352.55840382 -0.28322079 355.30799334 -0.28370036 358.05758286 -0.28422642 C359.07315215 -0.28441121 359.07315215 -0.28441121 360.109238 -0.28459973 C371.01491196 -0.28693385 381.92052795 -0.30260564 392.82618124 -0.32306826 C403.78392485 -0.34330276 414.74160816 -0.34848084 425.69936845 -0.33929763 C431.6382785 -0.33473807 437.57699995 -0.3367351 443.5158844 -0.35605907 C448.94906842 -0.37358544 454.38192479 -0.37277905 459.81511179 -0.35716178 C461.78419409 -0.35476963 463.75329846 -0.3591917 465.72234687 -0.37099043 C468.39294703 -0.386006 471.06237064 -0.37650894 473.73294067 -0.36076355 C474.50273616 -0.37098576 475.27253165 -0.38120796 476.06565428 -0.39173993 C481.23122862 -0.3249781 484.13224617 0.88957887 488.11815262 4.13422108 C492.26471193 8.84112624 493.24288473 11.19123639 493.2523737 17.42309666 C493.25472593 18.07869576 493.25707816 18.73429486 493.25950167 19.40976059 C493.26621011 21.62796867 493.26573289 23.84611843 493.26532364 26.06433582 C493.26862112 27.66220923 493.27234644 29.26008181 493.27646512 30.85795331 C493.28650644 35.26566282 493.29020533 39.67335872 493.29285443 44.08107805 C493.29675117 48.82831085 493.30632992 53.57553279 493.31506729 58.32275867 C493.33484941 69.79554018 493.34490006 81.26832258 493.35379508 92.74111688 C493.35817506 98.13973287 493.36354261 103.53834787 493.36878395 108.93696308 C493.38579787 126.87609497 493.40029301 144.81522624 493.40753269 162.75436497 C493.40944268 167.41190816 493.411363 172.06945134 493.41331863 176.72699451 C493.41380237 177.88464818 493.41428611 179.04230185 493.41478451 180.23503593 C493.42308839 198.99674566 493.44843062 217.75839171 493.48089931 236.52007362 C493.51394014 255.76879843 493.53197875 275.01749085 493.53517693 294.26624417 C493.53734478 305.07918733 493.54613348 315.89203762 493.57163811 326.70495319 C493.59330446 335.91203914 493.6014156 345.11900966 493.59167133 354.3261182 C493.58711482 359.02558401 493.58909098 363.72481149 493.60843277 368.42424488 C493.62598117 372.72499847 493.62513487 377.02533838 493.60953548 381.32609585 C493.60714669 382.88333805 493.61154844 384.44060827 493.62336413 385.99780747 C493.638422 388.11303676 493.62885529 390.22678861 493.61313725 392.34198093 C493.61411405 393.51727037 493.61509086 394.69255981 493.61609727 395.90346408 C492.83348112 400.9812224 490.30347539 404.06453955 486.55565262 407.44672108 C483.05240725 409.87204479 480.43489455 410.25908617 476.28244114 410.25726891 C475.28021686 410.25925995 474.27799258 410.261251 473.24539787 410.26330239 C471.58928883 410.25893312 471.58928883 410.25893312 469.89972305 410.25447559 C468.7292638 410.25533002 467.55880455 410.25618444 466.35287684 410.25706476 C463.09879004 410.25842988 459.84474281 410.25529395 456.59066069 410.2502867 C453.08352319 410.2459766 449.5763876 410.24742902 446.0692482 410.24818897 C439.99113717 410.24871385 433.91303685 410.24557081 427.83492851 410.23995113 C419.04695619 410.23183127 410.25898906 410.22922041 401.47101339 410.22796314 C387.21382314 410.22577339 372.9566386 410.21911538 358.69945145 410.20966053 C344.84821476 410.20048443 330.99697962 410.19340456 317.14574051 410.18915272 C316.29224794 410.18888999 315.43875538 410.18862727 314.5593994 410.18835659 C310.27776694 410.18705157 305.99613446 410.18578786 301.71450198 410.18454468 C266.18238145 410.17417446 230.65026756 410.15655822 195.11815262 410.13422108 C195.14171829 410.98802357 195.14171829 410.98802357 195.16576004 411.85907459 C195.22863701 414.47151982 195.26730794 417.08380518 195.30565262 419.69672108 C195.33078934 420.59197498 195.35592606 421.48722889 195.38182449 422.4096117 C195.46069739 429.58704567 194.51202648 434.37205893 189.68065262 439.94672108 C185.91652391 443.16000168 183.30610498 444.38161205 178.34962845 444.40164661 C176.91556656 444.41444157 176.91556656 444.41444157 175.45253372 444.427495 C174.4103569 444.42658863 173.36818008 444.42568226 172.29442215 444.42474842 C170.64014206 444.43482426 170.64014206 444.43482426 168.95244217 444.44510365 C165.30190415 444.46412198 161.65154961 444.46800978 158.00096512 444.47015858 C155.46514688 444.4765837 152.92932939 444.48331184 150.39351273 444.4903307 C145.07563127 444.50231299 139.7578183 444.50609613 134.43992996 444.50482655 C128.3004726 444.50362537 122.16136691 444.52472376 116.02199852 444.55631387 C110.10812606 444.5856553 104.19436066 444.59280164 98.28041077 444.59160709 C95.76779494 444.59396816 93.25517654 444.60281996 90.74260712 444.61827183 C87.22833169 444.63786049 83.71496207 444.63212092 80.20067215 444.62006092 C79.16254379 444.63129993 78.12441544 444.64253895 77.05482864 444.65411854 C71.05882999 444.60181398 67.7212362 444.05821857 63.11815262 440.13422108 C62.37565262 439.51547108 61.63315262 438.89672108 60.86815262 438.25922108 C56.37777799 432.80662332 56.86919348 426.44347929 56.99315262 419.75922108 C57.00217606 418.83238514 57.01119949 417.9055492 57.02049637 416.95062733 C57.04392324 414.67822031 57.07672513 412.40635927 57.11815262 410.13422108 C56.32967941 410.14088291 55.54120621 410.14754475 54.72883987 410.15440845 C47.28435852 410.21461482 39.83999586 410.26024368 32.39533424 410.28965759 C28.56829662 410.30528816 24.74146082 410.32647826 20.91453934 410.36053944 C17.21869432 410.3932267 13.52304297 410.41109371 9.82706451 410.41885281 C8.41970269 410.42437958 7.01235101 410.43517208 5.60507202 410.45141125 C3.62825556 410.47330743 1.65124265 410.47444752 -0.32569504 410.47479725 C-2.01113922 410.48479 -2.01113922 410.48479 -3.73063278 410.49498463 C-7.99800433 410.006439 -11.37311032 408.54261458 -14.52637863 405.59906483 C-18.15373728 400.85559583 -19.00700714 398.79635019 -19.01606846 392.8453455 C-19.01842069 392.1897464 -19.02077292 391.5341473 -19.02319643 390.85868156 C-19.02990487 388.64047348 -19.02942765 386.42232373 -19.0290184 384.20410633 C-19.03231588 382.60623292 -19.0360412 381.00836035 -19.04015988 379.41048884 C-19.0502012 375.00277933 -19.05390009 370.59508344 -19.05654919 366.1873641 C-19.06044593 361.44013131 -19.07002468 356.69290937 -19.07876205 351.94568348 C-19.09854418 340.47290198 -19.10859482 329.00011957 -19.11748984 317.52732527 C-19.12186983 312.12870928 -19.12723738 306.73009428 -19.13247871 301.33147907 C-19.14949263 283.39234718 -19.16398777 265.45321591 -19.17122746 247.51407719 C-19.17313745 242.856534 -19.17505776 238.19899081 -19.1770134 233.54144764 C-19.17749714 232.38379397 -19.17798088 231.22614031 -19.17847928 230.03340623 C-19.18678315 211.27169649 -19.21212538 192.51005044 -19.24459407 173.74836853 C-19.2776349 154.49964372 -19.29567351 135.25095131 -19.2988717 116.00219798 C-19.30103954 105.18925482 -19.30982824 94.37640454 -19.33533287 83.56348896 C-19.35699923 74.35640302 -19.36511036 65.1494325 -19.35536609 55.94232395 C-19.35080959 51.24285814 -19.35278574 46.54363067 -19.37212753 41.84419727 C-19.38967593 37.54344368 -19.38882963 33.24310378 -19.37323024 28.9423463 C-19.37084145 27.38510411 -19.3752432 25.82783388 -19.38705889 24.27063468 C-19.40211677 22.1554054 -19.39255005 20.04165355 -19.37683201 17.92646122 C-19.37780882 16.75117178 -19.37878563 15.57588234 -19.37979203 14.36497808 C-18.59296798 9.25991809 -16.06580852 6.17723446 -12.25684738 2.82172108 C-8.11820335 -0.11889442 -4.93914651 -0.00940479 0 0 Z M12.11815262 18.13422108 C14.09815262 20.44422108 16.07815262 22.75422108 18.11815262 25.13422108 C18.76482938 25.99576723 19.41150615 26.85731338 20.07777917 27.74496698 C23.74476571 32.19237068 26.78804483 34.56090205 32.65152834 35.17121986 C36.45288372 35.37538982 40.23893333 35.35741419 44.0443306 35.31744862 C45.77386007 35.33212679 47.50336009 35.35070158 49.23281038 35.37282228 C53.97262252 35.42195406 58.71093569 35.41508319 63.45091319 35.39869738 C68.56784019 35.39067767 73.6843702 35.43429856 78.80113602 35.47098255 C88.82146963 35.53411958 98.84128243 35.5477686 108.86179145 35.5424189 C117.00939619 35.53849399 125.15683864 35.54991868 133.30441284 35.5721941 C135.65252029 35.57849181 138.00062774 35.58478461 140.34873521 35.59107256 C142.10191498 35.59576843 142.10191498 35.59576843 143.89051251 35.60055918 C165.99222155 35.65725776 188.09363184 35.65411926 210.19538347 35.6336512 C230.39950918 35.61693226 250.60249278 35.67936911 270.80635162 35.7787326 C291.56400508 35.88002501 312.3211119 35.92543818 333.07901704 35.91158152 C344.72810071 35.90485455 356.37612935 35.92046788 368.02500153 35.99525928 C377.94471041 36.05840713 387.86278627 36.06897304 397.78256305 36.01236051 C402.84064295 35.984945 407.89568171 35.98125857 412.95352173 36.04342747 C435.48487003 37.37326431 435.48487003 37.37326431 455.18745649 28.68814135 C459.83689448 23.96684177 459.83689448 23.96684177 462.11815262 18.13422108 C313.61815262 18.13422108 165.11815262 18.13422108 12.11815262 18.13422108 Z M-0.88184738 32.13422108 C-0.88184738 146.31422108 -0.88184738 260.49422108 -0.88184738 378.13422108 C1.42815262 376.15422108 3.73815262 374.17422108 6.11815262 372.13422108 C6.97969877 371.44173854 7.84124492 370.74925599 8.72889853 370.03578913 C13.24533656 366.09544354 15.6503386 363.19903029 16.26748276 357.13360119 C16.32442488 354.80849893 16.33253594 352.48187601 16.30138016 350.15628529 C16.31965347 348.8687764 16.33792678 347.58126752 16.35675383 346.25474322 C16.40575153 342.70054401 16.39904462 339.14834936 16.38262892 335.59393144 C16.37459182 331.75302986 16.41826225 327.91265243 16.45491409 324.07196522 C16.51798113 316.55419369 16.53170425 309.03711665 16.52635044 301.5191118 C16.52242167 295.40428553 16.53386971 289.28967521 16.55612564 283.17488956 C16.56242354 281.41094833 16.56871634 279.64700709 16.5750041 277.88306582 C16.57813468 277.00497785 16.58126527 276.12688989 16.58449072 275.2221932 C16.64116186 258.62570859 16.63805969 242.02962201 16.61758274 225.43308075 C16.60086857 210.27268914 16.66328318 195.11382035 16.76266414 179.95378451 C16.86404448 164.36703525 16.90935883 148.7810142 16.89551306 133.19392931 C16.88879435 124.45105526 16.90427377 115.7095875 16.97919083 106.96699619 C17.04245497 99.52112556 17.05279557 92.07743123 16.99629205 84.63146894 C16.96894059 80.83679187 16.96496823 77.04616258 17.02735901 73.25180912 C17.76020798 55.16161462 17.76020798 55.16161462 9.67207289 39.70717108 C4.91574365 34.76135098 4.91574365 34.76135098 -0.88184738 32.13422108 Z M464.57067287 39.7136116 C455.50772077 49.64147658 456.99010073 62.72647932 457.15728259 75.37090445 C457.19151968 79.20776146 457.13869298 83.04363025 457.09758377 86.88028431 C457.03117711 94.37775251 457.04515285 101.87295799 457.08877338 109.37051177 C457.12276843 115.46813409 457.12719308 121.56512597 457.11091614 127.66281605 C457.10861764 128.53346701 457.10631915 129.40411797 457.103951 130.30115229 C457.09915471 132.07033549 457.0942915 133.83951851 457.08936213 135.60870135 C457.0466753 152.16552448 457.09563 168.72109815 457.17636763 185.27771628 C457.24337871 199.45804877 457.23173582 213.63653899 457.16258621 227.81683826 C457.08215711 244.31771179 457.05079431 260.81749264 457.09677017 277.31853485 C457.10154797 279.08089843 457.10626354 280.84326219 457.11091614 282.60562611 C457.11323027 283.47254945 457.1155444 284.3394728 457.11792866 285.23266655 C457.13083412 291.31699229 457.10912063 297.40061996 457.07372284 303.48483753 C457.0314764 310.90879079 457.04339027 318.33036844 457.122934 325.7540524 C457.16213799 329.53649024 457.17820681 333.31498158 457.12819672 337.09738255 C456.46619793 355.14637494 456.46619793 355.14637494 464.57067287 370.55483055 C469.3244647 375.50300522 469.3244647 375.50300522 475.11815262 378.13422108 C475.11815262 263.95422108 475.11815262 149.77422108 475.11815262 32.13422108 C471.61840324 32.13422108 467.03052615 37.39665279 464.57067287 39.7136116 Z M33.11815262 52.13422108 C33.11815262 153.11422108 33.11815262 254.09422108 33.11815262 358.13422108 C41.03815262 358.13422108 48.95815262 358.13422108 57.11815262 358.13422108 C57.15553543 354.96699451 57.19291824 351.79976795 57.23143387 348.53656483 C57.27769925 345.45519739 57.32891475 342.37394901 57.38060379 339.29266834 C57.41377379 337.15797686 57.4418302 335.02319934 57.46458817 332.88837147 C57.49827979 329.81239776 57.55060365 326.73720682 57.60643387 323.66156483 C57.61601875 322.23927822 57.61601875 322.23927822 57.62579727 320.78825855 C57.78059449 313.74677697 58.84865802 308.89441721 63.43065262 303.32172108 C69.26319429 298.57430343 75.79290102 298.7433756 82.99315262 298.50922108 C83.96768387 298.4705492 84.94221512 298.43187733 85.94627762 298.39203358 C88.33671982 298.29829075 90.72716506 298.21258278 93.11815262 298.13422108 C93.44686356 297.36078358 93.77557449 296.58734608 94.11424637 295.79047108 C98.44390024 286.30981977 103.49683129 279.8050094 113.24315262 275.63422108 C122.38048784 272.76358561 133.01399688 272.51311518 141.77440262 276.68890858 C150.60816031 282.13639249 155.65519038 288.38324847 159.11815262 298.13422108 C159.71241043 298.1488036 160.30666824 298.16338612 160.91893387 298.17841053 C163.65260896 298.25360785 166.38515679 298.3500263 169.11815262 298.44672108 C170.52000809 298.48055897 170.52000809 298.48055897 171.95018387 298.51508045 C178.89643719 298.78224404 185.34993844 299.36600689 190.49315262 304.50922108 C200.47670359 320.63649573 194.67618888 337.80388898 195.11815262 358.13422108 C276.29815262 358.13422108 357.47815262 358.13422108 441.11815262 358.13422108 C441.11815262 257.15422108 441.11815262 156.17422108 441.11815262 52.13422108 C306.47815262 52.13422108 171.83815262 52.13422108 33.11815262 52.13422108 Z M113.30565262 297.19672108 C109.43634523 302.39264815 109.47882225 306.76793136 110.11815262 313.13422108 C112.42559793 318.0153554 115.32153457 320.69066094 120.11815262 323.13422108 C124.94371663 324.52190646 128.82564528 324.61877751 133.43065262 322.50922108 C138.40261765 319.59325749 140.96397973 316.36874876 142.55565262 310.82172108 C143.44688203 305.94426559 142.80720268 302.31718784 140.11815262 298.13422108 C137.12960827 294.96663951 133.66776904 291.39938118 129.16502762 290.93109608 C122.40412222 290.79311842 117.85245109 291.89859978 113.30565262 297.19672108 Z M75.11815262 316.13422108 C75.11815262 352.43422108 75.11815262 388.73422108 75.11815262 426.13422108 C108.77815262 426.13422108 142.43815262 426.13422108 177.11815262 426.13422108 C177.11815262 389.83422108 177.11815262 353.53422108 177.11815262 316.13422108 C171.17815262 316.13422108 165.23815262 316.13422108 159.11815262 316.13422108 C158.60252762 317.61922108 158.08690262 319.10422108 157.55565262 320.63422108 C153.65598281 330.18773743 148.1320758 334.65012633 138.88768387 339.00531483 C129.917005 342.6619103 120.5406035 342.05813245 111.65330887 338.38812733 C104.06503737 334.63491446 99.0557888 329.65836664 95.11815262 322.13422108 C94.45815262 320.15422108 93.79815262 318.17422108 93.11815262 316.13422108 C87.17815262 316.13422108 81.23815262 316.13422108 75.11815262 316.13422108 Z M13.01903152 389.64374256 C12.03193994 390.98659379 12.03193994 390.98659379 12.11815262 392.13422108 C26.96815262 392.13422108 41.81815262 392.13422108 57.11815262 392.13422108 C57.11815262 386.85422108 57.11815262 381.57422108 57.11815262 376.13422108 C31.66727553 373.73476788 31.66727553 373.73476788 13.01903152 389.64374256 Z M195.11815262 376.13422108 C195.11815262 381.41422108 195.11815262 386.69422108 195.11815262 392.13422108 C283.22815262 392.13422108 371.33815262 392.13422108 462.11815262 392.13422108 C460.13815262 389.82422108 458.15815262 387.51422108 456.11815262 385.13422108 C455.55533616 384.27080129 454.9925197 383.4073815 454.4126482 382.51779747 C451.80208594 378.96768389 449.27318908 376.60973369 444.86081195 375.63613486 C437.59036792 374.77581637 430.26998607 375.0082508 422.9636116 375.11249256 C420.47955798 375.11503255 417.9954976 375.11360364 415.51144791 375.10851002 C410.17285318 375.10646404 404.83548451 375.131898 399.49720955 375.18265057 C391.77930709 375.25597897 384.06188258 375.27925199 376.34366954 375.29054249 C363.81990148 375.31021162 351.29666277 375.37002734 338.77318192 375.455266 C326.61207593 375.53795185 314.45111403 375.60162071 302.28978348 375.63983631 C301.5394251 375.64220082 300.78906673 375.64456533 300.01597022 375.6470015 C296.25142088 375.65874734 292.48687052 375.67012059 288.72231948 375.68130863 C257.52054568 375.77452014 226.31942974 375.93363121 195.11815262 376.13422108 Z " fill="#fff" transform="translate(18.881847381591797,33.86577892303467)"/>
<path d="M0 0 C6.06410184 4.90129468 10.38735194 11.79370851 11.75 19.4375 C12.44561035 19.41655273 13.1412207 19.39560547 13.85791016 19.37402344 C17.03012458 19.2905302 20.20210731 19.23873471 23.375 19.1875 C25.01662109 19.13722656 25.01662109 19.13722656 26.69140625 19.0859375 C33.05350026 19.00882121 36.95046178 19.09656675 41.75 23.4375 C46.71000543 28.93372223 46.90796272 33.29898868 46.94287109 40.46362305 C46.95513733 41.84951881 46.95513733 41.84951881 46.96765137 43.26341248 C46.99249119 46.32534133 47.009019 49.38722381 47.0234375 52.44921875 C47.02876118 53.49560831 47.03408485 54.54199787 47.03956985 55.62009621 C47.06629698 61.16005343 47.08567216 66.69998817 47.10009766 72.23999023 C47.11343157 76.82124827 47.14127516 81.40206034 47.18212891 85.9831543 C47.23148276 91.51744238 47.2562224 97.0513262 47.26332474 102.58582497 C47.27003163 104.69211043 47.28523896 106.79838707 47.30921555 108.90454674 C47.34091915 111.85830797 47.34089568 114.8105168 47.33349609 117.7644043 C47.34990143 118.62859985 47.36630676 119.49279541 47.38320923 120.38317871 C47.32053429 126.51936603 45.71336828 130.71257257 41.75 135.4375 C34.7406397 141.46071607 24.58477291 139.93792357 15.90625 139.828125 C14.16891127 139.82065543 12.43156407 139.81496588 10.69421387 139.81097412 C6.14351738 139.79577404 1.59333962 139.75654155 -2.95715332 139.7121582 C-7.60938502 139.67108338 -12.26170135 139.65293714 -16.9140625 139.6328125 C-26.02626833 139.59004118 -35.13809086 139.5218589 -44.25 139.4375 C-43.92 140.0975 -43.59 140.7575 -43.25 141.4375 C-43.01525077 143.32187058 -42.83372383 145.2129702 -42.67749023 147.10546875 C-42.57746201 148.29430664 -42.47743378 149.48314453 -42.37437439 150.70800781 C-42.21806297 152.64691895 -42.21806297 152.64691895 -42.05859375 154.625 C-41.94816696 155.96584053 -41.83749126 157.30666058 -41.72657776 158.64746094 C-41.49446176 161.46511893 -41.26535101 164.28300127 -41.03833008 167.10107422 C-40.74916104 170.68771933 -40.45271441 174.27371675 -40.15394497 177.85957336 C-39.92361268 180.6339736 -39.69722757 183.40868562 -39.47197151 186.1835022 C-39.31238577 188.14098692 -39.14957163 190.0982076 -38.98667908 192.05541992 C-37.19745262 214.47808514 -37.19745262 214.47808514 -44.6875 223.3125 C-52.90056295 229.42735949 -68.55844762 228.16008835 -78.609375 228.9453125 C-80.25077788 229.07666203 -81.8921552 229.20833131 -83.5335083 229.34030151 C-86.94870136 229.61384669 -90.3641327 229.88410915 -93.77978516 230.15185547 C-98.13633639 230.49354576 -102.49224991 230.84270678 -106.84801865 231.19421577 C-110.22801668 231.46629147 -113.6082885 231.73483089 -116.98865509 232.002285 C-118.59454384 232.12968026 -120.20035563 232.25804996 -121.80608368 232.38745499 C-147.20925145 234.42768359 -147.20925145 234.42768359 -156.125 227.0625 C-162.22644605 218.90478955 -160.85161814 203.03284092 -161.5390625 193.15234375 C-161.64792599 191.63730689 -161.75717654 190.12229779 -161.86679077 188.60731506 C-162.093239 185.46375778 -162.31650037 182.31999777 -162.53710938 179.17602539 C-162.81935796 175.15441882 -163.10757041 171.13326789 -163.3978672 167.11223507 C-163.62246962 163.99736987 -163.8450771 160.88236488 -164.06696701 157.76730537 C-164.17266823 156.28376298 -164.27872476 154.80024586 -164.38515091 153.31675529 C-164.53287645 151.25027747 -164.67818457 149.18364409 -164.82275391 147.11694336 C-164.90554596 145.9444957 -164.98833801 144.77204803 -165.07363892 143.56407166 C-165.22699318 140.84537042 -165.28490129 138.15942132 -165.25 135.4375 C-165.9925 135.1796875 -166.735 134.921875 -167.5 134.65625 C-175.53259972 131.09634785 -180.12614492 123.32087677 -183.25 115.4375 C-185.91481672 107.20389962 -185.14645353 97.44042536 -181.5078125 89.6796875 C-176.56761078 80.87324095 -169.87678677 73.78414514 -159.9296875 70.91015625 C-148.83112283 68.9525377 -139.40725785 70.04289705 -129.8515625 75.91015625 C-120.82039525 82.25597643 -116.79703925 90.9365487 -114.25 101.4375 C-113.15945313 101.32921875 -113.15945313 101.32921875 -112.046875 101.21875 C-111.04140625 101.1259375 -110.0359375 101.033125 -109 100.9375 C-108.02546875 100.8446875 -107.0509375 100.751875 -106.046875 100.65625 C-102.68629041 100.46263607 -99.37735324 100.41584554 -96.01269531 100.42382812 C-94.93320618 100.425802 -93.85371704 100.42777588 -92.74151611 100.42980957 C-91.9193158 100.43234741 -91.09711548 100.43488525 -90.25 100.4375 C-90.25888245 99.57385834 -90.26776489 98.71021667 -90.2769165 97.82040405 C-90.35716339 89.6695842 -90.41801565 81.51889759 -90.45724869 73.36777306 C-90.47809718 69.17746462 -90.50636416 64.98748341 -90.55175781 60.79736328 C-90.59531419 56.75137758 -90.6191577 52.70570605 -90.62950897 48.65950394 C-90.63688286 47.11815065 -90.65128257 45.57681398 -90.67292023 44.03559494 C-90.70208611 41.87150064 -90.70595076 39.70869375 -90.70410156 37.54443359 C-90.71298401 36.31421478 -90.72186646 35.08399597 -90.73101807 33.8164978 C-89.98875816 28.60235975 -87.50876386 25.54641102 -83.625 22.125 C-80.03246372 19.57240843 -78.18283444 19.31680087 -73.8046875 19.33984375 C-72.72832031 19.34306641 -71.65195312 19.34628906 -70.54296875 19.34960938 C-69.41503906 19.35798828 -68.28710938 19.36636719 -67.125 19.375 C-65.42150391 19.38176758 -65.42150391 19.38176758 -63.68359375 19.38867188 C-60.87234362 19.40048385 -58.0611977 19.41695493 -55.25 19.4375 C-55.06896729 18.84219482 -54.88793457 18.24688965 -54.70141602 17.63354492 C-51.5921732 7.80242476 -46.82610006 1.55917859 -37.64453125 -3.41015625 C-25.19127908 -9.40315688 -11.35400554 -7.51848736 0 0 Z M-34.8671875 17.16796875 C-37.80978069 21.33248623 -39.05684176 25.09192225 -38.73046875 30.19921875 C-37.56201638 35.64249686 -34.58956845 39.8965837 -29.9375 42.9375 C-24.97004378 44.95816016 -21.14625308 45.37654016 -16.10546875 43.7421875 C-11.27894927 41.61099708 -8.7753548 39.18516702 -6.25 34.4375 C-4.55820534 29.36211603 -4.68628133 25.11785564 -6.875 20.25 C-9.49207707 15.44426418 -13.10207191 13.15347603 -18.25 11.4375 C-24.90326159 10.78521945 -30.25368878 12.23130224 -34.8671875 17.16796875 Z M-72.25 37.4375 C-72.25 57.5675 -72.25 77.6975 -72.25 98.4375 C-68.62 98.4375 -64.99 98.4375 -61.25 98.4375 C-54.97998442 100.04978972 -51.8063621 101.7891602 -48.25 107.4375 C-47.29703842 110.40634185 -46.74187287 113.36329455 -46.25 116.4375 C-45.92 118.0875 -45.59 119.7375 -45.25 121.4375 C-20.83 121.4375 3.59 121.4375 28.75 121.4375 C28.75 93.7175 28.75 65.9975 28.75 37.4375 C23.14 37.4375 17.53 37.4375 11.75 37.4375 C10.8425 39.149375 9.935 40.86125 9 42.625 C3.83060785 51.98255708 -1.63783422 56.69282741 -11.5625 60.8125 C-23.29162613 62.80048748 -33.56719703 61.47603532 -43.5625 54.8125 C-49.19072962 50.28217965 -52.08040172 43.77669656 -55.25 37.4375 C-60.86 37.4375 -66.47 37.4375 -72.25 37.4375 Z M-162.79296875 94.203125 C-165.56110608 98.14209913 -167.02116031 101.57265032 -166.66796875 106.421875 C-165.55159637 111.80550256 -163.48967187 115.45082239 -159.1875 118.875 C-154.64497013 121.29123929 -151.37585824 121.78501581 -146.25 121.4375 C-140.81415241 119.55159369 -137.48188892 116.0695232 -134.25 111.4375 C-132.54891933 106.33425799 -132.68478753 102.11876566 -134.9375 97.25 C-137.41301505 92.72033417 -140.31009122 90.08413626 -145.25 88.4375 C-152.45799691 87.58539184 -157.90565659 88.61055514 -162.79296875 94.203125 Z M-92.15161133 117.66430664 C-94.57524616 117.87611392 -96.9994369 118.08025469 -99.42382812 118.28320312 C-100.98701689 118.41622408 -102.55016936 118.54967245 -104.11328125 118.68359375 C-104.82696365 118.7440538 -105.54064606 118.80451385 -106.2759552 118.86680603 C-114.23809492 118.99776171 -114.23809492 118.99776171 -121.03515625 122.109375 C-121.45667969 122.79515625 -121.87820313 123.4809375 -122.3125 124.1875 C-128.35396353 133.09070941 -136.40081369 136.17887547 -146.25 139.4375 C-146.35645825 148.07277664 -146.07892325 156.59478075 -145.41015625 165.203125 C-145.32374374 166.36197205 -145.23733124 167.52081909 -145.14830017 168.71478271 C-144.9664396 171.14173106 -144.78229804 173.56850949 -144.59594727 175.99511719 C-144.31217799 179.69169473 -144.03536489 183.3887427 -143.75976562 187.0859375 C-143.5811321 189.45836371 -143.4021091 191.83076063 -143.22265625 194.203125 C-143.14032242 195.29707581 -143.05798859 196.39102661 -142.97315979 197.51812744 C-142.51167286 203.50813424 -141.95158208 209.47073742 -141.25 215.4375 C-132.97255356 214.82355314 -124.69535587 214.20638211 -116.418437 213.5853672 C-112.57293268 213.2969361 -108.72735901 213.00951552 -104.8815918 212.72460938 C-80.53482421 210.92425238 -80.53482421 210.92425238 -56.25 208.4375 C-56.86689834 200.39428364 -57.48425211 192.35110241 -58.1021328 184.30796146 C-58.38926123 180.57015113 -58.67625287 176.83233042 -58.96289062 173.09448242 C-59.56588848 165.23243336 -60.1712594 157.37057751 -60.78132248 149.50907326 C-61.13537665 144.93992934 -61.48154141 140.37023335 -61.82519531 135.80029297 C-62.00050588 133.51138211 -62.17595286 131.22248169 -62.3515625 128.93359375 C-62.42845306 127.88921646 -62.50534363 126.84483917 -62.58456421 125.76881409 C-62.69473373 124.35075722 -62.69473373 124.35075722 -62.80712891 122.90405273 C-62.86897369 122.08396225 -62.93081848 121.26387177 -62.99453735 120.41893005 C-63.14874487 118.36570031 -63.14874487 118.36570031 -64.25 116.4375 C-73.61710499 116.19856091 -82.83132438 116.84900748 -92.15161133 117.66430664 Z " fill="#fff" transform="translate(397.25,108.5625)"/>
<path d="M0 0 C8.45466005 5.79573073 14.17658846 13.56092836 16.63671875 23.59765625 C18.13835216 33.52781265 16.12276907 42.72864696 10.52734375 51.11328125 C6.99552229 55.47611953 2.64910438 58.90059708 -2 62 C-2.44830753 64.60273044 -2.70112022 67.0035416 -2.84375 69.62744141 C-2.92496094 70.80829315 -2.92496094 70.80829315 -3.0078125 72.01300049 C-3.12374637 73.72591919 -3.23308432 75.43929393 -3.33666992 77.15300369 C-3.50111482 79.86998174 -3.68283881 82.58531171 -3.86914062 85.3008728 C-4.26194448 91.07459044 -4.63191208 96.84966212 -5 102.625 C-5.42697188 109.29754759 -5.86333976 115.96928719 -6.3190918 122.63993454 C-6.4970263 125.30698985 -6.66001319 127.97468219 -6.82226562 130.64273071 C-6.93290066 132.29393086 -7.04419484 133.94508702 -7.15625 135.59619141 C-7.19685547 136.33104767 -7.23746094 137.06590393 -7.27929688 137.82302856 C-7.73577372 144.1613998 -8.91677339 150.52951664 -13.875 154.875 C-24.46198678 162.07415101 -38.04998148 158.72132381 -50.1640625 157.72265625 C-51.80827106 157.59018634 -53.4525079 157.45806698 -55.09677124 157.32627869 C-58.52437157 157.05066878 -61.95172495 156.77222694 -65.37890625 156.49145508 C-69.75042111 156.13335131 -74.12232186 155.78026401 -78.4943943 155.42903996 C-82.69692821 155.09119392 -86.8992491 154.75073215 -91.1015625 154.41015625 C-91.89138142 154.34638353 -92.68120033 154.28261082 -93.49495316 154.21690559 C-120.63474241 152.02004623 -120.63474241 152.02004623 -127.5 144.125 C-132.54153561 133.78393296 -128.47702579 116.14198422 -127.57421875 105.00390625 C-127.42428046 103.11638318 -127.27452922 101.22884523 -127.12495422 99.34129333 C-126.81224126 95.41540651 -126.49468051 91.48994681 -126.17407227 87.56469727 C-125.76527975 82.55034605 -125.37284311 77.53485863 -124.98445415 72.51889133 C-124.68104233 68.63278938 -124.3669644 64.74760285 -124.04990578 60.8625927 C-123.90065575 59.01343503 -123.75514504 57.16397136 -123.61356163 55.31421089 C-123.41456672 52.72999484 -123.20066919 50.14741166 -122.9831543 47.56469727 C-122.92848495 46.81286163 -122.87381561 46.061026 -122.81748962 45.28640747 C-122.24778555 38.84173257 -120.83771845 33.16756535 -116.5625 28.125 C-111.74308747 24.128414 -108.1161505 23.69198438 -101.9296875 23.78515625 C-101.13851532 23.7916066 -100.34734314 23.79805695 -99.53219604 23.80470276 C-91.4871174 23.92035417 -83.49189667 24.50912158 -75.48095703 25.22680664 C-73.07781501 25.44171976 -70.67385628 25.64449526 -68.26953125 25.84570312 C-66.72389934 25.97848172 -65.17832385 26.11191916 -63.6328125 26.24609375 C-62.92246857 26.3065538 -62.21212463 26.36701385 -61.48025513 26.42930603 C-58.23790157 26.72295621 -55.12694643 27.07013696 -52 28 C-51.95875 26.741875 -51.9175 25.48375 -51.875 24.1875 C-50.85992066 15.3577003 -46.01257509 7.92441231 -39.15234375 2.43359375 C-27.41028671 -5.3873408 -12.57912343 -6.88679013 0 0 Z M-31.390625 20.57421875 C-34.40609852 25.12928262 -34.78986861 29.66594901 -34 35 C-32.17465409 40.27322153 -29.39280797 42.79691086 -25 46 C-20.06558151 47.64480616 -15.73589501 47.5902043 -10.875 45.9375 C-6.52141254 43.00356062 -2.98811409 39.91206111 -1.26171875 34.82421875 C-0.40659549 29.8230433 -1.16820676 26.17548928 -3.6875 21.79296875 C-6.43820507 18.03530914 -9.532698 15.48910067 -14 14 C-21.33152941 13.25442074 -26.41548258 14.94224573 -31.390625 20.57421875 Z M-104 42 C-104.91607959 52.96144781 -105.82904374 63.92315024 -106.73806 74.8851862 C-107.16027459 79.97558788 -107.5835513 85.06589655 -108.00927734 90.15600586 C-108.42028336 95.07059291 -108.82847063 99.98540676 -109.23472595 104.90038872 C-109.39001134 106.77308901 -109.54630265 108.64570618 -109.70362854 110.51823616 C-109.92424415 113.14613869 -110.14124259 115.77431721 -110.35742188 118.40258789 C-110.45560463 119.55705666 -110.45560463 119.55705666 -110.55577087 120.73484802 C-110.91649084 125.1739518 -111.06037572 129.54612048 -111 134 C-100.55298718 135.38023935 -90.12150224 136.49929611 -79.61328125 137.32421875 C-78.21322204 137.43573964 -76.8131724 137.54738066 -75.41313171 137.65913391 C-72.51690996 137.8893461 -69.62047736 138.11664583 -66.72387695 138.34204102 C-63.02042378 138.63067785 -59.31783281 138.9291589 -55.61535358 139.22999859 C-52.74094517 139.46207729 -49.86606724 139.68785365 -46.9910183 139.91184425 C-45.62454901 140.01927975 -44.25825148 140.1289247 -42.89214516 140.24088097 C-40.99152955 140.39593397 -39.09013228 140.54131334 -37.1887207 140.6862793 C-36.11112991 140.77129196 -35.03353912 140.85630463 -33.92329407 140.94389343 C-31.10269016 140.99802908 -28.73087701 140.67148446 -26 140 C-25.3445393 131.4027161 -24.69234434 122.80519318 -24.04424286 114.20735168 C-23.74315787 110.21444673 -23.440976 106.22163128 -23.13623047 102.22900391 C-22.84182244 98.37126925 -22.55037005 94.51332136 -22.26091003 90.6552124 C-22.15032275 89.1880507 -22.03869563 87.72096698 -21.92597961 86.25396729 C-21.1107892 75.63987934 -21.1107892 75.63987934 -21 65 C-21.76183594 64.78085938 -22.52367187 64.56171875 -23.30859375 64.3359375 C-32.17900381 61.61169171 -40.07222398 58.91121101 -44.63012695 50.40258789 C-46.32284438 47.79555594 -47.31836796 46.29449017 -50.1914978 45.05319214 C-52.82760564 44.5767134 -55.36682056 44.36563366 -58.04296875 44.24609375 C-59.00721268 44.1700441 -59.9714566 44.09399445 -60.96492004 44.01564026 C-64.0377727 43.78321825 -67.11076481 43.61002495 -70.1875 43.4375 C-72.23530326 43.2895968 -74.28283904 43.13793944 -76.33007812 42.98242188 C-85.56916211 42.31243561 -94.73437769 41.91035763 -104 42 Z " fill="#fff" transform="translate(197,106)"/>
<path d="M0 0 C1.14483856 -0.0127597 2.28967712 -0.02551941 3.46920776 -0.03866577 C5.32547287 -0.04200424 5.32547287 -0.04200424 7.21923828 -0.04541016 C9.12613937 -0.05539536 9.12613937 -0.05539536 11.07156372 -0.06558228 C13.76334614 -0.0757172 16.4547248 -0.08126322 19.14648438 -0.08007812 C22.58884624 -0.07987505 26.03038144 -0.10716384 29.47254753 -0.14162254 C32.76307998 -0.1692652 36.05360548 -0.16804154 39.34423828 -0.17041016 C41.19443069 -0.19196671 41.19443069 -0.19196671 43.08200073 -0.21395874 C44.23314362 -0.20780548 45.3842865 -0.20165222 46.5703125 -0.1953125 C47.5805246 -0.19816254 48.59073669 -0.20101257 49.63156128 -0.20394897 C53.19881522 0.42987397 54.86533599 1.75611237 57.41455078 4.29052734 C58.56343596 8.23982013 58.84584474 10.32011593 57.16455078 14.10302734 C55.41455078 16.29052734 55.41455078 16.29052734 52.41455078 18.29052734 C49.88552856 18.55795288 49.88552856 18.55795288 46.82910156 18.58105469 C45.684263 18.59381439 44.53942444 18.6065741 43.3598938 18.61972046 C42.12238373 18.62194611 40.88487366 18.62417175 39.60986328 18.62646484 C37.70296219 18.63645004 37.70296219 18.63645004 35.75753784 18.64663696 C33.06575542 18.65677189 30.37437676 18.66231791 27.68261719 18.66113281 C24.24025532 18.66092974 20.79872012 18.68821853 17.35655403 18.72267723 C14.06602158 18.75031989 10.77549608 18.74909623 7.48486328 18.75146484 C5.63467087 18.77302139 5.63467087 18.77302139 3.74710083 18.79501343 C2.59595795 18.78886017 1.44481506 18.78270691 0.25878906 18.77636719 C-1.25652908 18.78064224 -1.25652908 18.78064224 -2.80245972 18.78500366 C-6.35546176 18.15371297 -8.02843256 16.79178606 -10.58544922 14.29052734 C-11.90772935 10.48897196 -11.78554089 8.81076569 -10.33544922 5.04052734 C-7.45562102 0.51508303 -5.08830906 0.03845966 0 0 Z " fill="#fff" transform="translate(121.58544921875,391.70947265625)"/>
<path d="M0 0 C1.57898053 3.15796107 1.81928171 6.60670636 1 10 C-1.04040121 12.88601078 -2.70432994 14.65409255 -6.18652344 15.58374023 C-8.81502567 15.94719578 -11.41350517 16.15852133 -14.0625 16.3125 C-14.99900391 16.38098145 -15.93550781 16.44946289 -16.90039062 16.52001953 C-19.59943152 16.70633741 -22.29834442 16.85747788 -25 17 C-26.27746094 17.08378906 -27.55492187 17.16757812 -28.87109375 17.25390625 C-33.30274106 17.42541819 -36.17114835 17.40629983 -40.1875 15.4375 C-42.59881934 12.19469123 -43 10.02750865 -43 6 C-41.41161066 2.42612398 -40.28365642 1.18910428 -37 -1 C-34.79858398 -1.41064453 -34.79858398 -1.41064453 -32.24609375 -1.6328125 C-31.30830078 -1.71660156 -30.37050781 -1.80039062 -29.40429688 -1.88671875 C-28.42525391 -1.96535156 -27.44621094 -2.04398437 -26.4375 -2.125 C-25.48552734 -2.21136719 -24.53355469 -2.29773438 -23.55273438 -2.38671875 C-4.76688279 -3.99803073 -4.76688279 -3.99803073 0 0 Z " fill="#fff" transform="translate(315,267)"/>
<path d="M0 0 C0.81855469 0.04253906 1.63710937 0.08507812 2.48046875 0.12890625 C5.15690413 0.2830879 7.8272977 0.47878625 10.5 0.6875 C11.36044922 0.74059326 12.22089844 0.79368652 13.10742188 0.84838867 C17.41755899 1.23987304 19.5326281 1.64424821 23.05859375 4.328125 C26.00186159 8.37881957 25.70110622 10.09225643 25 15 C23.12984906 17.43119623 21.71861655 18.64069173 19 20 C17.55643375 20.0396117 16.11069914 20.01231881 14.66796875 19.94921875 C13.79253418 19.91143311 12.91709961 19.87364746 12.01513672 19.8347168 C10.61545654 19.76184448 10.61545654 19.76184448 9.1875 19.6875 C7.76848389 19.61366089 7.76848389 19.61366089 6.32080078 19.53833008 C-13.70302445 18.39630629 -13.70302445 18.39630629 -16.78515625 15.078125 C-18.78505019 11.65708457 -19.32365849 9.23578697 -18.3125 5.375 C-14.27298105 -1.93460571 -7.2930915 -0.41331963 0 0 Z " fill="#fff" transform="translate(129,192)"/>
<path d="M0 0 C2.15566989 -0.00437403 4.30929153 -0.04071884 6.46459961 -0.07861328 C7.84284786 -0.08448213 9.22110577 -0.08845107 10.59936523 -0.09033203 C11.84645264 -0.0985498 13.09354004 -0.10676758 14.37841797 -0.11523438 C18.30859725 0.45477195 19.93559044 1.60530049 22.72827148 4.37060547 C24.29762742 7.50931734 24.08028251 9.90916369 23.72827148 13.37060547 C21.06542903 16.86162739 19.57809609 18.21813485 15.21069336 19.00170898 C13.87305569 19.02773441 12.53465834 19.02557897 11.19702148 18.99951172 C10.12671692 19.00312965 10.12671692 19.00312965 9.03479004 19.00682068 C7.53200705 19.00584482 6.02918695 18.99251312 4.52661133 18.9675293 C2.23450861 18.93319889 -0.05373824 18.94688309 -2.34594727 18.96630859 C-3.81080732 18.95940965 -5.27565749 18.9497368 -6.74047852 18.93701172 C-7.42082153 18.94197159 -8.10116455 18.94693146 -8.80212402 18.95204163 C-13.52563752 18.8359181 -15.98092565 17.74398567 -19.27172852 14.37060547 C-20.5833162 10.59979088 -20.4582876 8.88118822 -19.08422852 5.12060547 C-14.7092191 -1.51733985 -7.1496781 -0.0016277 0 0 Z " fill="#fff" transform="translate(130.271728515625,425.62939453125)"/>
<path d="M0 0 C2.08297121 0.00315859 4.16451878 -0.02031136 6.24731445 -0.0456543 C7.56666992 -0.04629883 8.88602539 -0.04694336 10.24536133 -0.04760742 C11.4505542 -0.05058838 12.65574707 -0.05356934 13.89746094 -0.05664062 C17.47005448 0.35161754 19.30961788 1.15534988 22.15551758 3.31567383 C24.65583412 7.06614864 24.69155312 8.87423649 24.15551758 13.31567383 C21.48812032 16.80095893 20.00444333 18.16336448 15.63793945 18.94677734 C14.30030178 18.97280277 12.96190443 18.97064732 11.62426758 18.94458008 C10.55396301 18.94819801 10.55396301 18.94819801 9.46203613 18.95188904 C7.95925314 18.95091318 6.45643304 18.93758148 4.95385742 18.91259766 C2.66175471 18.87826725 0.37350785 18.89195145 -1.91870117 18.91137695 C-3.38356123 18.904478 -4.84841139 18.89480516 -6.31323242 18.88208008 C-6.99357544 18.88703995 -7.67391846 18.89199982 -8.37487793 18.89710999 C-13.09839142 18.78098646 -15.55367955 17.68905403 -18.84448242 14.31567383 C-20.1560701 10.54485924 -20.0310415 8.82625658 -18.65698242 5.06567383 C-14.31463024 -1.52272259 -7.15685998 -0.02275765 0 0 Z " fill="#fff" transform="translate(385.844482421875,186.684326171875)"/>
</svg>
