<?xml version="1.0" encoding="utf-8"?>
<!-- Generator: Adobe Illustrator 24.1.2, SVG Export Plug-In . SVG Version: 6.00 Build 0)  -->
<svg version="1.1" id="Layer_1" xmlns="http://www.w3.org/2000/svg" xmlns:xlink="http://www.w3.org/1999/xlink" x="0px" y="0px"
	 viewBox="0 0 26.2 19" style="enable-background:new 0 0 26.2 19;" xml:space="preserve">
<style type="text/css">
	.st0{fill:#FFFFFF;stroke:#1E56A7;stroke-width:0.25;stroke-miterlimit:10;}
</style>
<g id="Layer_2_1_">
	<g id="Layer_1-2">
		<path class="st0" d="M8,16.2l-1.3,1.4c-0.4-0.4-0.8-0.8-1.1-1.1c-0.1-0.2-0.1-0.4,0-0.6c0.3-0.4,0.6-0.7,1-1
			c-0.3-0.7-0.5-1.2-0.7-1.8c-0.1-0.2-0.3-0.3-0.5-0.4c-0.5,0-1,0-1.5,0c0-0.5,0-1.1,0-1.6c0-0.1,0.3-0.4,0.5-0.3
			c1.2,0.2,1.8-0.3,2-1.4c0.1-0.3,0.2-0.5,0.3-0.7L5.8,7.9C5.8,7.8,5.7,7.7,5.6,7.6C5.1,7,5.8,6.8,6,6.5s0.5-1,1-0.3
			c0.7,0.9,1.4,1.2,2.4,0.5c0.2-0.1,0.5-0.2,0.8-0.3V4.5c0.5,0,1,0,1.6,0C12,4.6,12.1,4.8,12.1,5c-0.2,0.8,0.2,1.6,0.9,1.8
			c0.1,0,0.2,0,0.3,0.1c1,0.3,0.8,0.6,1.6-0.3c0.2-0.2,0.4-0.5,0.6-0.8l1.4,1.6c-0.2,0.3-0.5,0.6-0.8,0.8c-0.4,0.2-0.5,0.7-0.3,1.1
			c0,0,0,0.1,0.1,0.1c0,0.1,0,0.1,0.1,0.2c0.4,1.2,0.4,1.2,1.7,1.2c0.8,0,0.8,0,0.8,0.8v1.1c-0.5,0-1,0-1.5,0
			c-0.3,0-0.5,0.1-0.6,0.4c-0.2,0.6-0.4,1.1-0.7,1.7l0.9,0.9c0.3,0.3,0.4,0.5,0,0.8s-0.6,0.6-1,1l-1.2-1.4c-0.8,0.3-1.4,0.5-2,0.8
			c-0.1,0.1-0.2,0.3-0.3,0.5c-0.1,0.5-0.1,1-0.1,1.6h-1.8c0-0.5,0-1.1,0-1.6c0-0.2-0.1-0.3-0.3-0.4C9.3,16.7,8.7,16.5,8,16.2z
			 M11.2,9.5c-1.3,0-2.3,1-2.3,2.3C8.9,13,10,14,11.3,13.9c1.2-0.1,2.1-0.9,2.2-2.1C13.5,10.6,12.5,9.5,11.2,9.5z"/>
		<path class="st0" d="M15.1,4.6l1-1.2C11.6,0.7,5.8,2.2,3.2,6.7C2.7,7.6,2.3,8.5,2.1,9.5c-0.5,2.4-0.1,4.9,1.2,7
			c0.3,0.3,0.3,0.8-0.1,1.1c0,0-0.1,0.1-0.1,0.1c-0.3,0.3-0.6,0.6-0.8,0.9c-1.6-2-2.5-4.6-2.4-7.2C0,6,3.7,1.4,8.9,0.3
			c2.8-0.7,5.7-0.2,8.1,1.2c0.5,0.3,0.8,0.3,1.1-0.2c0.2-0.3,0.5-0.6,0.8-0.9c0.1-0.1,0.1-0.1,0.2-0.2c0.2,0.7,0.3,1.5,0.2,2.2
			c0.1,0.8,0.1,1.5,0.1,2.4L15.1,4.6z"/>
		<path class="st0" d="M23.6,14.4L23.5,13h-3.6c0-0.7,0-1.3,0-1.9c0-0.4,0.2-0.6,0.6-0.6c1,0,2,0,3.1,0l0.1-1.4l0.6,0.5l1.7,1.7
			c0.2,0.2,0.4,0.4,0.1,0.7L23.6,14.4z"/>
	</g>
</g>
</svg>
