<svg xmlns="http://www.w3.org/2000/svg" xmlns:xlink="http://www.w3.org/1999/xlink" viewBox="0 0 279 114.54"><defs><style>.cls-1{fill:#f89721;}.cls-2{fill:url(#linear-gradient);}.cls-3{font-size:12.54px;fill:#231f20;font-family:MyriadPro-Regular, Myriad Pro;}.cls-4{letter-spacing:-0.02em;}.cls-5{letter-spacing:-0.01em;}.cls-6{letter-spacing:-0.01em;}.cls-7{letter-spacing:-0.01em;}.cls-8{letter-spacing:0em;}</style><linearGradient id="linear-gradient" x1="14.83" y1="56.8" x2="2.35" y2="35.05" gradientUnits="userSpaceOnUse"><stop offset="0" stop-color="#f89822"/><stop offset="0.45" stop-color="#f89822"/><stop offset="0.78" stop-color="#f89822" stop-opacity="0.3"/><stop offset="1" stop-color="#f89822" stop-opacity="0"/></linearGradient></defs><g id="Layer_2" data-name="Layer 2"><g id="Layer_1-2" data-name="Layer 1"><path class="cls-1" d="M109.34,62.58a8.89,8.89,0,1,1-8.89,8.89,8.89,8.89,0,0,1,8.89-8.89m0-6.57A15.46,15.46,0,1,0,124.8,71.47,15.48,15.48,0,0,0,109.34,56Z"/><circle class="cls-1" cx="100.45" cy="43.23" r="8.89"/><circle class="cls-1" cx="81.72" cy="27.64" r="7.75"/><circle class="cls-1" cx="60.76" cy="19.59" r="6.96"/><circle class="cls-1" cx="39.53" cy="19.59" r="6.28"/><circle class="cls-1" cx="22.23" cy="27.05" r="5.45"/><path d="M48.17,60.82q3.19,3.09,3.2,9.19V86.09H44.8V70.85c0-2.45-.57-4.3-1.73-5.54a6.43,6.43,0,0,0-4.94-1.87,7.6,7.6,0,0,0-5.73,2.18,8.71,8.71,0,0,0-2.1,6.28V86.09H23.73V58H30v3.63a10.3,10.3,0,0,1,4.1-2.95,14.9,14.9,0,0,1,5.57-1A11.74,11.74,0,0,1,48.17,60.82Z"/><path d="M84.17,60.82q3.19,3.09,3.2,9.19V86.09H80.8V70.85c0-2.45-.57-4.3-1.73-5.54a6.43,6.43,0,0,0-4.94-1.87,7.6,7.6,0,0,0-5.73,2.18,8.71,8.71,0,0,0-2.1,6.28V86.09H59.73V58H66v3.63a10.3,10.3,0,0,1,4.1-2.95,14.9,14.9,0,0,1,5.57-1A11.74,11.74,0,0,1,84.17,60.82Z"/><path d="M157.32,58l-12,28.06h-6.77L126.47,58h6.83L142,78.84,151,58Z"/><path d="M180.73,60.68q3.28,3,3.29,9V86.09h-6.2V82.68a7.67,7.67,0,0,1-3.45,2.81,13.4,13.4,0,0,1-5.38,1,13.13,13.13,0,0,1-5.52-1.08,8.46,8.46,0,0,1-3.66-3,7.66,7.66,0,0,1-1.28-4.34A7.43,7.43,0,0,1,161.34,72c1.87-1.52,4.83-2.28,8.85-2.28h7.26v-.42a5.75,5.75,0,0,0-1.76-4.52,7.64,7.64,0,0,0-5.23-1.58,15.07,15.07,0,0,0-4.65.74,11.32,11.32,0,0,0-3.87,2l-2.57-4.79a15.82,15.82,0,0,1,5.31-2.57,23.39,23.39,0,0,1,6.57-.9C175.38,57.71,178.54,58.71,180.73,60.68Zm-6,19.87a6.16,6.16,0,0,0,2.71-3.23V74.06h-6.78q-5.68,0-5.68,3.73a3.34,3.34,0,0,0,1.42,2.84,6.52,6.52,0,0,0,3.94,1.05A8.51,8.51,0,0,0,174.74,80.55Z"/><path d="M220.17,47.1v39h-6.3V82.47a10.16,10.16,0,0,1-4,3,13.55,13.55,0,0,1-5.29,1,14.77,14.77,0,0,1-7.27-1.78,12.93,12.93,0,0,1-5.08-5.08,15.22,15.22,0,0,1-1.83-7.54,15.05,15.05,0,0,1,1.83-7.51,12.85,12.85,0,0,1,5.08-5,14.78,14.78,0,0,1,7.27-1.79,13.35,13.35,0,0,1,5.1.95,10.23,10.23,0,0,1,3.94,2.84V47.1ZM209.61,79.76a7.75,7.75,0,0,0,3-3.07,10.19,10.19,0,0,0,0-9.25,7.78,7.78,0,0,0-3-3.08,9,9,0,0,0-8.51,0,7.8,7.8,0,0,0-3,3.08,10.27,10.27,0,0,0,0,9.25,7.78,7.78,0,0,0,3,3.07,8.92,8.92,0,0,0,8.51,0Z"/><path d="M233.73,84.62a13.34,13.34,0,0,1-5.33-5.12,15.32,15.32,0,0,1,0-14.85,13.49,13.49,0,0,1,5.33-5.1,17,17,0,0,1,15.4,0,13.49,13.49,0,0,1,5.33,5.1,15.32,15.32,0,0,1,0,14.85,13.34,13.34,0,0,1-5.33,5.12,17,17,0,0,1-15.4,0Zm13.67-6.2a8.72,8.72,0,0,0,2.36-6.36,8.72,8.72,0,0,0-2.36-6.36,8,8,0,0,0-6-2.41,8,8,0,0,0-6,2.41,8.75,8.75,0,0,0-2.34,6.36,8.75,8.75,0,0,0,2.34,6.36,8,8,0,0,0,6,2.42A8,8,0,0,0,247.4,78.42Z"/><path d="M278.93,57.71V64A8.77,8.77,0,0,0,271.41,66a9,9,0,0,0-2.15,6.44V86.09h-6.57V58h6.25v4.1Q271.77,57.72,278.93,57.71Z"/><path d="M54.85,114A7.78,7.78,0,0,1,52,112.52l1.09-2.44a8.47,8.47,0,0,0,2.54,1.34,9.36,9.36,0,0,0,3,.52,5.16,5.16,0,0,0,2.81-.61,1.83,1.83,0,0,0,.92-1.58,1.56,1.56,0,0,0-.51-1.2,3.65,3.65,0,0,0-1.32-.73q-.8-.27-2.16-.6a24.66,24.66,0,0,1-3.12-.92,5.05,5.05,0,0,1-2.05-1.43,3.87,3.87,0,0,1-.86-2.64,4.54,4.54,0,0,1,.76-2.54,5.18,5.18,0,0,1,2.29-1.82,9.28,9.28,0,0,1,3.75-.67,11.93,11.93,0,0,1,3,.38,8.45,8.45,0,0,1,2.58,1.11l-1,2.43a10.19,10.19,0,0,0-2.31-1,8.81,8.81,0,0,0-2.34-.33,5,5,0,0,0-2.76.62,2,2,0,0,0-.9,1.67,1.5,1.5,0,0,0,.52,1.18,3.81,3.81,0,0,0,1.31.72c.53.17,1.25.38,2.17.6a23.4,23.4,0,0,1,3.08.9,5.34,5.34,0,0,1,2.06,1.44,3.78,3.78,0,0,1,.86,2.6,4.51,4.51,0,0,1-.76,2.53,5.2,5.2,0,0,1-2.3,1.8,9.36,9.36,0,0,1-3.76.68A12.84,12.84,0,0,1,54.85,114Z"/><path d="M76,113.42a8.24,8.24,0,0,1-3.25-3.11,9,9,0,0,1,0-8.89A8.22,8.22,0,0,1,76,98.32a10.19,10.19,0,0,1,9.29,0,8.22,8.22,0,0,1,3.26,3.09,9,9,0,0,1,0,8.91,8.32,8.32,0,0,1-3.26,3.1,10.19,10.19,0,0,1-9.29,0ZM83.67,111a5.4,5.4,0,0,0,2.12-2.12,6.41,6.41,0,0,0,0-6.09,5.47,5.47,0,0,0-2.12-2.12,6.44,6.44,0,0,0-6.07,0,5.54,5.54,0,0,0-2.12,2.12,6.41,6.41,0,0,0,0,6.09A5.47,5.47,0,0,0,77.6,111a6.44,6.44,0,0,0,6.07,0Z"/><path d="M97.26,97.44h3.13v14.21h8.81v2.65H97.26Z"/><path d="M117.47,112.58a7.66,7.66,0,0,1-2-5.63V97.44h3.14v9.39q0,5,4.28,5t4.27-5V97.44h3.08V107a7.7,7.7,0,0,1-1.94,5.63,8.52,8.52,0,0,1-10.87,0Z"/><path d="M142,100.09H136.4V97.44h14.31v2.65h-5.59V114.3H142Z"/><path d="M157.28,97.44h3.13V114.3h-3.13Z"/><path d="M172.41,113.42a8.24,8.24,0,0,1-3.25-3.11,9,9,0,0,1,0-8.89,8.22,8.22,0,0,1,3.25-3.1,10.21,10.21,0,0,1,9.3,0,8.26,8.26,0,0,1,3.25,3.09,9,9,0,0,1,0,8.91,8.36,8.36,0,0,1-3.25,3.1,10.21,10.21,0,0,1-9.3,0Zm7.68-2.39a5.4,5.4,0,0,0,2.12-2.12,6.41,6.41,0,0,0,0-6.09,5.47,5.47,0,0,0-2.12-2.12,6.44,6.44,0,0,0-6.07,0,5.54,5.54,0,0,0-2.12,2.12,6.41,6.41,0,0,0,0,6.09A5.47,5.47,0,0,0,174,111a6.44,6.44,0,0,0,6.07,0Z"/><path d="M208.66,97.44V114.3h-2.58l-9.3-11.42V114.3h-3.1V97.44h2.58l9.29,11.41V97.44Z"/><path d="M218.86,114a7.78,7.78,0,0,1-2.88-1.46l1.09-2.44a8.47,8.47,0,0,0,2.54,1.34,9.36,9.36,0,0,0,3,.52,5.16,5.16,0,0,0,2.81-.61,1.83,1.83,0,0,0,.92-1.58,1.56,1.56,0,0,0-.51-1.2,3.65,3.65,0,0,0-1.32-.73q-.79-.27-2.16-.6a24.66,24.66,0,0,1-3.12-.92,5.05,5.05,0,0,1-2.05-1.43,3.87,3.87,0,0,1-.86-2.64,4.54,4.54,0,0,1,.76-2.54,5.18,5.18,0,0,1,2.29-1.82,9.28,9.28,0,0,1,3.75-.67,11.93,11.93,0,0,1,3,.38,8.45,8.45,0,0,1,2.58,1.11l-1,2.43a10.19,10.19,0,0,0-2.31-1,8.81,8.81,0,0,0-2.34-.33,5,5,0,0,0-2.76.62,2,2,0,0,0-.9,1.67,1.5,1.5,0,0,0,.52,1.18,3.81,3.81,0,0,0,1.31.72c.53.17,1.25.38,2.17.6a23.4,23.4,0,0,1,3.08.9,5.34,5.34,0,0,1,2.06,1.44,3.78,3.78,0,0,1,.86,2.6,4.51,4.51,0,0,1-.76,2.53,5.2,5.2,0,0,1-2.3,1.8,9.36,9.36,0,0,1-3.76.68A12.84,12.84,0,0,1,218.86,114Z"/><rect class="cls-1" x="3.16" y="105.89" width="42.53" height="1.1"/><rect class="cls-1" x="236.47" y="105.89" width="42.53" height="1.1"/><path class="cls-2" d="M13.17,55.62l-1.36-.93,5.11-7.47a1.21,1.21,0,0,0-1.48-1.8L3.57,50.54a2.53,2.53,0,0,1-3-.79,2.53,2.53,0,0,1,0-3.15l4.57-5.7,1.28,1-4.57,5.7a.88.88,0,0,0,0,1.12A.87.87,0,0,0,2.92,49l11.87-5.12a2.86,2.86,0,0,1,3.49,4.24Z"/><path d="M9.24,34.18A4.12,4.12,0,1,1,5.12,38.3a4.11,4.11,0,0,1,4.12-4.12m0-1.26a5.38,5.38,0,1,0,5.38,5.38,5.39,5.39,0,0,0-5.38-5.38Z"/><path d="M9.24,55.16a4.42,4.42,0,0,1,4.42,4.42V82.64a4.42,4.42,0,0,1-8.84,0V59.58a4.42,4.42,0,0,1,4.42-4.42m0-1.65a6.07,6.07,0,0,0-6.06,6.07V82.64a6.07,6.07,0,0,0,12.13,0V59.58a6.07,6.07,0,0,0-6.07-6.07Z"/><text class="cls-3" transform="translate(19.38 10.49)"><tspan class="cls-4">P</tspan><tspan class="cls-5" x="6.36" y="0">o</tspan><tspan class="cls-6" x="13.15" y="0">w</tspan><tspan x="22.25" y="0">e</tspan><tspan class="cls-6" x="28.54" y="0">r</tspan><tspan x="32.51" y="0">ed </tspan><tspan class="cls-7" x="48.52" y="0">b</tspan><tspan class="cls-8" x="55.57" y="0">y</tspan></text></g></g></svg>