<?xml version="1.0" encoding="UTF-8"?>
<svg version="1.1" viewBox="0 0 2048 2048" width="1280" height="1280" xmlns="http://www.w3.org/2000/svg">
<path fill="#0040be" transform="translate(1021,31)" d="m0 0 11 1 16 6 25 11 180 77 56 24 30 13 33 14 49 21 30 13 12 6 5 4 6 9 3 9v359l-2 38-5 37-6 31-8 30-12 36-10 24-8 18-10 19-7 12-6 11-18 27-8 11-13 17-11 12v2l18 7 20 6 19 4h25l17-5 29-15 22-12 15-8-1-7-14-36-5-17-1-5v-24l5-19 8-16 9-12 9-9 15-10 18-8 47-18 28-11 34-13 17-4h23l18 4 16 8 13 9 9 9 10 14 8 18 22 57 57 147 17 44 28 72 22 57 16 41 50 129 15 39 4 14 1 5v25l-4 16-6 14-10 15h-2l-2 4-10 9-13 8-21 9-42 16-36 14-29 11-18 4h-16l-16-3-16-6-13-8-12-11-7-8-7-11-7-16-7-18-60 25-29 12h-2l1 6v27l-3 17-6 18-8 15-10 14-7 8h-2l-2 4-12 9-13 8-15 7-11 3 4 19 1 10v17l-2 15-4 15-7 17-8 13-8 10-8 9-14 11-15 9-15 6-19 5-9 1h-25l-3 31-5 17-7 15-8 13-9 11-12 12-15 10-16 8-15 5-14 3-7 1h-24l-11-2v15l-3 17-5 15-8 16-7 11-10 11-5 5-9 8-14 9-17 8-18 5-11 2h-28l-18-4-16-6-19-10-19-11h-3l-9 11-7 7-13 10-14 8-11 5-16 5-17 3h-24l-18-3-18-6-17-9-11-8-10-9-7-7-9-12-9-16-2-7-22 6-9 2-11 1h-16l-20-3-18-6-21-11-11-9-12-11-10-13-9-15v-2l-17 7-17 5-14 2h-23l-18-3-15-5-16-8-14-9-12-11-10-11-9-14-8-16-5-16-3-15v-32l-18-1-21-5-17-7-14-8-11-9-10-9-11-14-9-15-8-20-4-19-1-10v-11l2-17 5-19 9-20 12-22 16-30-1-7-5-16-9-42-5-21-5-13-6-7-10-5-60-26-6 12-9 20-7 11-8 10-8 7-11 7-12 6-13 4-11 2h-19l-17-4-15-6-43-19-45-20-20-9-12-7-13-11-9-11-8-14-5-14-2-9-1-9v-9l2-14 5-16 19-43 16-36 8-19 7-15 13-30 18-40 13-30 13-29 12-28 7-15 13-30 18-40 13-30 17-38 8-18 13-30 13-29 18-41 20-45 9-14 9-10 11-9 14-8 15-5 12-2h19l15 3 15 6 36 16 41 18 36 16 12 8 10 9 9 10 9 16 5 15 2 11v20l-4 18-12 28-10 23 9 3 25 12 33 15 21 10 19 5 9 1h22l-3-5-12-15-13-18-13-20-14-24-11-21-13-29-10-27-7-21-8-31-6-29-4-29-3-35-1-43v-270l1-61 4-10 8-9 16-8 30-13 100-43 271-116 16-6zm0 69-37 16-89 38-30 13-63 27-94 40-30 13-38 16-4 2v344l3 33 5 32 6 26 7 24 7 21 13 31 12 24 11 19 13 20 13 18 13 16 12 14 7 8h2l2 4 2 2 9-1 40-8 8-1-1-3-8-7-25-25-9-11-11-13-13-18-11-17-11-19-8-15-9-20-11-29-8-28-6-28-4-27-2-23v-297l4-10 7-8 16-8 25-11 107-46 159-68 16-6h11l12 4 140 60 37 16 54 23 42 18 30 13 11 7 7 10 2 7v288l-2 30-5 33-7 30-8 26-8 21-9 20-10 20-10 17-16 24-10 13-9 11-12 14-24 24 13 4 24 7 13 4 4-1 7-8 11-12 9-11 10-13 13-18 15-25 10-18 12-25 12-31 9-29 6-25 5-27 3-25 2-35v-329l-5-3-32-14-54-23-282-121-12-5zm3 121-13 5-30 13-105 45-54 23-30 13-35 15-9 4v267l4 35 6 29 8 26 8 21 11 24 10 18 18 27 13 16 9 10 7 8 11 11 8 7 14 12 13 10 21 14 25 14 27 13 15 6 34 11 4 1h8l16-9 23-11 25-9 21-6 23-5 20-12 18-13 17-14 10-9 6-5 7-8 12-12 11-14 9-12 13-20 10-18 10-21 9-24 8-27 5-24 4-33 1-19v-254l-5-3-29-13-26-11-189-81-26-11zm-653 496-10 5-6 8-18 40-15 34-13 30-13 29-18 41-17 38-18 41-20 45-13 30-18 40-18 41-12 27-18 41-12 27-19 43-14 32-3 12 2 8 5 8 9 6 41 18 36 16 32 14 7 2 10-1 8-4 6-7 16-35 13-30 13-29 15-34 11-25 19-43 12-27 34-77 18-41 36-81 18-41 9-21 7-15 19-43 17-39 2-7v-8l-5-10-7-6-28-13-30-13-45-20-12-5-4-1zm1323 39-20 7-46 18-44 17-14 7-6 7-2 6v10l8 22 14 36 15 39 16 41 17 44 57 147 17 44 38 98 16 41 15 39 17 43 6 10 6 4 3 1h14l27-10 33-13 49-19 12-6 5-4 4-8v-12l-8-22-16-41-19-49-22-57-14-36-19-49-17-44-16-41-10-26-19-49-16-41-15-39-16-41-18-47-7-16-6-7-6-3-4-1zm-536 185-26 3-21 5-18 6-20 9-21 11-17 11-16 11-14 11-14 12-8 7-4 3v2l-4 2-9 9-6 5v2h-2v2l-4 2-25 25-8 7-11 10-11 9-9 8-11 9-18 14-13 10-18 13-14 10-39 26-19 12-9 5 2 4 8 7 7 7 13 10 18 11 17 8 18 5 17 3h36l25-4 27-7 27-9 32-12 60-24 33-12 30-9 28-6 13-2 12-1h25l18 2 21 5 20 8 23 12 24 14 25 14 24 14 25 14 21 12 26 15 25 14 21 12 26 15 23 13 56 32 12 9 10 9 5 5 6-1 45-19 41-17 4-2-1-5-7-19-69-178-17-44-16-41-10-26-19-49-14-36-2-2-16 8-26 14-19 10-19 7-18 4-6 1h-33l-27-5-25-7-25-9-41-16-27-10-29-9-24-5-13-2-14-1zm-635-13-11 24-18 41-28 63-13 30-13 29-18 41-17 38-15 34-11 26-7 15-19 43-2 4v3l29 13 39 17 12 7 9 7 7 7 7 10 7 12 7 18 6 23 3 3 9-8 16-10 15-7 16-5 12-2h31l20 4 15 6 12 6 14 10 10 9 7 7 11 16 8 16 4 11 5 19 24-1 21 2 15 4 13 5 18 10 11 9 9 8 11 14 8 13 7 16 2 6 7-1 17-3h26l17 3 18 6 17 9 14 10 5 5h2l2 4h2l2 4 9 11 10 18 6 16 3 1 11-3 20-2 20 1 15 3 17 6 19 10 14 11 14 14 23 13 25 14 21 12 25 14 21 12 23 13 21 12 14 5 8 1h10l12-3 14-7 11-10 7-11 4-13 1-14-2-12-5-12-8-11-8-7-15-9-23-13-25-14-24-14-29-16-21-12-25-14-24-14-29-16-15-9-10-9-4-8-1-4v-12l4-10 4-6 9-7 10-3h8l10 3 19 10 21 12 25 14 23 13 25 14 23 13 25 14 23 13 25 14 23 13 25 14 15 9 11 5 11 3h17l16-5 11-7 9-9 7-12 3-11 1-12-2-13-5-12-6-9-4-5-13-9-25-14-23-13-50-28-23-13-21-12-23-13-28-16-17-10-8-8-5-12v-11l4-11 6-8 8-5 6-2 8-1 10 2 16 8 28 16 25 14 21 12 25 14 21 12 27 15 23 13 25 14 13 6 10 2h12l12-3 16-8 10-10 7-11 4-15v-16l-5-16-7-11-9-9-13-8-28-16-25-14-24-14-25-14-24-14-25-14-24-14-27-15-24-14-25-14-24-14-27-15-12-5-17-4-11-1h-15l-24 3-31 8-29 10-28 11-30 12-36 14-35 12-30 8-26 5-24 3h-40l-21-3-23-6-25-10-20-11-17-12-11-9-15-14-12-12-7-8-11-14-6-12-2-8v-8l3-12 6-11 7-7 21-13 15-9 25-16 24-16 36-26 18-14 16-13 11-9 15-13 16-15 2-1v-2l4-2 21-21 3-2v-2l4-2 15-15 11-9 5-6-10-5-20-6-19-4-8-1h-46l-30 4-42 9-26 6-32 6-26 3h-32l-25-4-19-6-18-8-23-11-33-15-17-8zm28 540-16 5-13 9-9 10-13 24-10 19-12 22-17 32-9 17-4 14v19l5 15 6 10 8 9 14 9 13 4 14 1 15-3 16-8 6-8 16-28 15-26 11-19 14-24 12-21 4-12 1-5v-15l-3-13-6-12-7-9-12-9-12-5-8-2zm151 103-14 2-12 5-8 6-6 10-10 17-6 11-10 17-6 11-26 46-15 26-11 19-6 16-1 6v15l4 14 6 11 11 12 9 6 14 5 5 1h16l12-3 12-6 9-7 7-8 9-16 20-39 14-27 19-37 10-19 8-15 4-9 1-4v-16l-3-12-6-12-7-9-8-7-12-6-16-4zm151 83-12 2-16 8-7 6-12 23-10 19-10 20-10 19-14 27-16 31-6 12v13l4 14 6 11 9 10 10 7 12 5 10 2h11l14-3 14-7 10-9 6-8 21-41 10-19 29-56 8-15 1-3v-20l-4-14-7-12-8-9-11-7-10-4-9-2zm150 83-13 4-11 6-7 6-14 27-36 69-15 29-5 10v15l5 16 7 11 10 10 10 6 12 4 5 1h16l12-3 12-6 7-5v-2l4-2v-2h2l10-16 12-23 12-22 12-23 12-22 5-11 3-13v-13l-3-14-8-15-8-9-11-7-9-4-9-2zm131 69-3 17-5 17-8 16-10 19-6 11-10 19-1 4 24 14 16 8 9 2h17l15-5 11-7 10-10 7-13 3-13v-14l-4-15-7-12-5-5-8-7-20-12-21-12z"/>
<path fill="#0040be" transform="translate(1175,379)" d="m0 0h16l16 3 13 5 14 9 10 9 7 8 7 11 6 15 3 15v18l-4 18-4 9-6 11-11 13-25 25-1 2h-2v2h-2v2h-2v2h-2l-2 4-74 74-5 6h-2l-2 4-89 89-11 8-14 7-14 4-7 1h-21l-17-4-16-8-9-7-10-9-113-113-8-11-8-16-4-13-1-6v-21l4-17 8-16 7-10 2-3h2l2-4 11-9 12-7 18-6 8-1h20l15 3 14 6 12 8 12 11 49 49h3l5-5 9-10 65-65 5-6h2v-2h2v-2h2v-2h2v-2h2v-2h2l2-4 50-50 14-10 11-5 9-3zm4 65-8 4-34 34v2l-4 2-7 8-82 82v2h-2v2h-2v2h-2v2h-2v2h-2v2h-2l-6 7-24 24-9 6-10 3h-11l-10-4-11-9-6-7-6-5-7-8h-2l-2-4-47-47-9-6-2-1h-10l-8 4-4 5-2 6v8l4 8 116 116 8 4h9l8-4 55-55v-2l4-2v-2l3-1 5-6 6-5 7-8 82-82v-2l4-2v-2l4-2v-2l3-1 7-8 28-28 3-8v-7l-4-8-6-5-5-2z"/>
<path fill="#0040be" transform="translate(1659,818)" d="m0 0h9l9 2 10 6 5 4 6 9 4 12v11l-3 10-6 10-10 8-13 5h-13l-10-3-11-8-7-10-4-11v-13l4-11 6-9 9-7 9-4z"/>
<path fill="#0040be" transform="translate(401,781)" d="m0 0h14l11 4 8 6 7 8 4 9 2 11-2 12-5 10-8 9-12 6-9 2-13-1-9-4-8-6-7-9-4-10-1-12 3-11 4-8 5-6 10-7z"/>
</svg>
