<?xml version="1.0" encoding="UTF-8"?>
<svg version="1.1" viewBox="0 0 2048 2048" width="1280" height="1280" xmlns="http://www.w3.org/2000/svg">
<path fill="#0040be" transform="translate(617,209)" d="m0 0h1401l12 3 8 6 6 7 4 7v1417h-2l-3 6-5 6-10 6-9 2h-776v65l-1 19-3 15-6 16-9 15-12 13-9 8-14 8-12 5-15 4-6 1-35 1h-994l-43-1-18-4-16-7-12-8-12-11-8-9-8-13-6-14-4-13v-247l4-10 5-13 8-13 8-10 9-9 10-7 17-9 13-4 13-2 58-1 1-134h-51l-18-2-17-5-17-9-10-8-12-12-10-15-6-13-5-16v-246l3-8 5-13 7-13 8-10 7-8 11-9 16-9 14-5 10-2 11-1h495l1-657 2-8 4-8 4-5 9-6 4-2zm37 65-1 13v609l5 1h490l18 2 13 4 16 8 11 7 15 15 9 14 7 16 4 18 1 27v183l-1 23-3 15-6 16-9 15-5 6v2h-2l-4 4v2l-4 2-11 8-16 8-13 4-9 2-15 1-48 1v135l58 1 17 3 16 6 12 7 13 10 9 10 9 14 6 13 4 15 1 6 1 23 1 61 64 1h674l2-1v-1330zm-561 687-8 2-9 5v2l-4 2-5 9-2 5-1 11v205l2 11 4 8 5 6 10 6 9 2h1053l10-2 11-7 7-10 2-7v-222l-4-11-7-8-12-6-6-1zm118 339v135h819l1-2v-133zm-120 200-9 3-9 7-6 9-2 6-1 11v205l2 11 4 8 4 5 7 5 8 3 16 1h1033l15-1 12-6 7-7 4-8 1-5v-222l-4-10-8-9-10-5-4-1z"/>
<path fill="#0040be" transform="translate(1406,425)" d="m0 0h384l17 1 10 4 8 7 5 8 2 7v408l-4 11-9 10-10 5-4 1h-11l-11-4-8-7-5-8-2-5-1-6-1-319-370 370-9 5-5 2h-14l-9-3-10-9-6-11-1-5v-8l3-10 8-11 367-367h-313l-15-2-10-6-6-7-4-8-1-3v-14l4-10 7-8 8-5 5-2z"/>
<path fill="#0040be" transform="translate(219,1065)" d="m0 0h532l18 1 9 3 10 9 5 8 2 6v11l-4 11-6 8-7 5-10 3-90 1h-455l-15-1-10-4-5-4-6-8-4-10v-11l3-10 7-9 9-6 5-2z"/>
<path fill="#0040be" transform="translate(214,1604)" d="m0 0h549l11 2 10 6 6 7 4 8 1 4v12l-4 9-4 6-8 7-8 3-6 1h-555l-11-4-8-7-6-9-2-7v-10l3-10 6-8 6-5 8-4z"/>
<path fill="#0040be" transform="translate(970,1065)" d="m0 0h44l19 1 9 3 6 4v2h2l6 9 3 8v12l-4 10-6 8-7 5-10 3-21 1h-40l-11-1-9-4-8-7-5-7-2-5-1-11 3-12 8-11 10-6z"/>
<path fill="#0040be" transform="translate(965,1604)" d="m0 0h63l10 2 9 5 7 8 4 8 1 4v12l-4 10-9 10-7 4-10 2h-67l-11-4-9-8-6-12-1-9 2-11 6-10 7-6 8-4z"/>
</svg>
